<svg width="44" height="38" viewBox="0 0 44 38" fill="none" xmlns="http://www.w3.org/2000/svg">
<path d="M11.2073 37.3013C8.00248 37.3013 5.43861 36.1567 3.51571 33.8675C1.68437 31.4868 0.768707 28.4193 0.768707 24.6651C0.768707 19.5373 2.14221 14.9132 4.88921 10.7927C7.72778 6.58061 12.0314 3.05529 17.8001 0.216727L19.311 2.41433C16.564 4.06253 14.0459 6.39748 11.7567 9.41918C9.55912 12.3493 8.46032 15.3252 8.46032 18.3469C8.46032 19.171 8.68923 19.8578 9.14707 20.4072C9.6049 20.865 10.2917 21.094 11.2073 21.094C13.4965 21.094 15.4194 21.9181 16.976 23.5662C18.6242 25.1229 19.4483 27.0458 19.4483 29.335C19.4483 31.6241 18.6242 33.547 16.976 35.1037C15.4194 36.5687 13.4965 37.3013 11.2073 37.3013ZM34.9689 37.3013C31.7641 37.3013 29.2002 36.1567 27.2773 33.8675C25.446 31.4868 24.5303 28.4193 24.5303 24.6651C24.5303 19.5373 25.9038 14.9132 28.6508 10.7927C31.4894 6.58061 35.793 3.05529 41.5617 0.216727L43.0726 2.41433C40.3256 4.06253 37.8075 6.39748 35.5183 9.41918C33.3207 12.3493 32.2219 15.3252 32.2219 18.3469C32.2219 19.171 32.4508 19.8578 32.9086 20.4072C33.3665 20.865 34.0532 21.094 34.9689 21.094C37.2581 21.094 39.181 21.9181 40.7376 23.5662C42.3858 25.1229 43.2099 27.0458 43.2099 29.335C43.2099 31.6241 42.3858 33.547 40.7376 35.1037C39.181 36.5687 37.2581 37.3013 34.9689 37.3013Z" fill="#9F3232"/>
</svg>
