<svg width="118" height="98" viewBox="0 0 118 98" fill="none" xmlns="http://www.w3.org/2000/svg">
<path d="M41.4614 91.0859C41.4614 82.2494 48.6249 75.0859 57.4614 75.0859H61.6345C70.4711 75.0859 77.6345 82.2494 77.6345 91.0859V94.3648C77.6345 94.9171 77.1868 95.3648 76.6345 95.3648H42.4614C41.9091 95.3648 41.4614 94.9171 41.4614 94.3648V91.0859Z" stroke="#6E8869" stroke-width="3.5"/>
<circle cx="59.5482" cy="63.577" r="9.75962" stroke="#6E8869" stroke-width="3.5"/>
<path d="M79.8271 57.1064C79.8271 48.2699 86.9906 41.1064 95.8271 41.1064H100C108.837 41.1064 116 48.2699 116 57.1064V60.3853C116 60.9376 115.553 61.3853 115 61.3853H80.8271C80.2749 61.3853 79.8271 60.9376 79.8271 60.3853V57.1064Z" stroke="#6E8869" stroke-width="3.5"/>
<circle cx="97.9139" cy="29.5975" r="9.75962" stroke="#6E8869" stroke-width="3.5"/>
<path d="M2 57.1064C2 48.2699 9.16344 41.1064 18 41.1064H22.1731C31.0096 41.1064 38.1731 48.2699 38.1731 57.1064V60.3853C38.1731 60.9376 37.7254 61.3853 37.1731 61.3853H3C2.44772 61.3853 2 60.9376 2 60.3853V57.1064Z" stroke="#6E8869" stroke-width="3.5"/>
<circle cx="20.0868" cy="29.5975" r="9.75962" stroke="#6E8869" stroke-width="3.5"/>
<path d="M58.7261 40.8319V33.3848C58.7261 17.3685 71.7098 4.38477 87.7261 4.38477H96.2693" stroke="#6E8869" stroke-width="3.5" stroke-linecap="round" stroke-linejoin="round"/>
<path d="M58.7261 40.8319V33.3848C58.7261 17.3685 45.7423 4.38477 29.7261 4.38477H21.1828" stroke="#6E8869" stroke-width="3.5" stroke-linecap="round" stroke-linejoin="round"/>
<circle cx="21.1825" cy="4.38462" r="4.38462" fill="#6E8869"/>
<circle cx="96.2694" cy="4.38462" r="4.38462" fill="#6E8869"/>
<circle cx="58.452" cy="41.1063" r="4.38462" fill="#6E8869"/>
</svg>
