<svg width="116" height="116" viewBox="0 0 116 116" fill="none" xmlns="http://www.w3.org/2000/svg">
<path d="M96.7602 51.5007L84.0378 64.2186L78.5202 58.6645C78.0921 58.237 77.5116 57.997 76.9066 57.9975C76.3016 57.9979 75.7215 58.2387 75.294 58.6668C74.8665 59.0949 74.6265 59.6753 74.627 60.2804C74.6274 60.8854 74.8681 61.4655 75.2963 61.893L82.46 69.0567C82.8876 69.4842 83.4674 69.7243 84.072 69.7243C84.6766 69.7243 85.2564 69.4842 85.6839 69.0567L100.021 54.7247C100.238 54.5143 100.412 54.2628 100.532 53.9846C100.651 53.7064 100.714 53.4072 100.717 53.1045C100.719 52.8018 100.661 52.5015 100.547 52.2213C100.432 51.9411 100.263 51.6866 100.049 51.4725C99.8348 51.2584 99.5802 51.0891 99.3 50.9745C99.0198 50.8598 98.7196 50.8021 98.4168 50.8048C98.1141 50.8074 97.8149 50.8703 97.5367 50.9898C97.2586 51.1093 97.007 51.283 96.7967 51.5007H96.7602Z" fill="#284285" stroke="white"/>
<path d="M115 60.28C114.988 53.8205 112.693 47.5732 108.521 42.6418C104.349 37.7104 98.5682 34.4123 92.2 33.3304V21.52C92.2005 21.2204 92.142 20.9236 92.0278 20.6466C91.9135 20.3696 91.7458 20.1179 91.5342 19.9058L73.2942 1.66576C73.0821 1.45417 72.8304 1.28646 72.5534 1.17223C72.2764 1.05799 71.9796 0.999469 71.68 1H16.96C16.3553 1 15.7754 1.24022 15.3478 1.6678C14.9202 2.09538 14.68 2.67531 14.68 3.28V14.68H3.28C2.67531 14.68 2.09538 14.9202 1.6678 15.3478C1.24021 15.7754 1 16.3553 1 16.96V112.72C1 113.325 1.24021 113.905 1.6678 114.332C2.09538 114.76 2.67531 115 3.28 115H80.8C81.4047 115 81.9846 114.76 82.4122 114.332C82.8398 113.905 83.08 113.325 83.08 112.72V101.32H89.92C90.5247 101.32 91.1046 101.08 91.5322 100.652C91.9598 100.225 92.2 99.6447 92.2 99.04V87.2296C98.5682 86.1476 104.349 82.8496 108.521 77.9182C112.693 72.9868 114.988 66.7395 115 60.28ZM73.96 8.78392L84.4161 19.24H73.96V8.78392ZM78.52 110.44H5.56V19.24H14.68V99.04C14.68 99.6447 14.9202 100.225 15.3478 100.652C15.7754 101.08 16.3553 101.32 16.96 101.32H78.52V110.44ZM87.64 96.76H19.24V5.56H69.4V21.52C69.4 22.1247 69.6402 22.7046 70.0678 23.1322C70.4954 23.5598 71.0753 23.8 71.68 23.8H87.64V32.92C80.3837 32.92 73.4246 35.8026 68.2936 40.9336C63.1626 46.0646 60.28 53.0237 60.28 60.28C60.28 67.5363 63.1626 74.4954 68.2936 79.6264C73.4246 84.7574 80.3837 87.64 87.64 87.64V96.76ZM87.64 83.08C83.1306 83.08 78.7224 81.7428 74.973 79.2375C71.2236 76.7322 68.3012 73.1713 66.5755 69.0052C64.8499 64.839 64.3983 60.2547 65.2781 55.8319C66.1578 51.4092 68.3293 47.3466 71.518 44.158C74.7066 40.9693 78.7692 38.7978 83.1919 37.9181C87.6147 37.0383 92.199 37.4899 96.3652 39.2155C100.531 40.9412 104.092 43.8636 106.598 47.613C109.103 51.3624 110.44 55.7706 110.44 60.28C110.433 66.3247 108.028 72.1198 103.754 76.394C99.4798 80.6683 93.6847 83.0727 87.64 83.08Z" fill="#284285" stroke="white"/>
<path d="M42.04 56.3864L34.9811 63.4727L32.2451 60.7367C31.8176 60.3085 31.2375 60.0678 30.6325 60.0674C30.0275 60.0669 29.447 60.3069 29.0189 60.7344C28.5908 61.1619 28.35 61.742 28.3496 62.347C28.3492 62.952 28.5891 63.5325 29.0166 63.9606L33.3623 68.3017C33.7899 68.7291 34.3697 68.9693 34.9743 68.9693C35.5788 68.9693 36.1587 68.7291 36.5862 68.3017L45.273 59.6377C45.7012 59.2102 45.9419 58.6301 45.9423 58.0251C45.9428 57.42 45.7028 56.8396 45.2753 56.4115C44.8478 55.9834 44.2677 55.7426 43.6627 55.7422C43.0577 55.7418 42.4772 55.9817 42.0491 56.4092L42.04 56.3864Z" fill="#284285" stroke="white"/>
<path d="M42.04 74.6286L34.9811 81.7148L32.2451 78.9788C32.0334 78.7669 31.7821 78.5986 31.5054 78.4838C31.2287 78.369 30.9321 78.3097 30.6325 78.3095C30.3329 78.3093 30.0362 78.3681 29.7594 78.4826C29.4825 78.597 29.2309 78.7649 29.0189 78.9766C28.8069 79.1882 28.6387 79.4396 28.5239 79.7163C28.409 79.993 28.3498 80.2896 28.3496 80.5892C28.3494 80.8888 28.4082 81.1855 28.5226 81.4623C28.6371 81.7392 28.805 81.9908 29.0166 82.2028L33.3623 86.5439C33.7899 86.9713 34.3697 87.2114 34.9743 87.2114C35.5788 87.2114 36.1587 86.9713 36.5862 86.5439L45.273 77.8799C45.7012 77.4524 45.9419 76.8723 45.9423 76.2673C45.9428 75.6622 45.7028 75.0818 45.2753 74.6537C44.8478 74.2256 44.2677 73.9848 43.6627 73.9844C43.0577 73.9839 42.4772 74.2239 42.0491 74.6514L42.04 74.6286Z" fill="#284285" stroke="white"/>
<path d="M30.6394 19.2397H57.9994C58.6041 19.2397 59.184 18.9995 59.6116 18.5719C60.0392 18.1443 60.2794 17.5644 60.2794 16.9597C60.2794 16.355 60.0392 15.7751 59.6116 15.3475C59.184 14.9199 58.6041 14.6797 57.9994 14.6797H30.6394C30.0347 14.6797 29.4548 14.9199 29.0272 15.3475C28.5996 15.7751 28.3594 16.355 28.3594 16.9597C28.3594 17.5644 28.5996 18.1443 29.0272 18.5719C29.4548 18.9995 30.0347 19.2397 30.6394 19.2397Z" fill="#284285" stroke="white"/>
<path d="M57.9994 28.3594H30.6394C30.0347 28.3594 29.4548 28.5996 29.0272 29.0272C28.5996 29.4548 28.3594 30.0347 28.3594 30.6394C28.3594 31.2441 28.5996 31.824 29.0272 32.2516C29.4548 32.6792 30.0347 32.9194 30.6394 32.9194H57.9994C58.6041 32.9194 59.184 32.6792 59.6116 32.2516C60.0392 31.824 60.2794 31.2441 60.2794 30.6394C60.2794 30.0347 60.0392 29.4548 59.6116 29.0272C59.184 28.5996 58.6041 28.3594 57.9994 28.3594Z" fill="#284285" stroke="white"/>
<path d="M44.3194 42.0391H30.6394C30.0347 42.0391 29.4548 42.2793 29.0272 42.7069C28.5996 43.1344 28.3594 43.7144 28.3594 44.3191C28.3594 44.9238 28.5996 45.5037 29.0272 45.9313C29.4548 46.3589 30.0347 46.5991 30.6394 46.5991H44.3194C44.9241 46.5991 45.504 46.3589 45.9316 45.9313C46.3592 45.5037 46.5994 44.9238 46.5994 44.3191C46.5994 43.7144 46.3592 43.1344 45.9316 42.7069C45.504 42.2793 44.9241 42.0391 44.3194 42.0391Z" fill="#284285" stroke="white"/>
</svg>
