<svg width="108" height="109" viewBox="0 0 108 109" fill="none" xmlns="http://www.w3.org/2000/svg">
<path d="M102.229 2.85518L103.14 2.50317C103.265 2.50949 103.39 2.52531 103.514 2.55071C103.99 2.64849 104.428 2.88401 104.772 3.22808C105.116 3.57215 105.352 4.00964 105.449 4.4863C105.547 4.96298 105.503 5.45787 105.322 5.90962L105.316 5.92352L105.311 5.93749L67.4247 103.977C67.4239 103.979 67.4231 103.981 67.4223 103.983C67.2385 104.446 66.9199 104.843 66.5078 105.122C66.0938 105.403 65.6048 105.553 65.1046 105.551H65.0971H64.9612C64.4486 105.536 63.953 105.363 63.5425 105.055C63.1283 104.744 62.8215 104.312 62.6648 103.819C62.664 103.817 62.6632 103.814 62.6625 103.812L49.3721 60.4517L48.9832 59.183L47.7145 58.7941L4.3377 45.4985L4.31761 45.4923L4.29741 45.4865C3.79361 45.3413 3.34861 45.0405 3.02606 44.6272C2.70351 44.2138 2.51992 43.7091 2.50153 43.1851C2.48314 42.6611 2.63091 42.1447 2.9237 41.7098C3.21648 41.2748 3.6393 40.9436 4.13168 40.7634L4.15282 40.7557L4.17382 40.7476L102.229 2.85518Z" stroke="#284285" stroke-width="5"/>
</svg>
