<svg width="114" height="114" viewBox="0 0 114 114" fill="none" xmlns="http://www.w3.org/2000/svg">
<circle cx="7.0274" cy="33.5752" r="7.0274" fill="#284285"/>
<circle cx="12.4932" cy="7.0274" r="7.0274" fill="#284285"/>
<circle cx="108.144" cy="61.2946" r="5.85616" fill="#284285"/>
<circle cx="9.76027" cy="90.9658" r="9.76027" fill="#284285"/>
<circle cx="77.6919" cy="104.24" r="9.76027" fill="#284285"/>
<circle cx="51.9248" cy="46.4589" r="8.97945" fill="#284285"/>
<circle cx="100.726" cy="12.4932" r="12.4932" fill="#284285"/>
<path d="M14.4452 8.19873L95.6647 9.74577C96.117 9.75438 96.5072 10.0656 96.6162 10.5048L108.906 60.0354C109.089 60.7755 108.41 61.4405 107.674 61.2416L53.7084 46.6562C52.8716 46.43 52.6992 45.319 53.4281 44.8499L94.3538 18.5152C95.1096 18.0288 94.89 16.8699 94.0087 16.6936L90.7705 16.046C90.6416 16.0202 90.509 16.0201 90.3801 16.0456L10.566 31.8542C10.0977 31.947 9.76025 32.3578 9.76025 32.8352V37.4627C9.76025 37.7238 9.86235 37.9745 10.0447 38.1613L72.4625 102.092C73.089 102.734 74.1781 102.29 74.1781 101.394V98.9637C74.1781 98.8384 74.1563 98.7189 74.1104 98.6023C67.839 82.6684 55.0423 50.9855 53.4863 50.3631C51.5342 49.5823 48.8013 43.7261 47.6301 42.9453C46.6931 42.3206 25.1164 20.5617 14.4452 9.76037" stroke="#284285" stroke-width="2" stroke-linecap="square"/>
<path d="M104.63 64.0275C100.312 65.2611 43.3631 80.5535 14.3679 88.33C13.78 88.4877 13.2089 88.0825 13.1361 87.4782L7.02734 36.6987" stroke="#284285" stroke-width="2" stroke-linecap="square"/>
<path d="M12.1025 94.0889L78.082 103.459" stroke="#284285" stroke-width="2" stroke-linecap="square"/>
</svg>
