<svg width="114" height="115" viewBox="0 0 114 115" fill="none" xmlns="http://www.w3.org/2000/svg">
<path d="M20.636 105.524C20.6485 105.531 20.6668 105.543 20.6844 105.554C20.7138 105.574 20.7531 105.603 20.7936 105.643L20.8894 105.737L20.9254 105.866L21.0021 106.14L21.124 106.576L20.7021 106.74L12.2949 110.016C12.2948 110.016 12.2947 110.016 12.2945 110.016C11.2189 110.437 10.6818 111.655 11.0991 112.739C11.4225 113.574 12.2129 114.083 13.049 114.083C13.3006 114.083 13.5575 114.038 13.8033 113.942L13.8036 113.942L24.4073 109.809C24.4074 109.809 24.4075 109.809 24.4075 109.809C25.412 109.417 25.9589 108.322 25.6662 107.277L25.6661 107.276L25.0013 104.9L24.9168 104.598L25.1522 104.39L31.7375 98.5829L31.8793 98.4579H32.0682H77.7276C78.1509 98.4579 78.5675 98.3269 78.9171 98.0846L20.636 105.524ZM20.636 105.524C20.2036 105.008 20.0912 104.332 20.2481 103.68L20.2785 103.553L20.2435 103.428L11.8125 73.2875L11.6638 72.7557L11.1493 72.9564L3.34764 76C3.34737 76.0001 3.34709 76.0002 3.34681 76.0003C2.2765 76.4137 1.06111 75.8809 0.64197 74.7985C0.224361 73.7135 0.759814 72.4954 1.8373 72.0748C1.83735 72.0748 1.8374 72.0748 1.83745 72.0747L12.2995 67.9956L12.3011 67.995C12.8461 67.7804 13.4614 67.8088 13.987 68.075L13.9884 68.0757C14.515 68.3404 14.9077 68.8168 15.0672 69.3884L15.0673 69.3887L16.2773 73.7144L16.4845 74.4552L17.0774 73.9651L29.7655 63.4774L29.7662 63.4768C30.139 63.1676 30.6079 62.9994 31.0916 62.9994H64.7731C69.9133 62.9994 74.1062 66.99 74.5478 72.0569L74.6149 72.8268L75.2897 72.45L98.2784 59.6147L98.2786 59.6146C101.486 57.8221 105.283 57.8692 108.447 59.7394C111.612 61.6111 113.5 64.9286 113.5 68.6208C113.5 72.0029 111.849 75.1681 109.084 77.0909L109.084 77.091L78.9177 98.0842L20.636 105.524ZM76.9179 94.2495H77.0748L77.2035 94.1599L106.705 73.6293C108.343 72.4902 109.318 70.6174 109.318 68.6208C109.318 66.441 108.201 64.4735 106.327 63.3683C104.457 62.2641 102.2 62.2296 100.307 63.2944C100.307 63.2944 100.307 63.2945 100.307 63.2946L72.8601 78.6176L72.7648 78.6708L72.7003 78.759C70.8999 81.2204 68.0278 82.8328 64.7731 82.8328H46.6369C45.4834 82.8328 44.546 81.8943 44.546 80.7287C44.546 79.563 45.4834 78.6245 46.6369 78.6245H64.7731C67.9082 78.6245 70.4549 76.0611 70.4549 72.9161C70.4549 69.7712 67.9082 67.2078 64.7731 67.2078H32.0202H31.8403L31.7016 67.3224L17.9722 78.6702L17.7216 78.8773L17.8092 79.1903L23.4466 99.342L23.6612 100.109L24.2588 99.5822L29.7145 94.7705L29.7154 94.7697C30.0938 94.4343 30.5829 94.2495 31.0916 94.2495H76.9179Z" fill="#9F3232" stroke="white"/>
<path d="M29.3153 16.3336C30.3122 15.3875 31.8707 15.3875 32.8676 16.3336L40.6403 23.6998C41.6827 24.6865 41.7308 26.3345 40.7491 27.381L29.3153 16.3336ZM29.3153 16.3336L21.5426 23.6998M29.3153 16.3336L21.5426 23.6998M21.4338 27.381L21.4338 27.3809L21.4338 27.381ZM21.4338 27.381C20.4521 26.3345 20.5002 24.6865 21.5426 23.6998M21.4338 27.381L21.5426 23.6998M33.1823 24.2624V51.5825H29.0006V24.2624V23.0999L28.1567 23.8995L24.7511 27.1261L24.7499 27.1272C23.9169 27.9215 22.5888 27.8835 21.7989 27.0393L21.7985 27.0389C21.0049 26.1929 21.044 24.8602 21.8863 24.0629L21.8866 24.0627L29.6592 16.6965L29.6595 16.6962C30.4634 15.9333 31.7195 15.9333 32.5234 16.6962L32.5237 16.6965L40.2963 24.0627L40.2966 24.0629C41.1389 24.8602 41.178 26.1929 40.3844 27.0389L40.3842 27.0391C39.9739 27.4772 39.4196 27.6986 38.8641 27.6986C38.3493 27.6986 37.8342 27.509 37.4326 27.1268L37.4318 27.1261L34.0262 23.8995L33.1823 23.0999V24.2624Z" fill="#9F3232" stroke="white"/>
<path d="M61.6823 16.4509V51.5835H57.5006V16.4509V15.2884L56.6567 16.0879L53.2511 19.3145L53.2502 19.3154C52.4168 20.109 51.0885 20.0717 50.2989 19.2278L50.2985 19.2273C49.5049 18.3814 49.544 17.0487 50.3863 16.2514L50.3866 16.2512L58.1592 8.88495L58.1595 8.88472C58.9634 8.12176 60.2195 8.12176 61.0234 8.88472L61.0237 8.88495L68.7964 16.2512L68.7966 16.2514C69.6389 17.0487 69.678 18.3814 68.8844 19.2273L68.8842 19.2276C68.4739 19.6657 67.9196 19.887 67.3641 19.887C66.8494 19.887 66.3342 19.6974 65.9326 19.3153L65.9318 19.3146L62.5262 16.0879L61.6823 15.2884V16.4509Z" fill="#9F3232" stroke="white"/>
<path d="M90.1819 8.63841V48.9793H86.0001V8.63841V7.47591L85.1562 8.27545L81.7506 11.5021L81.7497 11.5029C80.916 12.2968 79.5879 12.2601 78.7986 11.4155L78.798 11.4149C78.0044 10.5689 78.0435 9.2362 78.8858 8.43886L78.8861 8.43865L86.6587 1.07245L86.659 1.07222C87.4629 0.309262 88.719 0.309261 89.523 1.07222L89.5232 1.07245L97.2959 8.43865L97.2961 8.43886C98.1384 9.2362 98.1775 10.5689 97.3839 11.4149L97.3837 11.4151C96.9734 11.8532 96.4191 12.0746 95.8636 12.0746C95.3489 12.0746 94.8337 11.8849 94.4321 11.5028L94.4313 11.5021L91.0257 8.27545L90.1819 7.47591V8.63841Z" fill="#9F3232" stroke="white"/>
</svg>
