<svg width="115" height="116" viewBox="0 0 115 116" fill="none" xmlns="http://www.w3.org/2000/svg">
<path d="M40.9039 43.0415C37.6627 46.7564 35.7593 51.45 35.4976 56.3731H26.428C26.0492 56.3731 25.6858 56.5236 25.4179 56.7915C25.15 57.0594 24.9995 57.4227 24.9995 57.8016C24.9995 58.1805 25.15 58.5438 25.4179 58.8117C25.6858 59.0796 26.0492 59.2302 26.428 59.2302H35.5278C35.8896 64.0538 37.8264 68.6249 41.0403 72.2401L34.52 78.7604C34.3873 78.893 34.2821 79.0506 34.2103 79.2239C34.1385 79.3973 34.1016 79.583 34.1016 79.7707C34.1016 79.9583 34.1386 80.1441 34.2104 80.3174C34.2822 80.4908 34.3874 80.6483 34.5201 80.7809C34.6528 80.9136 34.8103 81.0188 34.9836 81.0906C35.157 81.1624 35.3428 81.1993 35.5304 81.1993C35.9093 81.1993 36.2727 81.0488 36.5406 80.7808L43.0679 74.2536C46.7256 77.4549 51.3383 79.3584 56.1892 79.6684V88.7532C56.1892 89.1321 56.3397 89.4954 56.6076 89.7633C56.8755 90.0312 57.2389 90.1817 57.6177 90.1817C57.9966 90.1817 58.36 90.0312 58.6279 89.7633C58.8958 89.4954 59.0463 89.1321 59.0463 88.7532V79.6684C63.9423 79.3551 68.5942 77.4187 72.2664 74.1655L78.7624 80.6613C78.8947 80.7957 79.0523 80.9026 79.2261 80.9758C79.3998 81.049 79.5864 81.0871 79.775 81.0878C79.9636 81.0886 80.1504 81.052 80.3248 80.9801C80.4991 80.9083 80.6575 80.8027 80.7909 80.6693C80.9242 80.5359 81.0298 80.3775 81.1016 80.2031C81.1734 80.0287 81.2099 79.8419 81.2091 79.6533C81.2084 79.4647 81.1702 79.2782 81.097 79.1044C81.0237 78.9306 80.9168 78.7731 80.7824 78.6409L74.2825 72.141C77.4986 68.4793 79.4115 63.8556 79.7226 58.9921H88.8074C89.1863 58.9921 89.5496 58.8416 89.8175 58.5737C90.0854 58.3058 90.2359 57.9424 90.2359 57.5635C90.2359 57.1847 90.0854 56.8213 89.8175 56.5534C89.5496 56.2855 89.1863 56.135 88.8074 56.135H79.7226C79.4085 51.2263 77.4629 46.5634 74.1952 42.887L80.6629 36.4191C80.7955 36.2864 80.9007 36.1289 80.9725 35.9556C81.0443 35.7823 81.0812 35.5965 81.0812 35.4089C81.0812 35.2213 81.0442 35.0355 80.9724 34.8622C80.9006 34.6889 80.7954 34.5314 80.6627 34.3988C80.5301 34.2661 80.3726 34.1609 80.1993 34.0891C80.0259 34.0173 79.8402 33.9804 79.6526 33.9804C79.465 33.9804 79.2792 34.0174 79.1059 34.0892C78.9326 34.161 78.7751 34.2662 78.6424 34.3989L72.1676 40.8749C68.4488 37.6188 63.7441 35.706 58.8082 35.4436V26.3738C58.8082 25.995 58.6577 25.6316 58.3898 25.3637C58.1219 25.0958 57.7585 24.9453 57.3796 24.9453C57.0008 24.9453 56.6374 25.0958 56.3695 25.3637C56.1016 25.6316 55.9511 25.995 55.9511 26.3738V35.4739C51.1146 35.8364 46.5324 37.7825 42.9131 41.0111L36.4206 34.5184C36.1527 34.2505 35.7894 34.1 35.4105 34.1C35.0316 34.1001 34.6682 34.2506 34.4003 34.5185C34.1324 34.7864 33.982 35.1498 33.982 35.5287C33.982 35.9076 34.1325 36.2709 34.4005 36.5388L40.9039 43.0415ZM57.6415 61.0189C56.4858 61.019 55.3559 60.6763 54.3949 60.0342C53.4339 59.3921 52.6849 58.4795 52.2425 57.4117C51.8002 56.3439 51.6844 55.1689 51.9099 54.0354C52.1353 52.9018 52.6919 51.8605 53.5091 51.0432C54.3264 50.226 55.3676 49.6694 56.5012 49.4439C57.6347 49.2184 58.8097 49.3341 59.8775 49.7764C60.9453 50.2187 61.858 50.9677 62.5001 51.9287C63.1422 52.8897 63.485 54.0195 63.485 55.1753C63.4833 56.7245 62.8671 58.2099 61.7716 59.3054C60.6761 60.4009 59.1908 61.0172 57.6415 61.0189ZM59.4603 64.4681C61.8334 64.4822 64.1141 65.3902 65.8476 67.0109C67.5812 68.6316 68.6403 70.8461 68.8139 73.2129C65.5554 75.5687 61.6365 76.8357 57.6157 76.8334C53.5949 76.8312 49.6774 75.5597 46.4216 73.2003C46.5958 70.8348 47.6555 68.622 49.3892 67.0034C51.123 65.3848 53.4033 64.4795 55.7752 64.4681H59.4603ZM57.6177 38.2683C61.4213 38.2658 65.1407 39.3883 68.3079 41.4945C71.4751 43.6007 73.9487 46.5965 75.4174 50.105C76.8862 53.6136 77.2845 57.4781 76.5623 61.2125C75.8401 64.9469 74.0296 68.3843 71.3586 71.0922C70.8472 68.9823 69.7855 67.0457 68.2818 65.4798C66.7782 63.9138 64.8862 62.7745 62.7988 62.1779C64.2744 61.0921 65.3695 59.5681 65.9281 57.8233C66.4867 56.0784 66.4802 54.2018 65.9096 52.4609C65.339 50.7199 64.2334 49.2035 62.7504 48.1278C61.2674 47.0522 59.4826 46.4721 57.6506 46.4703C55.8185 46.4685 54.0326 47.0452 52.5475 48.118C51.0624 49.1908 49.9538 50.705 49.3799 52.4448C48.8059 54.1847 48.7958 56.0613 49.351 57.8072C49.9062 59.5531 50.9984 61.0792 52.4719 62.1679C50.3767 62.7599 48.4766 63.8984 46.9663 65.4666C45.456 67.0347 44.3897 68.9763 43.8769 71.0922C41.2059 68.3843 39.3954 64.9469 38.6732 61.2125C37.951 57.4781 38.3493 53.6136 39.818 50.105C41.2868 46.5965 43.7604 43.6007 46.9276 41.4945C50.0948 39.3883 53.8142 38.2658 57.6177 38.2683Z" fill="#D29069"/>
<path d="M49.6786 23.0405H65.5567C65.7393 23.0404 65.92 23.0032 66.0877 22.9311C66.2555 22.8591 66.4069 22.7538 66.5328 22.6216C66.6587 22.4893 66.7564 22.3329 66.8201 22.1618C66.8837 21.9906 66.912 21.8084 66.9031 21.626V20.177C66.9031 15.6493 63.3015 11.8503 58.7738 11.8503H58.6176C61.4544 11.6122 63.6244 8.96704 63.6244 5.99878C63.6263 4.40973 62.9969 2.885 61.8746 1.76001C60.7524 0.635024 59.2292 0.00193033 57.6401 4.40693e-06C56.0511 -0.00192152 54.5264 0.627479 53.4014 1.74974C52.2764 2.87201 51.6433 4.39521 51.6414 5.98426C51.6416 8.95251 53.8115 11.6122 56.6484 11.8503H56.4615C51.9337 11.8503 48.3322 15.6493 48.3322 20.177V21.626C48.3233 21.8084 48.3515 21.9906 48.4152 22.1618C48.4788 22.3329 48.5766 22.4893 48.7025 22.6216C48.8283 22.7538 48.9798 22.8591 49.1475 22.9311C49.3153 23.0032 49.496 23.0404 49.6786 23.0405ZM54.4987 6.0564C54.4987 5.43645 54.6825 4.83043 55.0269 4.31497C55.3714 3.79951 55.8609 3.39776 56.4337 3.16053C57.0064 2.92329 57.6367 2.86124 58.2447 2.9822C58.8527 3.10316 59.4112 3.40171 59.8496 3.8401C60.2879 4.27848 60.5864 4.83701 60.7074 5.44504C60.8283 6.05308 60.7662 6.68332 60.5289 7.25606C60.2916 7.8288 59.8898 8.31832 59.3743 8.66271C58.8589 9.0071 58.2528 9.19089 57.6329 9.19084C56.8019 9.18977 56.0053 8.85918 55.4178 8.27159C54.8302 7.68399 54.4997 6.88735 54.4987 6.0564ZM51.1892 20.177C51.1892 17.2247 53.5089 14.7074 56.4615 14.7074H58.7738C61.7263 14.7074 64.046 17.2247 64.046 20.177V20.1834H51.1892V20.177Z" fill="#D29069"/>
<path d="M48.3317 112.185V113.635C48.3317 114.423 48.8894 115.182 49.6781 115.182H65.5563C66.3451 115.182 66.9027 114.423 66.9027 113.635V112.185C66.9103 111.113 66.7057 110.049 66.3007 109.056C65.8957 108.062 65.2982 107.159 64.5426 106.398C63.7871 105.636 62.8884 105.031 61.8982 104.619C60.9081 104.206 59.8461 103.993 58.7734 103.992H58.6172C60.1004 103.745 61.4364 102.949 62.3602 101.763C63.2839 100.576 63.7279 99.0861 63.6039 97.5876C63.48 96.0891 62.7972 94.692 61.691 93.6736C60.5848 92.6552 59.1362 92.0898 57.6326 92.0898C56.129 92.0898 54.6803 92.6552 53.5742 93.6736C52.468 94.692 51.7852 96.0891 51.6612 97.5876C51.5373 99.0861 51.9812 100.576 52.905 101.763C53.8288 102.949 55.1648 103.745 56.648 103.992H56.4611C55.3883 103.993 54.3263 104.206 53.3362 104.619C52.3461 105.031 51.4474 105.636 50.6918 106.398C49.9363 107.159 49.3388 108.062 48.9338 109.056C48.5287 110.049 48.3241 111.113 48.3317 112.185ZM54.4983 98.0649C54.4983 97.445 54.6821 96.839 55.0265 96.3235C55.3709 95.808 55.8605 95.4063 56.4332 95.1691C57.0059 94.9318 57.6362 94.8697 58.2442 94.9907C58.8522 95.1116 59.4107 95.4102 59.8491 95.8485C60.2874 96.2869 60.586 96.8454 60.7069 97.4534C60.8279 98.0614 60.7658 98.6917 60.5286 99.2644C60.2913 99.8371 59.8896 100.327 59.3741 100.671C58.8587 101.016 58.2526 101.199 57.6327 101.199C56.8017 101.198 56.005 100.868 55.4174 100.28C54.8298 99.6926 54.4993 98.8959 54.4983 98.0649ZM64.0456 112.185V112.325H51.1888V112.185C51.1808 111.488 51.3112 110.796 51.5725 110.149C51.8338 109.502 52.2208 108.913 52.7111 108.417C53.2014 107.921 53.7854 107.526 54.429 107.257C55.0727 106.988 55.7634 106.849 56.4611 106.849H58.7734C59.4711 106.849 60.1617 106.988 60.8054 107.257C61.4491 107.526 62.033 107.921 62.5233 108.417C63.0137 108.913 63.4007 109.502 63.662 110.149C63.9233 110.796 64.0537 111.488 64.0456 112.185Z" fill="#D29069"/>
<path d="M99.7726 52.095C99.7745 53.5165 100.277 54.8919 101.193 55.9791C102.109 57.0664 103.379 57.7959 104.779 58.0393H104.593C103.521 58.0335 102.458 58.2399 101.466 58.6467C100.475 59.0534 99.5732 59.6525 98.814 60.4093C98.0549 61.166 97.453 62.0656 97.0432 63.0561C96.6333 64.0466 96.4236 65.1084 96.4261 66.1803V67.6293C96.4223 67.8111 96.4557 67.9917 96.5242 68.1601C96.5927 68.3284 96.6949 68.4811 96.8244 68.6086C96.954 68.7361 97.1082 68.8359 97.2776 68.9017C97.4471 68.9675 97.6282 68.9981 97.8098 68.9914H113.688C113.865 68.9965 114.042 68.9644 114.207 68.897C114.372 68.8296 114.521 68.7286 114.644 68.6003C114.767 68.472 114.862 68.3194 114.923 68.1522C114.984 67.985 115.009 67.8069 114.997 67.6293V66.1803C115.008 65.1124 114.806 64.0529 114.404 63.0635C114.002 62.0741 113.407 61.1746 112.654 60.4171C111.901 59.6596 111.005 59.0593 110.018 58.6512C109.031 58.243 107.973 58.035 106.905 58.0393H106.749C107.88 57.8545 108.934 57.35 109.788 56.5854C110.642 55.8207 111.259 54.8278 111.566 53.7239C111.874 52.6199 111.86 51.451 111.525 50.355C111.19 49.259 110.548 48.2817 109.676 47.5384C108.804 46.7951 107.737 46.3168 106.602 46.16C105.466 46.0032 104.31 46.1744 103.269 46.6535C102.228 47.1325 101.345 47.8993 100.726 48.8635C100.106 49.8277 99.7757 50.9489 99.7726 52.095ZM112.14 66.1803V66.1344H99.2831V66.1803C99.2802 65.4834 99.4157 64.7929 99.6818 64.1489C99.9479 63.5048 100.339 62.92 100.833 62.4284C101.327 61.9368 101.914 61.5482 102.559 61.2853C103.205 61.0223 103.896 60.8901 104.593 60.8964H106.905C107.598 60.8916 108.285 61.0254 108.925 61.2899C109.566 61.5543 110.147 61.9441 110.635 62.4364C111.122 62.9287 111.507 63.5134 111.765 64.1564C112.024 64.7993 112.151 65.4874 112.14 66.1803ZM105.764 48.9255C106.384 48.9255 106.99 49.1094 107.506 49.4538C108.021 49.7982 108.423 50.2877 108.66 50.8605C108.897 51.4332 108.959 52.0634 108.838 52.6715C108.717 53.2795 108.419 53.838 107.981 54.2764C107.542 54.7147 106.984 55.0132 106.376 55.1342C105.768 55.2551 105.137 55.1931 104.565 54.9558C103.992 54.7186 103.502 54.3168 103.158 53.8014C102.814 53.2859 102.63 52.6799 102.63 52.06C102.631 51.229 102.961 50.4322 103.549 49.8446C104.136 49.257 104.933 48.9265 105.764 48.9255Z" fill="#D29069"/>
<path d="M1.54758 68.9904H17.4253C17.6069 68.997 17.788 68.9664 17.9575 68.9006C18.1269 68.8348 18.2812 68.7351 18.4107 68.6075C18.5403 68.48 18.6424 68.3274 18.7109 68.159C18.7794 67.9906 18.8128 67.81 18.809 67.6283V66.1793C18.8115 65.1073 18.6018 64.0455 18.1919 63.055C17.7821 62.0645 17.1802 61.165 16.4211 60.4082C15.6619 59.6514 14.7605 59.0524 13.7687 58.6456C12.777 58.2389 11.7145 58.0325 10.6426 58.0383H10.4866C11.9697 57.7912 13.3057 56.9955 14.2294 55.8092C15.1531 54.6228 15.597 53.1326 15.473 51.6342C15.349 50.1358 14.6662 48.7388 13.5601 47.7204C12.454 46.702 11.0054 46.1367 9.5019 46.1367C7.99838 46.1367 6.54981 46.702 5.44369 47.7204C4.33757 48.7388 3.65477 50.1358 3.53079 51.6342C3.40681 53.1326 3.85072 54.6228 4.77442 55.8092C5.69812 56.9955 7.03409 57.7912 8.51716 58.0383H8.33026C3.80276 58.0383 0 61.6515 0 66.1793V67.6283C0 68.4173 0.75879 68.9904 1.54758 68.9904ZM6.36746 52.0589C6.36741 51.439 6.5512 50.8329 6.89559 50.3174C7.23998 49.8019 7.7295 49.4002 8.30224 49.1629C8.87498 48.9256 9.50522 48.8635 10.1133 48.9844C10.7213 49.1053 11.2798 49.4038 11.7182 49.8422C12.1566 50.2805 12.4551 50.839 12.5761 51.4471C12.6971 52.0551 12.635 52.6853 12.3978 53.2581C12.1605 53.8309 11.7588 54.3204 11.2433 54.6648C10.7279 55.0093 10.1218 55.1931 9.5019 55.1931C8.67093 55.1922 7.87425 54.8617 7.28664 54.2741C6.69903 53.6865 6.36846 52.8899 6.36746 52.0589ZM2.85707 66.1793C2.85707 63.2269 5.37796 60.8953 8.33026 60.8953H10.6426C11.3394 60.889 12.0306 61.0212 12.6759 61.2842C13.3213 61.5472 13.908 61.9357 14.4019 62.4273C14.8959 62.9189 15.2873 63.5037 15.5533 64.1478C15.8194 64.7919 15.9549 65.4824 15.952 66.1793V66.1333H2.85707V66.1793Z" fill="#D29069"/>
<path d="M85.4741 101.351V102.8C85.4911 103.186 85.6571 103.551 85.9374 103.817C86.2176 104.084 86.5903 104.231 86.9769 104.228H102.855C103.234 104.228 103.597 104.078 103.865 103.81C104.133 103.542 104.283 103.179 104.283 102.8V101.351C104.283 96.8239 100.599 93.0383 96.0719 93.0383H95.9158C97.3989 92.7912 98.7348 91.9955 99.6586 90.8092C100.582 89.6229 101.026 88.1327 100.902 86.6342C100.778 85.1358 100.095 83.7388 98.9894 82.7204C97.8833 81.702 96.4347 81.1367 94.9311 81.1367C93.4276 81.1367 91.979 81.702 90.8729 82.7204C89.7668 83.7388 89.084 85.1358 88.96 86.6342C88.8361 88.1327 89.28 89.6229 90.2037 90.8092C91.1274 91.9955 92.4634 92.7912 93.9465 93.0383H93.7596C91.5644 93.0608 89.4659 93.9446 87.9162 95.4995C86.3664 97.0543 85.4894 99.1557 85.4741 101.351ZM91.7968 87.2303C91.7968 86.6104 91.9806 86.0044 92.3251 85.4889C92.6695 84.9735 93.159 84.5717 93.7318 84.3345C94.3045 84.0973 94.9347 84.0352 95.5428 84.1561C96.1508 84.2771 96.7093 84.5756 97.1476 85.014C97.586 85.4523 97.8845 86.0108 98.0055 86.6188C98.1264 87.2269 98.0644 87.8571 97.8271 88.4298C97.5899 89.0026 97.1881 89.4921 96.6727 89.8365C96.1572 90.181 95.5512 90.3648 94.9313 90.3648C94.1002 90.3638 93.3035 90.0333 92.7159 89.4457C92.1283 88.8581 91.7978 88.0614 91.7968 87.2303ZM101.426 101.351V101.371H88.3312V101.351C88.3456 99.9132 88.9213 98.538 89.9355 97.5188C90.9497 96.4995 92.322 95.917 93.7596 95.8954H96.0719C99.0243 95.8954 101.426 98.3986 101.426 101.351Z" fill="#D29069"/>
<path d="M10.9521 101.351V102.8C10.9521 103.179 11.1027 103.543 11.3706 103.811C11.6385 104.078 12.0018 104.229 12.3807 104.229H28.2584C28.645 104.232 29.0177 104.084 29.2979 103.818C29.5782 103.551 29.7443 103.187 29.7612 102.8V101.351C29.7459 99.1562 28.8689 97.0548 27.3191 95.4999C25.7694 93.9451 23.6709 93.0612 21.4757 93.0388H21.3197C22.8029 92.7916 24.1389 91.9959 25.0627 90.8096C25.9864 89.6232 26.4303 88.1329 26.3064 86.6344C26.1824 85.136 25.4995 83.7389 24.3934 82.7205C23.2872 81.702 21.8386 81.1367 20.335 81.1367C18.8314 81.1367 17.3828 81.702 16.2766 82.7205C15.1705 83.7389 14.4876 85.136 14.3637 86.6344C14.2397 88.1329 14.6836 89.6232 15.6074 90.8096C16.5311 91.9959 17.8671 92.7916 19.3503 93.0388H19.1634C14.6359 93.0388 10.9521 96.8244 10.9521 101.351ZM17.2006 87.2308C17.2006 86.6109 17.3844 86.0049 17.7288 85.4894C18.0732 84.9739 18.5628 84.5722 19.1355 84.335C19.7083 84.0977 20.3385 84.0356 20.9465 84.1566C21.5545 84.2775 22.113 84.5761 22.5514 85.0144C22.9898 85.4528 23.2883 86.0113 23.4092 86.6193C23.5302 87.2273 23.4681 87.8576 23.2309 88.4303C22.9936 89.003 22.5919 89.4926 22.0764 89.837C21.561 90.1814 20.9549 90.3652 20.335 90.3652C19.504 90.3643 18.7073 90.0338 18.1197 89.4461C17.532 88.8585 17.2015 88.0618 17.2006 87.2308ZM26.9041 101.351V101.372H13.8092V101.351C13.8092 98.3991 16.2111 95.8958 19.1634 95.8958H21.4757C22.9134 95.9174 24.2857 96.5 25.2998 97.5192C26.314 98.5385 26.8897 99.9136 26.9041 101.351Z" fill="#D29069"/>
<path d="M86.9769 33.9922H102.855C103.643 33.9922 104.283 33.2474 104.283 32.4586V31.0096C104.281 28.833 103.414 26.7463 101.875 25.2076C100.336 23.6688 98.2486 22.8037 96.0719 22.802H95.9158C97.3989 22.5549 98.7348 21.7592 99.6586 20.5729C100.582 19.3866 101.026 17.8963 100.902 16.3979C100.778 14.8995 100.095 13.5025 98.9894 12.4841C97.8833 11.4657 96.4347 10.9004 94.9311 10.9004C93.4276 10.9004 91.979 11.4657 90.8729 12.4841C89.7668 13.5025 89.084 14.8995 88.96 16.3979C88.8361 17.8963 89.28 19.3866 90.2037 20.5729C91.1274 21.7592 92.4634 22.5549 93.9465 22.802H93.7596C89.2319 22.802 85.4741 26.4819 85.4741 31.0096V32.4586C85.4869 32.8561 85.6484 33.2342 85.9267 33.5182C86.205 33.8022 86.5798 33.9714 86.9769 33.9922ZM91.7968 16.889C91.7968 16.2691 91.9806 15.6631 92.3251 15.1476C92.6695 14.6322 93.159 14.2304 93.7318 13.9932C94.3045 13.7559 94.9347 13.6939 95.5428 13.8148C96.1508 13.9357 96.7093 14.2343 97.1476 14.6726C97.586 15.111 97.8845 15.6695 98.0055 16.2775C98.1264 16.8855 98.0644 17.5158 97.8271 18.0885C97.5899 18.6613 97.1881 19.1508 96.6727 19.4952C96.1572 19.8396 95.5512 20.0235 94.9313 20.0235C94.1002 20.0225 93.3035 19.692 92.7159 19.1044C92.1283 18.5167 91.7978 17.72 91.7968 16.889ZM88.3312 31.0096C88.3497 29.5828 88.9301 28.2209 89.9463 27.2192C90.9625 26.2176 92.3327 25.657 93.7596 25.659H96.0719C97.4911 25.6598 98.852 26.2236 99.8558 27.2268C100.86 28.23 101.424 29.5905 101.426 31.0096V31.1351H88.3312V31.0096Z" fill="#D29069"/>
<path d="M12.3807 33.9921H28.2584C28.6555 33.9713 29.0303 33.8022 29.3086 33.5182C29.5869 33.2342 29.7484 32.856 29.7612 32.4586V31.0096C29.7612 26.4818 26.0034 22.8019 21.4757 22.8019H21.3197C22.8028 22.5548 24.1388 21.7592 25.0625 20.5728C25.9862 19.3865 26.4301 17.8963 26.3061 16.3979C26.1821 14.8995 25.4993 13.5024 24.3932 12.4841C23.2871 11.4657 21.8385 10.9004 20.335 10.9004C18.8315 10.9004 17.3829 11.4657 16.2768 12.4841C15.1707 13.5024 14.4879 14.8995 14.3639 16.3979C14.2399 17.8963 14.6838 19.3865 15.6075 20.5728C16.5312 21.7592 17.8672 22.5548 19.3503 22.8019H19.1634C16.9868 22.8036 14.8997 23.6688 13.3603 25.2076C11.8209 26.7463 10.9548 28.833 10.9521 31.0096V32.4586C10.9521 33.2474 11.5919 33.9921 12.3807 33.9921ZM17.2006 16.889C17.2006 16.2691 17.3844 15.6631 17.7288 15.1476C18.0732 14.6321 18.5628 14.2304 19.1355 13.9931C19.7083 13.7559 20.3385 13.6938 20.9465 13.8148C21.5545 13.9357 22.113 14.2343 22.5514 14.6726C22.9898 15.111 23.2883 15.6695 23.4092 16.2775C23.5302 16.8855 23.4681 17.5158 23.2309 18.0885C22.9936 18.6612 22.5919 19.1508 22.0764 19.4952C21.561 19.8396 20.9549 20.0234 20.335 20.0234C19.504 20.0225 18.7073 19.692 18.1197 19.1043C17.532 18.5167 17.2015 17.72 17.2006 16.889ZM13.8092 31.0096C13.8109 29.5904 14.3757 28.2299 15.3795 27.2268C16.3833 26.2236 17.7442 25.6598 19.1634 25.659H21.4757C22.9026 25.6569 24.2728 26.2175 25.289 27.2192C26.3052 28.2209 26.8856 29.5828 26.9041 31.0096V31.1351H13.8092V31.0096Z" fill="#D29069"/>
</svg>
