<svg width="247" height="162" viewBox="0 0 247 162" fill="none" xmlns="http://www.w3.org/2000/svg">
<g clip-path="url(#clip0_980_2388)">
<path d="M124.693 81.3948C122.695 81.3734 120.731 80.8799 118.959 79.9543L118.278 80.984H117.115L116.886 74.0001H118.066C119.076 77.244 121.122 80.2744 125.001 80.2744C127.999 80.2744 129.497 78.6258 129.497 76.4757C129.497 74.8751 128.195 73.3812 126.239 72.645C124.284 71.9087 123.338 71.7006 121.547 70.9644C119.038 69.9346 117.503 68.3394 117.503 65.6558C117.503 62.5026 120.633 60.1124 124.348 60.1124C126.155 60.129 127.928 60.6161 129.492 61.5263L130.146 60.5553H131.325L131.453 67.3364H130.241C129.295 64.2099 127.967 61.2328 124.151 61.2328C122.131 61.2328 120.266 62.6787 120.266 64.386C120.266 66.0933 121.441 67.267 123.194 68.0353C124.762 68.7129 126.197 69.1024 127.627 69.6839C130.284 70.7189 132.41 71.9941 132.41 75.1739C132.383 78.8499 129.093 81.3948 124.693 81.3948ZM47.5749 75.4566C47.5749 71.6846 44.0833 70.4202 41.6439 70.0947V69.9773C44.1417 69.3851 46.4588 68.0033 46.4588 65.0209C46.4588 61.6917 43.2702 60.5713 40.5598 60.5713H30.8981V61.601C31.536 61.6586 32.1604 61.8189 32.7475 62.0758C33.0187 62.2063 33.243 62.418 33.3896 62.6817C33.5361 62.9453 33.5977 63.2481 33.566 63.5483V78.231C33.5963 78.5233 33.5334 78.8177 33.3863 79.0718C33.2392 79.326 33.0156 79.5266 32.7475 79.6448C32.1029 79.8197 31.4423 79.9287 30.7759 79.9703V81H40.7033C43.9345 81 47.5749 79.2607 47.5749 75.4566ZM43.0257 65.3196C43.0257 67.8219 41.6705 69.6199 38.4446 69.6199H36.6218V61.777C37.3286 61.777 38.4446 61.7183 38.9442 61.7183C40.7617 61.7183 43.0257 62.3372 43.0257 65.3196ZM44.0514 74.9231C44.0514 77.34 43.1426 79.8476 39.6457 79.8476C37.8866 79.8476 36.6218 79.2287 36.6218 78.0176V70.831C37.1532 70.831 38.4128 70.7723 39.38 70.7723C42.4092 70.7723 44.0514 72.5116 44.0514 74.9285V74.9231ZM68.4979 74.9818H67.4722C67.1746 75.8675 66.0639 78.2257 65.1817 79.138C64.4748 79.8743 62.8433 79.8156 61.3181 79.8156C58.3526 79.8156 57.853 79.5541 57.853 77.1479V71.007H59.745C61.5094 71.007 61.8708 71.4765 62.2428 71.8927C62.7166 72.6819 63.0072 73.5682 63.0931 74.4856H64.156V66.4827H63.0931C62.984 67.3399 62.6942 68.1638 62.2428 68.8996C61.892 69.3424 61.5094 69.8119 59.745 69.8119H57.853V61.7023H60.6591C61.4826 61.693 62.306 61.7322 63.125 61.8197C64.3579 61.9691 65.8247 64.1832 66.1808 65.4797H67.2437V60.5873H51.8902V61.617C52.6036 61.6911 53.3041 61.8597 53.9735 62.1185C54.2482 62.2375 54.477 62.4427 54.6256 62.7035C54.7741 62.9642 54.8343 63.2663 54.7972 63.5643V78.247C54.828 78.5435 54.7651 78.8423 54.6172 79.1009C54.4693 79.3595 54.2441 79.5647 53.9735 79.6875C53.2876 79.8397 52.5911 79.9396 51.8902 79.9863V81.016H68.1152L68.4979 74.9818ZM92.3598 80.9947V79.965C91.7152 79.9475 91.0786 79.8175 90.4785 79.5808C89.6243 79.1127 88.8951 78.4447 88.3527 77.6334C86.2641 74.8324 85.6211 73.8614 83.389 70.943C86.2057 70.0894 88.3527 68.6755 88.3527 65.4264C88.3527 61.9211 85.2969 60.5659 81.9488 60.5659H72.5369V61.5956C73.1816 61.6586 73.8199 61.7764 74.4448 61.9478C74.7242 62.0773 74.9549 62.2932 75.1031 62.564C75.2514 62.8348 75.3094 63.1461 75.2685 63.4523V78.2256C75.3022 78.5268 75.2409 78.831 75.0931 79.0952C74.9452 79.3594 74.7185 79.5704 74.4448 79.6982C73.8166 79.8366 73.1788 79.9258 72.5369 79.965V80.9947H81.141V79.965C80.469 79.928 79.801 79.8388 79.1427 79.6982C78.8653 79.5751 78.6352 79.3651 78.4867 79.0996C78.3381 78.8341 78.2793 78.5275 78.319 78.2256V71.7433H80.3757C82.7029 74.7095 84.869 77.7995 86.8646 81L92.3598 80.9947ZM84.8133 65.7518C84.8133 68.7022 82.8416 70.5002 80.2003 70.5002H78.319V61.7503H80.7583C82.9904 61.7503 84.8133 62.9294 84.8133 65.7571V65.7518ZM114.043 80.9947V79.965C113.407 79.9448 112.78 79.8148 112.188 79.5808C111.302 79.0923 110.523 78.4301 109.898 77.6334C107.463 74.571 106.055 72.741 103.265 69.5558C105.461 67.4025 107.547 65.1392 109.515 62.7747C110.456 61.7077 112.571 61.5956 112.863 61.5956V60.5873H105.253V61.617C105.752 61.649 107.378 61.7343 107.378 62.3266C107.378 63.7404 103.913 67.5124 100.385 70.4628H100.108V63.399C100.108 62.7534 100.257 62.1932 100.932 61.9531C101.542 61.7665 102.172 61.6484 102.808 61.601V60.5873H94.3846V61.617C95.0229 61.6979 95.647 61.8667 96.2394 62.1185C96.5089 62.2437 96.7327 62.4504 96.8795 62.7097C97.0262 62.9689 97.0886 63.2678 97.0578 63.5643V78.3057C97.091 78.6026 97.0297 78.9024 96.8827 79.1622C96.7357 79.4219 96.5104 79.6283 96.2394 79.7515C95.6283 79.879 95.0081 79.9575 94.3846 79.9863V81.016H102.813V79.9863C102.175 79.9325 101.546 79.8036 100.937 79.6021C100.668 79.4688 100.445 79.2568 100.298 78.994C100.151 78.7311 100.087 78.4298 100.114 78.1296V71.007H100.464C103.39 74.0947 106.035 77.4391 108.367 81L114.043 80.9947ZM157.09 80.9947V79.965C156.459 79.921 155.837 79.7918 155.24 79.5808C154.974 79.4446 154.753 79.232 154.606 78.9699C154.46 78.7078 154.394 78.408 154.417 78.1083V63.399C154.373 63.1002 154.431 62.7954 154.58 62.5333C154.729 62.2711 154.962 62.0669 155.24 61.9531C155.842 61.767 156.462 61.6489 157.09 61.601V60.5873H148.704V61.617C149.351 61.6972 149.984 61.8659 150.585 62.1185C150.856 62.2429 151.08 62.4492 151.228 62.7086C151.376 62.9679 151.439 63.2672 151.409 63.5643V69.7586H141.843V63.399C141.843 62.7534 141.992 62.1932 142.635 61.9531C143.237 61.7694 143.857 61.6514 144.484 61.601V60.5873H136.077V61.617C136.723 61.6972 137.356 61.8659 137.958 62.1185C138.231 62.2413 138.46 62.4464 138.612 62.7054C138.765 62.9644 138.833 63.2646 138.808 63.5643V78.3057C138.842 78.6066 138.777 78.9103 138.623 79.1711C138.47 79.4318 138.236 79.6355 137.958 79.7515C137.338 79.881 136.709 79.9595 136.077 79.9863V81.016H144.505V79.9863C143.874 79.9423 143.252 79.8131 142.656 79.6021C142.392 79.4641 142.176 79.2501 142.035 78.9876C141.894 78.7252 141.834 78.4264 141.864 78.1296V71.007H151.43V78.2897C151.47 78.588 151.411 78.8913 151.262 79.1526C151.113 79.4139 150.883 79.6187 150.606 79.7355C149.987 79.865 149.357 79.9435 148.725 79.9703V81L157.09 80.9947ZM170.307 80.9947V79.965C169.587 79.9085 168.875 79.7798 168.181 79.5808C167.896 79.4681 167.655 79.2672 167.491 79.0072C167.328 78.7472 167.251 78.4416 167.272 78.135V63.3723C167.228 63.0655 167.296 62.7529 167.462 62.4921C167.629 62.2314 167.885 62.0399 168.181 61.9531C168.877 61.7669 169.589 61.6489 170.307 61.601V60.5873H161.187V61.617C161.913 61.7013 162.626 61.8696 163.313 62.1185C163.606 62.2098 163.858 62.4012 164.025 62.6595C164.192 62.9178 164.263 63.2266 164.227 63.5323V78.3324C164.262 78.6385 164.189 78.9471 164.023 79.2058C163.856 79.4645 163.605 79.6574 163.313 79.7515C162.611 79.8793 161.9 79.9577 161.187 79.9863V81.016L170.307 80.9947ZM194.222 80.9947V79.965C193.577 79.9481 192.941 79.8181 192.341 79.5808C191.487 79.1125 190.757 78.4445 190.215 77.6334C188.132 74.8324 187.483 73.8614 185.256 70.943C188.073 70.0894 190.215 68.6755 190.215 65.4264C190.215 61.9211 187.159 60.5659 183.838 60.5659H174.41V61.5956C175.056 61.6586 175.696 61.7764 176.323 61.9478C176.601 62.0788 176.83 62.2952 176.977 62.5657C177.124 62.8363 177.182 63.1468 177.141 63.4523V78.2256C177.175 78.5261 177.114 78.8295 176.967 79.0935C176.82 79.3575 176.595 79.5689 176.323 79.6982C175.693 79.8369 175.053 79.9261 174.41 79.965V80.9947H183.014V79.965C182.344 79.928 181.677 79.8388 181.021 79.6982C180.743 79.5758 180.512 79.3659 180.364 79.1003C180.215 78.8346 180.157 78.5276 180.197 78.2256V71.7433H182.254C184.579 74.7108 186.745 77.8007 188.743 81L194.222 80.9947ZM186.67 65.7518C186.67 68.7022 184.704 70.5002 182.063 70.5002H180.197V61.7503H182.636C184.863 61.7503 186.686 62.9294 186.686 65.7571L186.67 65.7518ZM212.482 74.9925H211.457C211.159 75.8781 210.043 78.2363 209.166 79.1486C208.459 79.8849 206.828 79.8262 205.303 79.8262C202.337 79.8262 201.838 79.5648 201.838 77.1586V71.007H203.74C205.505 71.007 205.866 71.4765 206.238 71.8927C206.712 72.6819 207.002 73.5682 207.088 74.4856H208.151V66.4827H207.088C206.979 67.3399 206.689 68.1638 206.238 68.8996C205.887 69.3424 205.505 69.8119 203.74 69.8119H201.848V61.7023H204.654C205.478 61.6932 206.301 61.7324 207.12 61.8197C208.353 61.9691 209.82 64.1832 210.171 65.4797H211.234V60.5873H195.875V61.617C196.588 61.6911 197.289 61.8597 197.958 62.1185C198.233 62.2375 198.462 62.4427 198.61 62.7035C198.759 62.9642 198.819 63.2663 198.782 63.5643V78.247C198.813 78.5435 198.75 78.8423 198.602 79.1009C198.454 79.3595 198.229 79.5647 197.958 79.6875C197.272 79.8397 196.576 79.9396 195.875 79.9863V81.016H212.1L212.482 74.9925ZM60.3349 107.538V106.524C59.7167 106.483 59.107 106.357 58.5227 106.15C58.2604 106.017 58.0435 105.808 57.8997 105.551C57.7559 105.293 57.6915 104.999 57.7149 104.705V90.2994C57.672 90.0069 57.7284 89.7084 57.8749 89.452C58.0214 89.1956 58.2496 88.9961 58.5227 88.8855C59.1115 88.6996 59.7195 88.5815 60.3349 88.5334V87.525H52.0762V88.5334C52.7096 88.6158 53.3295 88.7808 53.9203 89.0242C54.1843 89.1479 54.4034 89.351 54.5472 89.6053C54.691 89.8596 54.7524 90.1525 54.7228 90.4434V96.5096H45.3694V90.262C45.3694 89.6271 45.5129 89.0776 46.1506 88.8482C46.7399 88.6642 47.3477 88.5461 47.9628 88.496V87.4877H39.6988V88.496C40.3323 88.5777 40.9524 88.7428 41.543 88.9869C41.8109 89.1081 42.0349 89.3096 42.1843 89.5637C42.3337 89.8177 42.4011 90.112 42.3773 90.4061V104.87C42.4108 105.165 42.3474 105.462 42.1968 105.718C42.0462 105.973 41.8166 106.172 41.543 106.284C40.936 106.414 40.319 106.491 39.6988 106.513V107.538H47.9628V106.524C47.3445 106.484 46.7346 106.358 46.1506 106.15C45.8914 106.015 45.6784 105.805 45.5392 105.548C45.3999 105.29 45.3408 104.996 45.3694 104.705V97.7687H54.7228V104.87C54.7623 105.161 54.7051 105.458 54.56 105.713C54.415 105.969 54.1902 106.169 53.9203 106.284C53.3134 106.414 52.6964 106.491 52.0762 106.513V107.538H60.3349ZM82.3261 107.538V106.524C81.7264 106.484 81.14 106.328 80.5989 106.065C80.0364 105.69 79.611 105.141 79.3872 104.502L72.7388 87.1996H71.6175C69.4332 92.8016 67.1002 98.9852 65.0594 104.043C64.7981 104.836 64.2799 105.517 63.5873 105.98C63.0296 106.289 62.4109 106.471 61.7751 106.513V107.538H69.2844V106.524C68.3597 106.471 66.404 106.209 66.404 105.286C66.4351 104.74 66.5424 104.201 66.7229 103.686C66.978 102.757 67.3818 101.658 67.7857 100.591H74.7796L76.4483 105.099C76.5183 105.295 76.5577 105.5 76.5652 105.708C76.5652 106.241 74.9231 106.46 74.0037 106.513V107.538H82.3261ZM74.296 99.3586H68.3066L71.272 91.5905L74.296 99.3586ZM98.9604 92.9563V87.4877H81.5768V92.919H82.5706C82.8894 91.6492 84.3881 88.8748 85.6264 88.7041C86.3997 88.6241 87.1767 88.5849 87.9541 88.5867H88.7619V104.737C88.796 105.043 88.7265 105.352 88.5646 105.615C88.4027 105.877 88.1578 106.077 87.8691 106.182C87.1123 106.352 86.3425 106.458 85.5679 106.497V107.538H94.9798V106.524C94.1905 106.453 93.4094 106.308 92.6468 106.092C92.3646 105.969 92.1273 105.761 91.9675 105.498C91.8076 105.234 91.733 104.927 91.754 104.619V88.6134H92.5883C93.357 88.6071 94.1254 88.6463 94.8895 88.7308C96.1277 88.9015 97.653 91.6759 97.9719 92.9456L98.9604 92.9563ZM122.174 107.538V106.524C121.554 106.483 120.942 106.358 120.356 106.15C120.096 106.016 119.88 105.807 119.737 105.549C119.595 105.292 119.531 104.998 119.554 104.705V90.2994C119.505 90.0041 119.557 89.7008 119.703 89.4398C119.849 89.1788 120.08 88.9756 120.356 88.8642C120.947 88.6777 121.557 88.5596 122.174 88.512V87.5037H113.926V88.512C114.559 88.5937 115.179 88.7588 115.77 89.0029C116.034 89.1264 116.254 89.3292 116.399 89.5834C116.544 89.8376 116.606 90.1307 116.578 90.4221V96.4883H107.224V90.262C107.224 89.6271 107.368 89.0776 108 88.8482C108.59 88.6642 109.197 88.5461 109.812 88.496V87.4877H101.538V88.496C102.17 88.5784 102.788 88.7434 103.377 88.9869C103.645 89.1079 103.87 89.3092 104.02 89.5632C104.17 89.8171 104.239 90.1115 104.216 90.4061V104.87C104.249 105.165 104.184 105.463 104.033 105.718C103.881 105.973 103.651 106.172 103.377 106.284C102.772 106.414 102.156 106.491 101.538 106.513V107.538H109.797V106.524C109.178 106.484 108.568 106.358 107.984 106.15C107.726 106.015 107.513 105.805 107.375 105.547C107.237 105.289 107.179 104.996 107.208 104.705V97.7687H116.583V104.87C116.622 105.162 116.564 105.459 116.418 105.714C116.272 105.97 116.046 106.17 115.775 106.284C115.168 106.414 114.551 106.491 113.931 106.513V107.538H122.174ZM144.16 107.538V106.524C143.56 106.483 142.974 106.327 142.433 106.065C141.87 105.691 141.446 105.142 141.226 104.502L134.578 87.2262H133.456C131.267 92.8283 128.934 99.0118 126.893 104.07C126.632 104.862 126.114 105.544 125.421 106.006C124.863 106.316 124.245 106.498 123.609 106.54V107.538H131.123V106.524C130.199 106.471 128.243 106.209 128.243 105.286C128.274 104.74 128.381 104.201 128.562 103.686C128.817 102.757 129.221 101.658 129.625 100.591H136.619L138.287 105.099C138.357 105.295 138.397 105.5 138.404 105.708C138.404 106.241 136.762 106.46 135.843 106.513V107.538H144.16ZM136.13 99.3586H130.146L133.106 91.5905L136.13 99.3586ZM170.854 88.5227V87.5143H163.632V88.5227C164.838 88.6134 166.395 88.8428 166.395 89.7658C166.324 90.6608 166.146 91.5439 165.864 92.3961C165.232 94.8557 164.27 98.2916 162.93 102.971L157.93 87.7971H156.553L151.568 102.65C149.697 96.1201 148.348 91.4091 147.976 89.9952C147.922 89.7471 147.882 89.4959 147.859 89.243C147.859 88.6614 149.527 88.5761 150.447 88.5174V87.509H142.305V88.5174C142.891 88.5555 143.46 88.7231 143.974 89.0082C144.495 89.3284 144.875 89.8358 145.037 90.4274L149.926 107.794H151.127L156.362 92.3908L161.4 107.794H162.691C164.567 101.695 166.725 94.6423 167.846 90.8916C167.935 90.5142 168.097 90.1584 168.324 89.8451C168.552 89.5317 168.839 89.2672 169.17 89.0669C169.681 88.7522 170.257 88.5571 170.854 88.496V88.5227ZM189.056 107.538V106.524C188.457 106.483 187.87 106.327 187.329 106.065C186.768 105.69 186.344 105.141 186.123 104.502L179.474 87.2262H178.353C176.163 92.8283 173.836 99.0118 171.79 104.07C171.53 104.862 171.013 105.543 170.323 106.006C169.765 106.316 169.146 106.498 168.511 106.54V107.538H176.02V106.524C175.101 106.471 173.14 106.209 173.14 105.286C173.171 104.74 173.278 104.201 173.458 103.686C173.719 102.757 174.123 101.658 174.521 100.591H181.51L183.184 105.099C183.249 105.296 183.287 105.501 183.295 105.708C183.295 106.241 181.659 106.46 180.734 106.513V107.538H189.056ZM181.026 99.3586H175.042L178.008 91.5905L181.026 99.3586ZM206.11 88.5227V87.5143H199.175V88.5227C200.355 88.6134 201.832 88.6988 201.832 89.5631C201.832 90.0593 199.818 93.4632 197.288 97.566C194.753 92.9456 192.909 89.6218 192.909 89.2163C192.909 88.5814 194.61 88.6081 195.529 88.5494V87.541H187.026V88.5494C187.599 88.5836 188.157 88.7419 188.663 89.0136C189.376 89.4972 189.943 90.1668 190.305 90.9503C191.517 93.0844 192.606 95.1118 193.962 97.742C194.367 98.4176 194.676 99.1467 194.881 99.9082V104.758C194.923 105.069 194.862 105.385 194.706 105.658C194.55 105.93 194.309 106.143 194.02 106.262C193.271 106.423 192.51 106.519 191.745 106.551V107.538H201.083V106.524C200.314 106.456 199.554 106.311 198.814 106.092C198.521 105.971 198.274 105.76 198.108 105.49C197.942 105.22 197.865 104.904 197.889 104.587V100.778C197.889 99.4173 198.032 99.0118 198.755 97.742C200.079 95.2705 201.53 92.8699 203.102 90.5501C203.457 89.9233 203.973 89.4037 204.596 89.0456C205.069 88.7836 205.58 88.5982 206.11 88.496V88.5227ZM117.922 127.054C116.71 127.037 115.519 126.726 114.452 126.147L114.043 126.793H113.394L113.262 122.434H113.926C114.574 124.605 115.621 126.275 118.114 126.275C119.958 126.275 120.835 125.379 120.835 124.034C120.835 122.967 120.138 122.103 118.852 121.591C117.736 121.143 117.12 120.998 116.052 120.524C114.553 119.878 113.634 118.88 113.634 117.21C113.634 115.242 115.504 113.753 117.726 113.753C118.823 113.764 119.898 114.068 120.84 114.633L121.233 114.025H121.898L121.977 118.256H121.292C120.723 116.277 120.043 114.521 117.614 114.521C116.323 114.521 115.26 115.348 115.26 116.415C115.26 117.696 115.844 118.224 117.04 118.784C117.97 119.211 118.831 119.441 119.697 119.809C121.292 120.454 122.546 121.164 122.546 123.149C122.519 125.448 120.553 127.054 117.922 127.054ZM70.5014 126.798V126.158C70.8963 126.14 71.2891 126.09 71.6759 126.008C71.8523 125.939 72.0005 125.813 72.0969 125.65C72.1932 125.486 72.2321 125.295 72.2074 125.107V120.561H66.2286V124.995C66.2103 125.18 66.2475 125.367 66.3356 125.532C66.4236 125.696 66.5584 125.83 66.7229 125.918C67.0946 126.05 67.4826 126.131 67.8761 126.158V126.798H62.6679V126.158C63.0611 126.14 63.4521 126.09 63.8371 126.008C64.0113 125.936 64.1574 125.81 64.2533 125.647C64.3492 125.484 64.3896 125.294 64.3686 125.107V115.903C64.3838 115.716 64.3408 115.529 64.2456 115.368C64.1504 115.206 64.0077 115.078 63.8371 115.002C63.4638 114.844 63.0702 114.74 62.6679 114.692V114.047H67.8761V114.692C67.4846 114.72 67.0976 114.794 66.7229 114.911C66.319 115.06 66.2286 115.407 66.2286 115.813V119.771H72.1861V115.903C72.2029 115.716 72.1607 115.528 72.0653 115.366C71.9699 115.205 71.8263 115.077 71.6547 115.002C71.2793 114.845 70.884 114.74 70.4802 114.692V114.047H75.6937V114.692C75.3002 114.719 74.9113 114.792 74.5351 114.911C74.3582 114.979 74.2094 115.105 74.1129 115.269C74.0164 115.433 73.9779 115.624 74.0037 115.813V124.995C73.9901 125.184 74.0335 125.373 74.1282 125.538C74.223 125.703 74.3647 125.835 74.5351 125.918C74.9089 126.049 75.2985 126.13 75.6937 126.158V126.798H70.5014ZM80.9497 127.075C78.6963 127.075 76.6981 125.272 76.6981 122.402C76.6981 119.622 78.4412 117.691 81.0613 117.691C83.6813 117.691 85.3128 119.659 85.3128 122.274C85.3128 124.888 83.777 127.075 80.9762 127.075H80.9497ZM81.0613 118.374C79.1162 118.374 78.5688 120.47 78.5688 122.252C78.5688 124.482 79.3022 126.398 81.0613 126.398C82.73 126.398 83.4793 124.52 83.4793 122.29C83.4793 120.342 82.8788 118.374 81.0613 118.374V118.374ZM97.5786 126.798V126.211C97.8453 126.197 98.1103 126.159 98.3705 126.099C98.5334 126.044 98.6719 125.933 98.7622 125.786C98.8524 125.638 98.8887 125.464 98.8647 125.293V120.71C98.8647 119.457 98.2216 118.758 97.3766 118.758C96.9202 118.759 96.4723 118.882 96.079 119.114C95.6857 119.347 95.3613 119.68 95.1393 120.081V125.197C95.1219 125.369 95.1587 125.542 95.2446 125.691C95.3304 125.84 95.4609 125.959 95.6176 126.03C95.8761 126.131 96.1485 126.192 96.4254 126.211V126.798H92.211V126.211C92.4637 126.197 92.7145 126.159 92.9603 126.099C93.1233 126.044 93.2618 125.933 93.3521 125.786C93.4423 125.638 93.4786 125.464 93.4546 125.293V120.71C93.4546 119.457 92.8115 118.758 91.9718 118.758C91.5132 118.76 91.0636 118.886 90.67 119.123C90.2764 119.359 89.9533 119.697 89.7345 120.102V125.181C89.7195 125.354 89.7592 125.527 89.848 125.675C89.9368 125.824 90.07 125.94 90.2287 126.008C90.4958 126.127 90.7821 126.195 91.0737 126.211V126.798H86.7796V126.211C87.0517 126.198 87.322 126.16 87.5874 126.099C87.7514 126.044 87.8911 125.934 87.9824 125.787C88.0736 125.64 88.1106 125.465 88.087 125.293V119.809C88.0834 119.627 88.0362 119.448 87.9492 119.288C87.8622 119.129 87.7381 118.992 87.5874 118.891C87.298 118.737 86.9789 118.648 86.6521 118.63V118.043L89.6069 117.861L89.7345 117.989V119.238H89.7876C90.505 118.539 91.1641 117.712 92.7424 117.712C93.2516 117.708 93.7501 117.858 94.1723 118.144C94.5945 118.43 94.9205 118.837 95.1074 119.313C95.8567 118.592 96.5742 117.712 98.1526 117.712C99.8585 117.712 100.571 118.966 100.571 120.71V125.219C100.553 125.39 100.59 125.563 100.676 125.712C100.762 125.862 100.892 125.98 101.049 126.051C101.326 126.152 101.616 126.213 101.91 126.232V126.819L97.5786 126.798ZM107.378 127.038C104.498 127.038 103.159 124.904 103.159 122.29C103.159 119.937 104.679 117.691 107.192 117.691C109.812 117.691 110.785 119.478 110.785 121.5V122.092H104.939C104.939 124.354 105.805 126.046 107.894 126.046C109.175 126.046 109.743 125.421 110.386 124.333L111.008 124.722C110.68 125.411 110.166 125.994 109.524 126.403C108.882 126.813 108.139 127.033 107.378 127.038V127.038ZM107.171 118.374C105.965 118.374 105.008 119.441 104.934 121.335H109.026C109.026 119.862 108.675 118.374 107.171 118.374V118.374ZM128.626 127.038C125.751 127.038 124.411 124.904 124.411 122.29C124.411 119.937 125.937 117.691 128.445 117.691C131.065 117.691 132.038 119.478 132.038 121.5V122.092H126.192C126.192 124.354 127.053 126.046 129.141 126.046C130.427 126.046 130.991 125.421 131.634 124.333L132.261 124.722C131.932 125.412 131.417 125.995 130.775 126.405C130.132 126.814 129.387 127.034 128.626 127.038ZM128.429 118.374C127.217 118.374 126.261 119.441 126.192 121.335H130.278C130.278 119.862 129.928 118.374 128.429 118.374V118.374ZM139.159 120.246C139.036 120.26 138.911 120.247 138.793 120.209C138.675 120.172 138.566 120.11 138.473 120.027C138.38 119.945 138.305 119.844 138.253 119.731C138.201 119.618 138.173 119.496 138.17 119.371C138.168 119.144 138.211 118.919 138.298 118.71C137.892 118.768 137.504 118.918 137.164 119.149C136.824 119.38 136.541 119.686 136.337 120.043V125.197C136.32 125.367 136.359 125.538 136.447 125.685C136.535 125.831 136.668 125.944 136.826 126.008C137.215 126.122 137.617 126.19 138.022 126.211V126.798H133.366V126.211C133.636 126.197 133.905 126.16 134.169 126.099C134.333 126.044 134.472 125.934 134.564 125.787C134.655 125.64 134.692 125.465 134.668 125.293V119.809C134.662 119.617 134.615 119.428 134.528 119.257C134.442 119.085 134.319 118.935 134.169 118.816C133.889 118.678 133.582 118.602 133.271 118.592V118.005L136.204 117.824L136.337 117.952V119.184H136.369C136.648 118.771 137.015 118.425 137.443 118.171C137.871 117.916 138.35 117.76 138.845 117.712C139.022 117.705 139.198 117.736 139.362 117.803C139.526 117.87 139.673 117.971 139.795 118.1C139.917 118.229 140.01 118.382 140.068 118.55C140.126 118.717 140.147 118.896 140.131 119.072C140.146 119.214 140.132 119.357 140.091 119.493C140.05 119.629 139.982 119.756 139.891 119.865C139.801 119.974 139.689 120.064 139.564 120.13C139.438 120.195 139.3 120.235 139.159 120.246V120.246ZM148.411 119.547C147.662 121.313 146.982 122.807 146.158 124.813C145.863 125.482 145.613 126.17 145.409 126.873H144.691C143.336 123.485 142.948 122.567 141.651 119.478C141.412 118.944 141.147 118.582 140.663 118.539V117.947H144.34V118.571C143.921 118.571 143.278 118.683 143.278 118.96C143.278 118.998 143.357 119.179 143.405 119.366L145.531 124.573C145.972 123.543 146.721 121.756 147.402 120.081C147.533 119.803 147.619 119.506 147.657 119.2C147.657 118.774 146.721 118.555 146.429 118.518V117.947H149.559V118.48C149.293 118.544 149.047 118.676 148.846 118.863C148.645 119.05 148.495 119.285 148.411 119.547V119.547ZM150.431 126.798V126.211C150.703 126.197 150.973 126.16 151.239 126.099C151.402 126.044 151.54 125.933 151.63 125.786C151.721 125.638 151.757 125.464 151.733 125.293V119.809C151.729 119.624 151.683 119.443 151.597 119.28C151.511 119.117 151.388 118.977 151.239 118.87C150.906 118.708 150.545 118.614 150.176 118.592V118.005L153.295 117.824L153.423 117.952V125.165C153.405 125.338 153.444 125.512 153.533 125.661C153.622 125.81 153.757 125.926 153.917 125.992C154.175 126.101 154.447 126.169 154.725 126.195V126.782L150.431 126.798ZM152.413 115.957C152.144 115.938 151.893 115.817 151.709 115.619C151.526 115.421 151.424 115.16 151.425 114.89C151.425 114.619 151.532 114.36 151.722 114.169C151.912 113.978 152.171 113.871 152.44 113.871C152.709 113.871 152.967 113.978 153.157 114.169C153.348 114.36 153.455 114.619 153.455 114.89C153.465 115.03 153.445 115.172 153.396 115.304C153.348 115.437 153.272 115.558 153.173 115.659C153.075 115.759 152.956 115.838 152.825 115.89C152.694 115.941 152.554 115.964 152.413 115.957V115.957ZM159.97 127.038C157.255 127.038 155.884 125.016 155.884 122.327C155.884 119.915 157.515 117.691 160.082 117.691C162.022 117.691 163.016 118.758 163.016 120.011C163.016 120.62 162.76 121.153 162.096 121.153C161.432 121.153 160.98 120.726 160.98 120.284C161.024 119.795 161.104 119.309 161.219 118.832C161.079 118.661 160.898 118.528 160.692 118.448C160.486 118.367 160.263 118.342 160.045 118.374C158.945 118.374 157.733 119.366 157.733 122.252C157.733 124.424 158.764 126.046 160.39 126.046C161.565 126.046 162.261 125.459 162.92 124.354L163.504 124.738C163.165 125.397 162.661 125.955 162.041 126.358C161.421 126.762 160.708 126.996 159.97 127.038V127.038ZM168.936 127.038C166.055 127.038 164.721 124.904 164.721 122.29C164.721 119.937 166.241 117.691 168.755 117.691C171.375 117.691 172.348 119.478 172.348 121.5V122.092H166.502C166.502 124.354 167.363 126.046 169.457 126.046C170.737 126.046 171.306 125.421 171.949 124.333L172.571 124.722C172.243 125.412 171.728 125.995 171.085 126.405C170.442 126.814 169.697 127.034 168.936 127.038V127.038ZM168.734 118.374C167.522 118.374 166.571 119.441 166.496 121.335H170.589C170.589 119.862 170.259 118.374 168.734 118.374V118.374ZM177.412 127.038C176.566 127.029 175.744 126.753 175.063 126.248L174.877 126.819H174.218L174.128 123.746H174.734C174.952 124.701 175.903 126.339 177.54 126.339C178.693 126.339 179.336 125.806 179.336 124.829C179.336 123.853 178.528 123.431 177.062 122.994C175.834 122.626 174.346 121.959 174.346 120.284C174.346 118.832 175.504 117.691 177.322 117.691C177.996 117.687 178.661 117.844 179.262 118.149L179.464 117.669H180.107L180.25 120.524H179.628C179.411 119.457 178.656 118.39 177.301 118.39C176.328 118.39 175.706 118.96 175.706 119.654C175.706 120.721 176.44 120.982 177.944 121.479C179.575 122.012 180.697 122.658 180.697 124.258C180.713 125.971 179.241 127.038 177.412 127.038V127.038ZM121.898 0C117.219 1.8958e-06 112.645 1.39253 108.755 4.00156C104.865 6.61058 101.832 10.319 100.041 14.658C98.2492 18.9969 97.7795 23.7717 98.6907 28.3787C99.6019 32.9856 101.853 37.218 105.16 40.5407C108.467 43.8634 112.681 46.1273 117.269 47.0462C121.857 47.9651 126.613 47.4978 130.937 45.7033C135.261 43.9088 138.957 40.8676 141.56 36.9644C144.162 33.0611 145.553 28.4708 145.558 23.7739C145.556 17.4728 143.064 11.4299 138.627 6.97232C134.191 2.51477 128.174 0.00706862 121.898 0V0ZM121.898 46.3101C117.451 46.3101 113.105 44.9861 109.408 42.5057C105.712 40.0253 102.831 36.4999 101.131 32.3755C99.4307 28.2511 98.9872 23.7131 99.8565 19.3356C100.726 14.9582 102.869 10.9379 106.015 7.7835C109.161 4.62909 113.168 2.4823 117.529 1.61472C121.891 0.747142 126.41 1.19777 130.517 2.90959C134.623 4.62141 138.131 7.51749 140.598 11.2314C143.064 14.9454 144.378 19.3103 144.372 23.7739C144.36 29.7516 141.987 35.4804 137.774 39.7048C133.561 43.9292 127.852 46.3045 121.898 46.3101V46.3101ZM139.712 29.488C139.843 29.488 139.971 29.4489 140.081 29.3756C140.19 29.3023 140.275 29.1982 140.325 29.0763C140.376 28.9545 140.389 28.8204 140.363 28.691C140.338 28.5616 140.274 28.4428 140.181 28.3495C140.088 28.2563 139.97 28.1927 139.841 28.167C139.712 28.1413 139.579 28.1545 139.457 28.205C139.336 28.2554 139.232 28.3409 139.159 28.4506C139.086 28.5603 139.047 28.6892 139.047 28.8211C139.047 28.998 139.117 29.1676 139.242 29.2927C139.366 29.4177 139.535 29.488 139.712 29.488ZM104.105 29.488C104.236 29.488 104.365 29.4489 104.474 29.3756C104.583 29.3023 104.668 29.1982 104.718 29.0763C104.769 28.9545 104.782 28.8204 104.756 28.691C104.731 28.5616 104.667 28.4428 104.574 28.3495C104.482 28.2563 104.363 28.1927 104.234 28.167C104.105 28.1413 103.972 28.1545 103.851 28.205C103.729 28.2554 103.625 28.3409 103.552 28.4506C103.479 28.5603 103.44 28.6892 103.44 28.8211C103.44 28.9952 103.508 29.1625 103.629 29.2871C103.751 29.4117 103.915 29.4838 104.089 29.488H104.105ZM104.689 24.3021L102.213 24.2434L102.245 22.9363C102.236 22.8463 102.247 22.7555 102.276 22.6699C102.305 22.5843 102.352 22.5058 102.413 22.4394C102.474 22.373 102.548 22.3202 102.631 22.2845C102.714 22.2488 102.803 22.2309 102.893 22.232C103.024 22.2236 103.154 22.2641 103.257 22.3459C103.36 22.4277 103.429 22.5449 103.451 22.6749C103.482 22.5371 103.562 22.4152 103.675 22.3311C103.788 22.2469 103.927 22.2061 104.068 22.216C104.161 22.2144 104.254 22.2331 104.34 22.271C104.426 22.3089 104.503 22.365 104.565 22.4355C104.627 22.506 104.673 22.5892 104.7 22.6793C104.727 22.7695 104.734 22.8644 104.721 22.9576L104.689 24.3021ZM102.973 22.7762C102.936 22.7753 102.899 22.7823 102.865 22.7967C102.831 22.8111 102.8 22.8327 102.775 22.86C102.75 22.8872 102.731 22.9196 102.719 22.9548C102.707 22.99 102.703 23.0274 102.707 23.0643V23.7259H103.239V23.0643C103.243 23.026 103.238 22.9872 103.225 22.9507C103.213 22.9143 103.192 22.8811 103.165 22.8536C103.138 22.826 103.106 22.8048 103.07 22.7914C103.034 22.7781 102.995 22.7729 102.957 22.7762H102.973ZM103.983 22.7762C103.942 22.7745 103.902 22.7815 103.865 22.7967C103.828 22.8118 103.794 22.8349 103.766 22.8642C103.739 22.8935 103.717 22.9285 103.704 22.9667C103.691 23.0049 103.686 23.0455 103.69 23.0857V23.7739H104.254V23.091C104.243 22.8776 104.142 22.7602 103.967 22.7549L103.983 22.7762ZM104.891 20.9569L102.468 20.4234L102.835 18.7001L103.286 18.7961L103.037 20.0393L103.568 20.146L103.818 18.9722L104.269 19.0682L104.02 20.2473L104.551 20.3647L104.806 19.1589L105.263 19.2603L104.891 20.9569ZM106.188 16.6887L105.189 16.8007L105.04 17.1582L105.848 17.4997L105.646 17.9852L103.361 17.0248L103.807 15.9578C103.842 15.8539 103.898 15.7584 103.972 15.6776C104.046 15.5968 104.136 15.5325 104.236 15.4888C104.336 15.445 104.444 15.4229 104.553 15.4237C104.663 15.4245 104.771 15.4483 104.87 15.4936C105.027 15.5501 105.159 15.66 105.244 15.8043C105.328 15.9486 105.36 16.1181 105.332 16.2832L106.422 16.1285L106.188 16.6887ZM104.652 15.9898C104.609 15.9722 104.563 15.9639 104.517 15.9653C104.471 15.9667 104.426 15.9778 104.384 15.9979C104.343 16.0181 104.306 16.0467 104.276 16.0821C104.246 16.1174 104.224 16.1587 104.211 16.2032L103.993 16.7367L104.61 16.9928L104.822 16.4593C104.846 16.4176 104.861 16.3712 104.866 16.3233C104.87 16.2754 104.865 16.227 104.849 16.1815C104.833 16.1359 104.808 16.0943 104.775 16.0594C104.742 16.0245 104.702 15.9971 104.657 15.9791L104.652 15.9898ZM107.841 13.7917L106.592 13.8717L106.682 14.1598L107.315 14.5813L107.028 15.0241L104.96 13.6369L105.253 13.1941L106.172 13.8077L105.736 12.4578L106.092 11.9243L106.518 13.3915L108.197 13.2368L107.841 13.7917ZM108.526 12.3031L108.425 11.8069C108.573 11.8068 108.719 11.7771 108.855 11.7193C108.991 11.6616 109.114 11.5771 109.217 11.4708C109.419 11.2574 109.419 11.0653 109.318 10.9693C109.005 10.6652 108.255 11.9083 107.564 11.2627C107.49 11.178 107.433 11.0787 107.397 10.9711C107.362 10.8635 107.349 10.7497 107.359 10.6369C107.369 10.524 107.401 10.4143 107.455 10.3146C107.509 10.2149 107.582 10.1272 107.671 10.057C107.905 9.78796 108.235 9.62297 108.59 9.59814L108.67 10.0837C108.405 10.1027 108.156 10.2207 107.974 10.4144C107.82 10.5798 107.804 10.7346 107.91 10.8413C108.192 11.108 108.973 9.89692 109.653 10.5425C109.983 10.8573 109.998 11.3321 109.541 11.8123C109.412 11.9557 109.256 12.072 109.082 12.1545C108.908 12.2369 108.719 12.2838 108.526 12.2924V12.3031ZM112.502 9.27803L111.901 8.41905L110.95 9.09663L111.545 9.95027L111.115 10.2544L109.674 8.21097L110.11 7.90686L110.642 8.70182L111.598 8.02957L111.083 7.23462L111.513 6.93051L112.937 8.96325L112.502 9.27803ZM114.17 8.30167L113.107 6.06086L113.58 5.83144L114.643 8.07226L114.17 8.30167ZM117.247 7.10124L116.525 6.39698L116.153 6.51436L116.413 7.35733L115.913 7.51205L115.18 5.13786L116.285 4.7964C116.388 4.75589 116.498 4.73777 116.608 4.74323C116.718 4.7487 116.826 4.77763 116.924 4.82811C117.022 4.87858 117.108 4.94944 117.177 5.03597C117.245 5.12249 117.295 5.2227 117.322 5.32993C117.379 5.4869 117.38 5.65898 117.325 5.81668C117.27 5.97437 117.161 6.10785 117.019 6.19424L117.832 6.93584L117.247 7.10124ZM116.801 5.46865C116.787 5.42444 116.764 5.38366 116.733 5.34886C116.703 5.31406 116.665 5.286 116.623 5.26646C116.581 5.24691 116.536 5.23629 116.489 5.23528C116.443 5.23427 116.397 5.24288 116.355 5.26057L115.823 5.42596L116.02 6.0662L116.551 5.9008C116.596 5.89093 116.638 5.87196 116.675 5.84505C116.712 5.81815 116.744 5.78388 116.767 5.74438C116.79 5.70488 116.806 5.66097 116.811 5.61538C116.817 5.56979 116.814 5.52348 116.801 5.47932V5.46865ZM119.065 6.70109L118.778 4.23086L120.521 4.02279L120.574 4.48696L119.357 4.63101L119.416 5.16454L120.606 5.02582L120.659 5.48999L119.469 5.6287L119.533 6.19424L120.755 6.05019L120.808 6.50902L119.065 6.70109ZM125.602 6.87182L125.793 5.84211L124.64 5.6287L124.454 6.66375L123.922 6.56771L124.369 4.11882L124.9 4.21486L124.725 5.17521L125.873 5.38862L126.048 4.42827L126.58 4.5243L126.149 6.95718L125.602 6.87182ZM129.008 8.0029V7.55473L128.025 7.15459L127.722 7.48538L127.191 7.25596L129.003 5.31392L129.614 5.55935L129.572 8.22698L129.008 8.0029ZM129.104 5.92748L128.344 6.77579L129.061 7.06389L129.104 5.92748ZM130.762 8.9419L131.825 7.22395L131.208 6.83981L131.453 6.445L133.132 7.51205L132.888 7.90686L132.277 7.52806L131.214 9.24068L130.762 8.9419ZM133.993 11.4441L134.7 10.6705L133.839 9.87558L133.132 10.6492L132.744 10.2917L134.424 8.46173L134.806 8.81919L134.153 9.53412L135.014 10.3344L135.673 9.61415L136.066 9.97161L134.387 11.8069L133.993 11.4441ZM136.278 14.2185L136.523 13.845L135.901 12.9807L135.471 13.0981L135.12 12.6126L137.687 11.9297L138.075 12.4632L136.624 14.704L136.278 14.2185ZM137.453 12.5112L136.39 12.8206L136.842 13.4502L137.453 12.5112ZM137.878 17.2756L139.265 16.2085L137.533 16.4966L137.304 15.9631L139.297 14.3145L139.531 14.848L138.064 15.9684L139.892 15.6857L140.057 16.0645L138.601 17.2116L140.418 16.8914L140.652 17.425L138.096 17.7664L137.878 17.2756ZM138.941 21.069L139.324 20.8342L139.116 19.7672L138.675 19.6925L138.558 19.1056L141.173 19.5644L141.301 20.2153L139.047 21.6398L138.941 21.069ZM140.716 20.0019L139.6 19.8312L139.749 20.5888L140.716 20.0019ZM139.122 23.1657H140.137L141.561 22.1734V22.7762L140.583 23.4111L141.588 24.0087V24.6062L140.105 23.6832H139.09L139.122 23.1657ZM105.71 35.1007L106.581 34.5245L105.954 33.5428L105.083 34.1137L104.796 33.6709L106.868 32.3104L107.155 32.7532L106.342 33.2867L106.985 34.2684L107.798 33.7349L108.091 34.183L106.013 35.5435L105.71 35.1007ZM107.889 35.949C108.069 35.7654 108.3 35.6399 108.552 35.5884C108.804 35.5369 109.066 35.5617 109.304 35.6598C109.542 35.7579 109.745 35.9247 109.888 36.1391C110.031 36.3536 110.108 36.6059 110.108 36.864C110.108 37.1221 110.031 37.3745 109.888 37.5889C109.745 37.8033 109.542 37.9701 109.304 38.0682C109.066 38.1663 108.804 38.1911 108.552 38.1396C108.3 38.0882 108.069 37.9626 107.889 37.779C107.763 37.6622 107.663 37.5206 107.595 37.3631C107.526 37.2057 107.491 37.0358 107.491 36.864C107.491 36.6922 107.526 36.5223 107.595 36.3649C107.663 36.2074 107.763 36.0659 107.889 35.949V35.949ZM109.334 37.4055C109.415 37.3381 109.48 37.2546 109.527 37.1603C109.574 37.066 109.6 36.963 109.605 36.8579C109.609 36.7528 109.592 36.6478 109.554 36.5497C109.516 36.4515 109.459 36.3624 109.384 36.288C109.31 36.2136 109.222 36.1555 109.124 36.1174C109.026 36.0793 108.922 36.0621 108.817 36.0669C108.712 36.0716 108.609 36.0982 108.516 36.145C108.422 36.1918 108.338 36.2577 108.271 36.3385C108.191 36.4059 108.125 36.4894 108.079 36.5837C108.032 36.678 108.005 36.781 108.001 36.8861C107.996 36.9913 108.013 37.0963 108.051 37.1944C108.089 37.2925 108.147 37.3816 108.221 37.456C108.295 37.5305 108.384 37.5886 108.482 37.6266C108.579 37.6647 108.684 37.6819 108.789 37.6772C108.893 37.6724 108.996 37.6458 109.09 37.599C109.184 37.5523 109.267 37.4864 109.334 37.4055V37.4055ZM111.928 40.8788L112.895 39.3689L111.338 40.5L111.146 40.3719L111.524 38.4833L110.557 39.9931L110.115 39.705L111.455 37.6136L112.076 38.0138L111.747 39.6517L113.091 38.67L113.713 39.0755L112.374 41.1669L111.928 40.8788ZM113.958 41.9458L114.856 39.6303L116.493 40.2652L116.323 40.7027L115.18 40.2546L114.994 40.7401L116.11 41.1776L115.94 41.6151L114.824 41.1776L114.617 41.7111L115.759 42.1593L115.595 42.5914L113.958 41.9458ZM117.104 42.6714L117.471 42.3247C117.548 42.4504 117.651 42.5585 117.773 42.642C117.895 42.7256 118.033 42.7829 118.177 42.8102C118.464 42.8689 118.624 42.7675 118.656 42.6234C118.735 42.1966 117.279 42.2179 117.46 41.3003C117.494 41.1943 117.548 41.0962 117.62 41.0117C117.692 40.9272 117.78 40.858 117.879 40.8083C117.978 40.7585 118.086 40.7292 118.197 40.7221C118.307 40.715 118.418 40.7302 118.523 40.7668C118.873 40.8224 119.188 41.014 119.4 41.3003L119.038 41.6311C118.878 41.4188 118.645 41.2742 118.385 41.2256C118.161 41.1776 118.023 41.2523 117.991 41.3963C117.917 41.7805 119.363 41.7965 119.187 42.7088C119.097 43.157 118.709 43.4291 118.061 43.301C117.867 43.2624 117.682 43.1843 117.52 43.0714C117.357 42.9585 117.219 42.8133 117.115 42.6448L117.104 42.6714ZM120.617 43.5678L120.696 41.0762L122.45 41.1349V41.6044L121.228 41.5617V42.0952L122.424 42.1326V42.5968L121.228 42.5594V43.1249L122.45 43.1676V43.6318L120.617 43.5678ZM125.474 43.2797L124.858 42.4474L124.475 42.5061L124.613 43.381L124.082 43.4611L123.694 41.0068L124.836 40.8201C124.943 40.7945 125.053 40.7917 125.16 40.8118C125.268 40.832 125.37 40.8747 125.46 40.9372C125.549 40.9996 125.625 41.0804 125.682 41.1743C125.738 41.2681 125.774 41.3728 125.788 41.4817C125.823 41.6462 125.8 41.8179 125.722 41.967C125.644 42.1161 125.517 42.2332 125.363 42.298L126.069 43.1463L125.474 43.2797ZM125.262 41.5991C125.254 41.5529 125.237 41.5089 125.212 41.4698C125.187 41.4307 125.153 41.3975 125.114 41.3723C125.075 41.3471 125.031 41.3305 124.985 41.3236C124.939 41.3167 124.892 41.3197 124.847 41.3323L124.316 41.4177L124.417 42.0846L124.948 41.9939C124.998 41.9923 125.048 41.9794 125.092 41.956C125.137 41.9327 125.176 41.8995 125.206 41.859C125.236 41.8185 125.257 41.7717 125.266 41.7221C125.276 41.6724 125.274 41.6213 125.262 41.5724V41.5991ZM128.216 42.5647L126.484 40.5427L127.047 40.3399L128.333 41.9085V39.8758L128.897 39.6784L128.828 42.346L128.216 42.5647ZM130.975 41.3856L129.8 39.1929L130.268 38.9421L131.437 41.1349L130.975 41.3856ZM132.038 39.3796C131.932 39.2419 131.855 39.0839 131.813 38.9154C131.771 38.7468 131.763 38.5714 131.791 38.3998C131.819 38.2282 131.882 38.0643 131.975 37.918C132.069 37.7718 132.191 37.6464 132.335 37.5496C132.5 37.4174 132.699 37.3351 132.909 37.3125C133.119 37.2898 133.331 37.3276 133.52 37.4215L133.292 37.8697C133.183 37.819 133.063 37.7977 132.944 37.808C132.824 37.8183 132.71 37.8598 132.611 37.9284C132.438 38.0579 132.323 38.2512 132.292 38.4658C132.26 38.6804 132.315 38.8988 132.444 39.0728C132.573 39.2469 132.766 39.3623 132.979 39.3939C133.193 39.4254 133.411 39.3703 133.584 39.2409C133.68 39.167 133.753 39.0684 133.797 38.9556C133.841 38.8428 133.854 38.7201 133.834 38.6006L134.328 38.5046C134.363 38.7145 134.339 38.9302 134.257 39.1267C134.175 39.3231 134.039 39.4922 133.866 39.6143C133.73 39.7303 133.571 39.8162 133.4 39.8662C133.229 39.9162 133.049 39.9293 132.872 39.9046C132.695 39.8799 132.526 39.818 132.375 39.7229C132.224 39.6279 132.094 39.5018 131.995 39.3529L132.038 39.3796ZM135.758 37.9177L133.951 36.2158L135.146 34.93L135.487 35.2501L134.652 36.1197L135.035 36.4772L135.853 35.5969L136.193 35.917L135.375 36.7973L135.784 37.1815L136.624 36.2851L136.959 36.5999L135.758 37.9177ZM137.57 35.2928L137.384 34.8233C137.529 34.7979 137.667 34.7426 137.79 34.6609C137.912 34.5792 138.017 34.4728 138.096 34.3484C138.255 34.103 138.224 33.9163 138.096 33.8149C137.735 33.5748 137.209 34.9406 136.427 34.4285C136.338 34.359 136.264 34.272 136.209 34.1726C136.154 34.0733 136.121 33.9638 136.11 33.8509C136.099 33.738 136.111 33.624 136.145 33.516C136.18 33.4079 136.236 33.3081 136.31 33.2227C136.494 32.9187 136.787 32.6972 137.129 32.6038L137.294 33.068C137.039 33.1372 136.819 33.2988 136.677 33.5215C136.555 33.7082 136.565 33.8683 136.677 33.9483C137.007 34.167 137.565 32.8225 138.335 33.3347C138.718 33.5802 138.824 34.0443 138.463 34.6045C138.264 34.9351 137.943 35.1731 137.57 35.2661V35.2928ZM117.455 23.059H113.352V13.2155H117.348C119.017 13.2155 120.138 14.2398 120.138 15.7657C120.153 16.2364 120.025 16.7004 119.769 17.0953C119.513 17.4902 119.143 17.7971 118.709 17.9745C119.181 18.1677 119.585 18.4978 119.869 18.9227C120.153 19.3475 120.304 19.8477 120.303 20.3594C120.303 21.9973 119.198 23.059 117.455 23.059ZM114.723 21.8106H117.221C118.284 21.8106 118.911 21.2237 118.911 20.21C118.919 19.9892 118.881 19.769 118.798 19.5644C118.714 19.3598 118.589 19.1755 118.428 19.0238C118.268 18.8722 118.078 18.7567 117.869 18.6852C117.661 18.6138 117.44 18.5879 117.221 18.6094H114.723V21.8106ZM114.723 17.4036H117.152C117.356 17.4311 117.563 17.4134 117.76 17.3516C117.956 17.2899 118.137 17.1857 118.289 17.0463C118.441 16.9069 118.561 16.7358 118.64 16.545C118.719 16.3541 118.755 16.1482 118.746 15.9418C118.754 15.7345 118.718 15.528 118.639 15.3363C118.56 15.1446 118.441 14.9723 118.289 14.8314C118.138 14.6904 117.958 14.5841 117.761 14.5197C117.565 14.4554 117.357 14.4345 117.152 14.4586H114.723V17.4036ZM130.576 23.059H129.21V18.6201H124.124V23.059H122.753V13.2155H124.124V17.3716H129.21V13.2101H130.576V23.059ZM121.175 34.7966H119.809V30.3363H114.723V34.7699H113.352V24.9317H114.723V29.1092H119.809V24.9477H121.175V34.7966ZM126.941 34.9727C126.236 34.9937 125.536 34.8622 124.886 34.5869C124.237 34.3116 123.655 33.8991 123.178 33.3774L123.131 33.3241L123.965 32.257L124.029 32.337C124.394 32.7648 124.848 33.1082 125.357 33.3439C125.867 33.5796 126.422 33.7021 126.983 33.7029C128.578 33.7029 129.168 32.8759 129.168 32.1023C129.168 31.0352 128.036 30.7151 126.723 30.3577C125.193 29.9468 123.46 29.4773 123.46 27.546C123.46 25.9454 124.895 24.7663 126.867 24.7663C127.509 24.7435 128.15 24.855 128.747 25.0938C129.344 25.3326 129.886 25.6934 130.337 26.1535L130.39 26.2122L129.556 27.2312L129.492 27.1565C129.144 26.7844 128.72 26.4911 128.25 26.2961C127.78 26.1011 127.274 26.0088 126.766 26.0254C125.655 26.0254 124.874 26.623 124.874 27.4766C124.874 28.3303 125.937 28.645 127.127 28.9758C128.721 29.4133 130.576 29.9148 130.576 32.0116C130.576 33.4361 129.625 34.946 126.941 34.946V34.9727Z" fill="white"/>
<path d="M11.7449 147.228H10.953C10.7575 146.588 10.4438 145.99 10.0283 145.467C9.72637 144.964 9.24604 144.594 8.68377 144.432C8.46588 144.432 8.20547 144.384 7.90786 144.373C7.61025 144.363 7.27012 144.373 6.88748 144.373H4.37906V150.311H6.10093C6.51269 150.327 6.92414 150.273 7.31795 150.151C7.6007 150.049 7.85427 149.878 8.05667 149.655C8.23256 149.445 8.3645 149.202 8.44461 148.94C8.56334 148.606 8.64011 148.258 8.67315 147.905H9.46499V153.721H8.69971C8.669 153.358 8.59586 152.999 8.48182 152.654C8.39932 152.351 8.26439 152.066 8.08323 151.811C7.87997 151.553 7.60104 151.366 7.28606 151.277C6.90875 151.174 6.51858 151.125 6.12752 151.133H4.40564V156.223C4.40107 156.435 4.4466 156.645 4.5385 156.836C4.64916 157.032 4.82098 157.186 5.02742 157.274C5.25016 157.353 5.47963 157.412 5.71299 157.45C5.97723 157.508 6.24552 157.545 6.51548 157.562V158.304H-0.00537109V157.562C0.207207 157.562 0.488871 157.525 0.839625 157.498C1.07274 157.489 1.30352 157.448 1.52519 157.375C1.72066 157.299 1.884 157.158 1.98755 156.975C2.08839 156.777 2.13776 156.557 2.13105 156.335V145.664C2.13332 145.456 2.09355 145.249 2.01413 145.056C1.91337 144.854 1.73797 144.699 1.52519 144.624C1.28027 144.514 1.02344 144.434 0.759912 144.384C0.507692 144.325 0.252109 144.283 -0.00537109 144.256V143.52H11.7449V147.228Z" fill="white"/>
<path d="M22.9479 153.075C22.9497 153.801 22.833 154.522 22.6025 155.209C22.3949 155.863 22.0568 156.468 21.6087 156.986C21.149 157.525 20.5703 157.949 19.9186 158.224C19.2342 158.505 18.5004 158.644 17.761 158.634C17.1135 158.638 16.472 158.511 15.8744 158.261C15.2761 158.018 14.7336 157.655 14.28 157.194C13.8074 156.705 13.437 156.127 13.1906 155.492C12.91 154.773 12.771 154.007 12.7813 153.235C12.7231 151.786 13.2346 150.372 14.2056 149.298C15.177 148.33 16.4856 147.781 17.8538 147.766C19.222 147.751 20.5421 148.272 21.5342 149.218C22.0137 149.734 22.3857 150.341 22.6285 151.003C22.8712 151.666 22.9798 152.37 22.9479 153.075V153.075ZM20.7637 153.075C20.7595 152.522 20.7079 151.971 20.6095 151.427C20.526 150.914 20.3647 150.417 20.1312 149.954C19.9232 149.54 19.6187 149.184 19.2437 148.914C18.8479 148.644 18.3771 148.508 17.8992 148.524C17.4075 148.51 16.9234 148.648 16.5121 148.919C16.1173 149.192 15.796 149.558 15.5767 149.986C15.3386 150.44 15.177 150.93 15.0984 151.437C15.0075 151.966 14.9613 152.501 14.9603 153.038C14.9578 153.657 15.0129 154.275 15.125 154.884C15.2227 155.415 15.4019 155.928 15.6565 156.404C15.8681 156.828 16.178 157.193 16.5599 157.471C16.9576 157.736 17.4279 157.868 17.9045 157.85C18.3346 157.851 18.7568 157.735 19.1257 157.513C19.4947 157.291 19.7964 156.972 19.9984 156.591C20.5683 155.517 20.833 154.306 20.7637 153.091V153.075Z" fill="white"/>
<path d="M34.4749 158.313H29.6919V157.625C30.0107 157.593 30.2818 157.555 30.505 157.523C30.7282 157.491 30.8345 157.395 30.8345 157.251C30.8223 157.147 30.7879 157.047 30.7335 156.958C30.6591 156.824 30.59 156.707 30.5209 156.595C30.3456 156.323 30.1011 155.96 29.7982 155.528C29.4952 155.096 29.1126 154.525 28.6715 153.895C28.3048 154.344 27.9647 154.786 27.6564 155.213C27.3482 155.64 27.0187 156.093 26.6839 156.574C26.6264 156.657 26.5749 156.744 26.5298 156.835C26.4845 156.911 26.4572 156.997 26.4501 157.086C26.4501 157.235 26.551 157.363 26.753 157.465C27.0392 157.587 27.3454 157.656 27.6564 157.667V158.334H23.8035V157.689C24.2131 157.58 24.6038 157.409 24.962 157.182C25.2617 156.974 25.5317 156.727 25.7645 156.446L26.6786 155.299C27.0718 154.808 27.5785 154.144 28.1985 153.308C27.8371 152.807 27.4013 152.188 26.8858 151.457C26.3703 150.726 25.9399 150.118 25.5997 149.632C25.4298 149.384 25.2175 149.167 24.9726 148.992C24.6713 148.813 24.3234 148.727 23.9735 148.747V148.059H28.5014V148.747C28.2794 148.748 28.0575 148.762 27.8371 148.79C27.6192 148.816 27.5129 148.88 27.5129 148.976C27.5157 149.05 27.5377 149.122 27.5767 149.184C27.6227 149.271 27.6742 149.355 27.7308 149.435L28.4536 150.529C28.7831 151.02 29.1339 151.543 29.5165 152.092C29.7663 151.761 30.0479 151.372 30.3828 150.924C30.7176 150.475 31.0099 150.059 31.2862 149.654C31.3128 149.606 31.3394 149.547 31.3712 149.472C31.3975 149.404 31.4119 149.332 31.4138 149.259C31.4138 149.11 31.2915 148.998 31.0471 148.907C30.8206 148.827 30.5877 148.766 30.3509 148.726V148.059H34.2092V148.704C33.7648 148.804 33.3383 148.971 32.9443 149.2C32.6554 149.38 32.3955 149.603 32.1737 149.862C31.9399 150.15 31.6423 150.497 31.3447 150.929L30.0001 152.679C30.6414 153.565 31.1622 154.294 31.5626 154.866C31.9629 155.439 32.3668 156.026 32.7743 156.627C32.9541 156.908 33.1849 157.152 33.4545 157.347C33.7623 157.546 34.1197 157.653 34.4855 157.657L34.4749 158.313Z" fill="white"/>
<path d="M55.1589 149.687C54.7332 149.723 54.3126 149.805 53.9047 149.932C53.5262 150.031 53.1868 150.243 52.9321 150.541C52.7482 150.766 52.5962 151.015 52.4804 151.282C52.3316 151.609 52.1544 151.994 51.9489 152.435C51.7417 152.883 51.5238 153.32 51.3112 153.752C51.0736 154.21 50.7905 154.643 50.4662 155.044C50.7479 155.374 51.0933 155.737 51.4972 156.111C51.8206 156.43 52.1769 156.715 52.5601 156.959C52.9371 157.151 53.3398 157.288 53.7558 157.364C54.1731 157.463 54.5981 157.526 55.026 157.551V158.293H50.6788L49.0844 156.521C48.8506 156.772 48.5849 157.028 48.2873 157.295C47.9984 157.561 47.6811 157.793 47.3413 157.989C46.9928 158.191 46.6241 158.355 46.2412 158.48C45.8186 158.604 45.3796 158.664 44.9392 158.656C44.4139 158.655 43.8914 158.58 43.3873 158.432C42.879 158.287 42.4028 158.046 41.9843 157.722C41.5663 157.39 41.2269 156.969 40.9905 156.489C40.7247 155.93 40.5954 155.316 40.6132 154.697C40.604 153.866 40.8448 153.051 41.3041 152.36C42.0013 151.448 42.8788 150.69 43.8816 150.135C43.3996 149.519 42.9559 148.874 42.553 148.204C42.2327 147.652 42.0691 147.023 42.08 146.384C42.0741 145.929 42.1723 145.478 42.367 145.067C42.5627 144.658 42.8415 144.294 43.1854 144C43.5354 143.715 43.9356 143.5 44.3652 143.365C44.8234 143.215 45.3022 143.137 45.7842 143.135C46.291 143.127 46.7946 143.217 47.2669 143.402C47.6586 143.555 48.0123 143.791 48.3032 144.096C48.5504 144.361 48.742 144.673 48.8665 145.013C48.9957 145.345 49.0624 145.698 49.0632 146.054C49.0757 146.838 48.7972 147.598 48.282 148.188C47.6656 148.851 46.9322 149.393 46.119 149.788C46.778 150.67 47.4246 151.474 48.0588 152.2C48.6929 152.926 49.3006 153.637 49.8816 154.334C50.3088 153.668 50.6752 152.964 50.9764 152.232C51.2129 151.683 51.3445 151.095 51.3643 150.498C51.3643 150.274 51.1996 150.098 50.8754 149.964C50.4326 149.805 49.9776 149.682 49.5149 149.596V148.855H55.1642L55.1589 149.687ZM48.5211 155.94C47.8657 155.118 47.1287 154.22 46.3103 153.246C45.4919 152.271 44.8346 151.441 44.3386 150.754C43.817 151.089 43.3992 151.564 43.1323 152.125C42.8898 152.693 42.7702 153.306 42.7815 153.923C42.7507 154.78 43.0408 155.618 43.5946 156.271C43.8683 156.58 44.2074 156.825 44.587 156.986C44.9667 157.148 45.3775 157.222 45.7895 157.204C46.3101 157.201 46.8243 157.089 47.2988 156.874C47.7791 156.673 48.2 156.351 48.5211 155.94V155.94ZM47.6974 146.299C47.7353 145.716 47.5678 145.138 47.2244 144.667C47.0572 144.475 46.8486 144.325 46.6147 144.227C46.3807 144.129 46.1276 144.086 45.8745 144.101C45.5887 144.089 45.3054 144.158 45.0561 144.298C44.8404 144.429 44.6511 144.599 44.4981 144.8C44.3594 144.987 44.2567 145.199 44.1951 145.424C44.1364 145.616 44.1042 145.815 44.0995 146.016C44.1082 146.525 44.2375 147.024 44.4768 147.473C44.8197 148.097 45.2144 148.692 45.6566 149.25C46.2701 148.939 46.8045 148.492 47.2191 147.942C47.5425 147.457 47.7095 146.883 47.6974 146.299V146.299Z" fill="white"/>
<path d="M76.002 158.314H71.9683C71.0755 156.93 70.2695 155.735 69.5502 154.728C68.8275 153.72 68.0463 152.685 67.2013 151.612H65.6707V156.302C65.6659 156.521 65.7038 156.738 65.7823 156.942C65.8318 157.044 65.9018 157.133 65.9878 157.206C66.0738 157.279 66.174 157.332 66.2819 157.364C66.498 157.433 66.7206 157.479 66.9462 157.503C67.2597 157.54 67.5307 157.567 67.7486 157.572V158.314H61.4138V157.572C61.5839 157.572 61.8283 157.535 62.1472 157.503C62.3758 157.488 62.6013 157.442 62.8168 157.364C63.0119 157.29 63.1754 157.151 63.2792 156.969C63.3827 156.763 63.4321 156.533 63.4227 156.302V145.632C63.4255 145.412 63.3895 145.193 63.3164 144.986C63.2686 144.883 63.1993 144.792 63.1131 144.718C63.0268 144.644 62.9258 144.59 62.8168 144.559C62.5937 144.482 62.3643 144.425 62.1313 144.389C61.894 144.342 61.6546 144.308 61.4138 144.287V143.551H68.3226C68.9231 143.547 69.5221 143.612 70.1083 143.743C70.6433 143.86 71.1551 144.065 71.6229 144.351C72.0792 144.635 72.4524 145.036 72.7044 145.512C72.9565 145.988 73.0784 146.523 73.0578 147.062C73.0662 147.577 72.976 148.09 72.7921 148.571C72.6199 149.004 72.3529 149.393 72.0108 149.708C71.6706 150.021 71.2854 150.282 70.8682 150.481C70.396 150.703 69.9052 150.881 69.4014 151.015C70.1384 151.982 70.7531 152.795 71.2456 153.453C71.738 154.111 72.3386 154.913 73.0472 155.859C73.2854 156.201 73.5657 156.511 73.8815 156.782C74.114 156.967 74.3631 157.13 74.6255 157.268C74.8435 157.368 75.0742 157.438 75.3111 157.476C75.5393 157.519 75.7701 157.545 76.002 157.556V158.314ZM70.4484 147.296C70.4695 146.906 70.4111 146.515 70.2768 146.148C70.1425 145.781 69.935 145.446 69.6672 145.162C69.3712 144.889 69.0233 144.679 68.6443 144.544C68.2652 144.409 67.863 144.353 67.4617 144.378H65.6707V150.711H67.0524C67.9495 150.74 68.8211 150.409 69.4758 149.793C69.8039 149.469 70.0601 149.079 70.2277 148.649C70.3953 148.219 70.4705 147.758 70.4484 147.296Z" fill="white"/>
<path d="M86.4557 153.075C86.4575 153.801 86.3408 154.522 86.1103 155.209C85.9028 155.863 85.5646 156.468 85.1165 156.986C84.6558 157.524 84.0773 157.947 83.4265 158.224C82.7421 158.505 82.0082 158.644 81.2688 158.634C80.6214 158.638 79.9798 158.511 79.3822 158.261C78.7839 158.018 78.2414 157.655 77.7878 157.194C77.3152 156.705 76.9448 156.127 76.6984 155.492C76.4178 154.773 76.2788 154.007 76.2891 153.235C76.2309 151.786 76.7425 150.372 77.7134 149.298C78.6848 148.33 79.9934 147.781 81.3616 147.766C82.7298 147.751 84.0499 148.272 85.0421 149.218C85.5215 149.734 85.8935 150.341 86.1363 151.003C86.379 151.666 86.4876 152.37 86.4557 153.075V153.075ZM84.2715 153.075C84.2681 152.522 84.2147 151.97 84.112 151.427C84.0326 150.914 83.873 150.417 83.639 149.954C83.431 149.54 83.1265 149.184 82.7515 148.914C82.3557 148.644 81.8849 148.508 81.407 148.524C80.9153 148.51 80.4312 148.648 80.0199 148.919C79.6251 149.192 79.3038 149.558 79.0846 149.986C78.8464 150.44 78.6848 150.93 78.6063 151.437C78.4045 152.568 78.4045 153.726 78.6063 154.857C78.7039 155.388 78.8832 155.901 79.1377 156.378C79.3494 156.801 79.6592 157.167 80.0412 157.445C80.4385 157.71 80.909 157.842 81.3857 157.823C81.8158 157.825 82.238 157.708 82.607 157.486C82.9759 157.264 83.2776 156.946 83.4796 156.564C84.054 155.501 84.3278 154.3 84.2715 153.091V153.075Z" fill="white"/>
<path d="M97.8126 158.126C97.4831 158.243 97.1909 158.339 96.9411 158.414C96.6637 158.488 96.3777 158.524 96.0908 158.521C95.6236 158.543 95.1622 158.41 94.7781 158.142C94.4386 157.863 94.215 157.467 94.151 157.032H94.0872C93.6703 157.501 93.1714 157.89 92.6151 158.179C92.0234 158.456 91.3758 158.591 90.7232 158.574C90.0122 158.601 89.3191 158.346 88.794 157.864C88.5438 157.627 88.347 157.338 88.2168 157.018C88.0867 156.698 88.0262 156.353 88.0394 156.008C88.0343 155.645 88.0918 155.284 88.2094 154.941C88.4302 154.344 88.8562 153.846 89.4105 153.537C89.6739 153.392 89.9454 153.262 90.2236 153.148C90.5425 153.031 91.1855 152.812 92.1528 152.492C92.8214 152.289 93.475 152.04 94.1085 151.745V150.71C94.0993 150.531 94.0798 150.353 94.05 150.176C94.0128 149.919 93.9281 149.671 93.8002 149.445C93.6543 149.179 93.4509 148.95 93.205 148.773C92.882 148.562 92.5001 148.461 92.1156 148.485C91.8071 148.482 91.5009 148.536 91.2121 148.645C90.9966 148.719 90.7979 148.835 90.6275 148.986C90.6372 149.194 90.6711 149.4 90.7285 149.6C90.789 149.846 90.8211 150.099 90.8241 150.352C90.8207 150.481 90.7895 150.607 90.7326 150.722C90.6757 150.837 90.5945 150.939 90.4947 151.019C90.235 151.232 89.9047 151.339 89.5699 151.318C89.42 151.329 89.2697 151.301 89.1337 151.236C88.9978 151.172 88.8807 151.073 88.794 150.95C88.6306 150.706 88.5453 150.417 88.5496 150.123C88.5545 149.787 88.6746 149.463 88.8897 149.205C89.1392 148.893 89.4414 148.628 89.7825 148.421C90.1428 148.209 90.5285 148.044 90.9304 147.93C91.359 147.797 91.805 147.728 92.2537 147.727C92.7699 147.721 93.2857 147.76 93.7949 147.845C94.2311 147.926 94.6424 148.109 94.996 148.378C95.3644 148.648 95.6483 149.019 95.8144 149.445C96.017 149.989 96.1109 150.567 96.0908 151.147C96.0908 152.147 96.0801 153.036 96.0589 153.815C96.0589 154.583 96.027 155.415 96.027 156.333C96.0159 156.557 96.0655 156.78 96.1705 156.979C96.2784 157.151 96.4309 157.291 96.6116 157.384C96.7665 157.461 96.9383 157.498 97.1111 157.491H97.8126V158.126ZM94.1297 152.625C93.5292 152.796 93.0084 152.967 92.5354 153.132C92.0962 153.296 91.6758 153.507 91.2812 153.762C90.9477 153.979 90.6634 154.264 90.4468 154.599C90.236 154.948 90.1291 155.349 90.1386 155.757C90.1179 155.99 90.1486 156.226 90.2285 156.446C90.3084 156.666 90.4355 156.866 90.6009 157.032C90.9237 157.31 91.3397 157.455 91.7648 157.438C92.2298 157.447 92.6875 157.321 93.0828 157.075C93.4489 156.849 93.7741 156.562 94.0447 156.226L94.1297 152.625Z" fill="white"/>
<path d="M103.658 158.586C102.994 158.623 102.329 158.509 101.715 158.252C101.1 157.995 100.551 157.602 100.108 157.103C99.4846 156.252 99.074 155.263 98.9112 154.219C98.7484 153.175 98.8382 152.108 99.173 151.106C99.4031 150.481 99.7413 149.901 100.172 149.394C100.618 148.872 101.172 148.454 101.795 148.17C102.418 147.886 103.096 147.743 103.781 147.75C104.666 147.71 105.54 147.963 106.268 148.471C106.577 148.695 106.827 148.993 106.994 149.337C107.162 149.681 107.243 150.062 107.23 150.445C107.236 150.77 107.149 151.09 106.98 151.368C106.888 151.502 106.763 151.61 106.617 151.681C106.47 151.751 106.307 151.781 106.146 151.768C105.796 151.79 105.45 151.68 105.178 151.458C105.074 151.375 104.989 151.269 104.93 151.15C104.87 151.03 104.837 150.899 104.833 150.765C104.835 150.439 104.877 150.114 104.96 149.799C105.027 149.563 105.077 149.322 105.109 149.079C104.984 148.867 104.782 148.712 104.546 148.647C104.285 148.575 104.015 148.539 103.743 148.54C103.409 148.538 103.079 148.611 102.776 148.753C102.423 148.94 102.118 149.209 101.889 149.538C101.595 149.965 101.381 150.442 101.256 150.946C101.084 151.644 101.003 152.361 101.017 153.08C100.969 154.198 101.272 155.303 101.883 156.239C102.128 156.621 102.466 156.935 102.865 157.15C103.264 157.364 103.711 157.473 104.163 157.466C104.773 157.487 105.373 157.315 105.88 156.975C106.4 156.573 106.834 156.071 107.155 155.497L107.83 155.935C107.391 156.727 106.761 157.397 105.997 157.882C105.3 158.335 104.489 158.579 103.658 158.586V158.586Z" fill="white"/>
<path d="M119.985 158.312H114.867V157.624L115.398 157.581C115.562 157.574 115.724 157.547 115.882 157.501C116.065 157.45 116.222 157.332 116.323 157.17C116.426 156.985 116.476 156.774 116.466 156.562V151.286C116.505 150.675 116.315 150.072 115.935 149.594C115.779 149.407 115.584 149.257 115.364 149.154C115.143 149.052 114.902 149 114.659 149.002C114.312 149 113.967 149.057 113.639 149.173C113.344 149.28 113.062 149.421 112.799 149.594C112.595 149.742 112.416 149.923 112.268 150.128C112.161 150.268 112.062 150.414 111.97 150.565V156.471C111.961 156.677 112.011 156.881 112.114 157.058C112.219 157.219 112.371 157.342 112.55 157.41C112.703 157.48 112.863 157.532 113.028 157.565C113.203 157.604 113.381 157.629 113.559 157.64V158.328H108.463V157.64L108.962 157.592C109.111 157.58 109.259 157.555 109.403 157.517C109.585 157.463 109.741 157.345 109.845 157.186C109.948 157.001 109.998 156.79 109.988 156.578V144.59C109.986 144.345 109.932 144.103 109.829 143.88C109.734 143.667 109.586 143.483 109.398 143.347C109.192 143.234 108.963 143.168 108.729 143.155C108.41 143.117 108.149 143.091 107.953 143.08V142.413L111.806 142.184L111.954 142.338V149.509H111.997C112.225 149.28 112.438 149.077 112.629 148.895C112.863 148.695 113.113 148.517 113.379 148.362C114.034 147.969 114.784 147.766 115.547 147.775C115.944 147.754 116.34 147.821 116.708 147.973C117.075 148.124 117.405 148.355 117.673 148.65C118.215 149.366 118.481 150.255 118.422 151.152V156.487C118.412 156.693 118.458 156.898 118.555 157.08C118.66 157.241 118.815 157.362 118.996 157.426C119.139 157.485 119.287 157.531 119.437 157.565C119.612 157.605 119.79 157.628 119.969 157.635L119.985 158.312Z" fill="white"/>
<path d="M125.007 157.952C125.009 158.444 124.892 158.929 124.666 159.366C124.457 159.782 124.192 160.168 123.88 160.513C123.587 160.837 123.265 161.134 122.918 161.398C122.626 161.627 122.315 161.828 121.988 162.001L121.504 161.308C121.839 161.094 122.142 160.886 122.413 160.678C122.653 160.495 122.872 160.285 123.067 160.054C123.275 159.813 123.453 159.548 123.598 159.264C123.752 158.961 123.849 158.632 123.885 158.293H123.354C122.955 158.315 122.562 158.186 122.254 157.931C122.12 157.806 122.016 157.653 121.947 157.484C121.878 157.314 121.847 157.132 121.855 156.949C121.867 156.631 121.996 156.329 122.217 156.101C122.34 155.963 122.492 155.855 122.662 155.784C122.832 155.713 123.016 155.68 123.2 155.69C123.458 155.671 123.716 155.716 123.953 155.82C124.19 155.924 124.399 156.084 124.56 156.287C124.887 156.778 125.043 157.363 125.007 157.952Z" fill="white"/>
<path d="M147.136 158.314H143.102C142.21 156.932 141.407 155.737 140.684 154.728C139.962 153.72 139.186 152.685 138.341 151.613H136.805V156.302C136.8 156.521 136.839 156.739 136.922 156.942C136.971 157.043 137.04 157.132 137.125 157.205C137.21 157.277 137.309 157.331 137.416 157.364C137.634 157.433 137.858 157.479 138.086 157.503C138.399 157.54 138.665 157.567 138.883 157.572V158.314H132.553V157.572C132.723 157.572 132.968 157.535 133.287 157.503C133.515 157.487 133.74 157.44 133.956 157.364C134.151 157.292 134.313 157.151 134.413 156.969C134.517 156.763 134.566 156.533 134.557 156.302V145.632C134.562 145.412 134.526 145.193 134.45 144.986C134.404 144.883 134.336 144.791 134.251 144.717C134.165 144.643 134.065 144.59 133.956 144.559C133.733 144.482 133.504 144.425 133.271 144.389C133.033 144.342 132.794 144.308 132.553 144.287V143.551H139.462C140.061 143.547 140.658 143.612 141.242 143.743C141.777 143.863 142.287 144.072 142.752 144.362C143.21 144.644 143.585 145.044 143.837 145.521C144.089 145.997 144.21 146.533 144.187 147.072C144.197 147.588 144.108 148.1 143.926 148.582C143.749 149 143.487 149.377 143.156 149.686C142.815 150 142.43 150.261 142.013 150.46C141.541 150.681 141.05 150.86 140.546 150.994C141.283 151.961 141.898 152.774 142.39 153.432C142.879 154.093 143.453 154.894 144.187 155.838C144.426 156.18 144.709 156.49 145.026 156.761C145.259 156.946 145.508 157.108 145.77 157.247C145.988 157.348 146.219 157.418 146.456 157.455C146.682 157.497 146.911 157.524 147.141 157.535L147.136 158.314ZM141.588 147.296C141.609 146.906 141.551 146.515 141.416 146.148C141.282 145.782 141.074 145.446 140.807 145.162C140.51 144.889 140.163 144.679 139.784 144.544C139.405 144.409 139.002 144.353 138.601 144.378H136.805V150.711H138.187C139.085 150.74 139.959 150.41 140.615 149.793C140.943 149.469 141.2 149.079 141.367 148.649C141.535 148.219 141.61 147.758 141.588 147.296Z" fill="white"/>
<path d="M160.305 153.954L160.024 158.308H147.593V157.566C147.8 157.566 148.082 157.524 148.433 157.481C148.667 157.464 148.897 157.415 149.118 157.337C149.317 157.259 149.483 157.116 149.591 156.931C149.685 156.733 149.731 156.516 149.724 156.297V145.674C149.726 145.466 149.687 145.259 149.607 145.066C149.506 144.863 149.331 144.708 149.118 144.634C148.875 144.525 148.62 144.444 148.358 144.394C148.106 144.336 147.85 144.293 147.593 144.266V143.529H159.179V147.088H158.387C158.196 146.472 157.885 145.901 157.473 145.407C157.165 144.926 156.689 144.578 156.139 144.431C155.921 144.431 155.66 144.383 155.357 144.372C155.055 144.362 154.709 144.372 154.295 144.372H151.946V150.241H153.63C154.033 150.262 154.436 150.211 154.821 150.092C155.084 149.977 155.312 149.792 155.48 149.558C155.657 149.315 155.79 149.042 155.873 148.753C155.977 148.442 156.05 148.122 156.091 147.798H156.883V153.592H156.091C156.057 153.228 155.98 152.87 155.862 152.525C155.781 152.236 155.652 151.964 155.48 151.719C155.291 151.469 155.032 151.283 154.736 151.185C154.375 151.092 154.003 151.051 153.63 151.063H151.946V155.491C151.937 155.849 151.967 156.207 152.036 156.558C152.085 156.791 152.217 156.998 152.408 157.14C152.632 157.288 152.89 157.377 153.157 157.396C153.606 157.44 154.056 157.46 154.507 157.454H155.427C155.804 157.454 156.128 157.454 156.388 157.412C156.666 157.381 156.941 157.331 157.212 157.262C157.438 157.217 157.649 157.114 157.823 156.964C158.23 156.508 158.572 155.998 158.838 155.448C159.107 154.971 159.334 154.471 159.519 153.954H160.305Z" fill="white"/>
<path d="M175.797 158.314H169.574V157.572C170.035 157.554 170.493 157.484 170.94 157.364C171.294 157.265 171.471 157.137 171.471 156.98C171.475 156.904 171.475 156.827 171.471 156.751C171.457 156.669 171.436 156.588 171.407 156.511L170.164 153.197H164.908C164.711 153.683 164.552 154.11 164.429 154.467L164.095 155.47C164.004 155.769 163.94 156.004 163.903 156.201C163.874 156.351 163.856 156.502 163.85 156.655C163.85 156.937 164.073 157.151 164.514 157.305C164.999 157.463 165.504 157.553 166.013 157.572V158.314H160.369V157.572C160.601 157.552 160.83 157.513 161.055 157.455C161.293 157.405 161.521 157.315 161.73 157.188C161.979 157.029 162.201 156.831 162.389 156.601C162.572 156.337 162.724 156.053 162.84 155.753C163.595 153.896 164.424 151.812 165.327 149.5C166.231 147.188 167.041 145.127 167.756 143.316H168.601L173.591 156.089C173.756 156.567 174.081 156.973 174.511 157.236C174.709 157.349 174.922 157.431 175.143 157.482C175.357 157.539 175.576 157.575 175.797 157.588V158.314ZM169.776 152.269L167.506 146.534L165.269 152.269H169.776Z" fill="white"/>
<path d="M188.355 153.917L188.041 158.313H176.35V157.572L177.083 157.502C177.311 157.487 177.537 157.44 177.753 157.364C177.945 157.288 178.107 157.149 178.21 156.969C178.313 156.762 178.363 156.533 178.353 156.302V145.717C178.356 145.501 178.315 145.286 178.231 145.087C178.129 144.888 177.959 144.733 177.753 144.65C177.533 144.549 177.306 144.469 177.072 144.41C176.836 144.341 176.594 144.292 176.35 144.266V143.529H182.668V144.266C182.179 144.308 181.695 144.399 181.223 144.538C181.115 144.569 181.016 144.623 180.932 144.697C180.847 144.771 180.78 144.862 180.734 144.964C180.644 145.168 180.599 145.388 180.601 145.61V155.555C180.594 155.912 180.617 156.269 180.67 156.622C180.702 156.85 180.815 157.059 180.989 157.209C181.205 157.352 181.454 157.437 181.712 157.454C182.16 157.499 182.611 157.518 183.062 157.513C183.317 157.513 183.593 157.513 183.87 157.513C184.138 157.499 184.406 157.471 184.672 157.428C184.903 157.391 185.131 157.334 185.352 157.257C185.527 157.204 185.685 157.108 185.815 156.98C186.195 156.529 186.531 156.043 186.819 155.528C187.133 155.021 187.4 154.485 187.616 153.928L188.355 153.917Z" fill="white"/>
<path d="M199.829 147.552H199.101C199.015 147.244 198.9 146.945 198.755 146.661C198.6 146.325 198.423 146.001 198.224 145.69C198.025 145.386 197.793 145.105 197.533 144.852C197.337 144.644 197.083 144.499 196.805 144.436C196.587 144.409 196.311 144.388 195.981 144.377C195.652 144.366 195.343 144.377 195.062 144.377H194.445V156.205C194.445 156.424 194.496 156.64 194.594 156.835C194.712 157.042 194.901 157.199 195.126 157.278C195.385 157.36 195.65 157.426 195.917 157.475C196.228 157.547 196.545 157.591 196.863 157.609V158.35H189.763V157.609C189.96 157.609 190.258 157.571 190.667 157.529C190.95 157.51 191.231 157.457 191.501 157.368C191.717 157.302 191.904 157.165 192.033 156.979C192.151 156.772 192.208 156.535 192.197 156.296V144.35H191.581H190.768C190.449 144.35 190.135 144.382 189.843 144.414C189.564 144.472 189.31 144.618 189.12 144.831C188.861 145.084 188.629 145.365 188.429 145.668C188.216 145.984 188.027 146.315 187.866 146.661C187.733 146.942 187.621 147.232 187.531 147.53H186.792V143.523H199.845L199.829 147.552Z" fill="white"/>
<path d="M212.685 145.28C213.362 145.988 213.89 146.826 214.236 147.744C214.99 149.811 214.99 152.08 214.236 154.147C213.878 155.064 213.335 155.898 212.642 156.596C211.993 157.258 211.218 157.783 210.362 158.138C209.486 158.499 208.546 158.68 207.599 158.671C206.607 158.681 205.625 158.485 204.713 158.095C203.85 157.729 203.075 157.183 202.438 156.494C201.782 155.785 201.274 154.95 200.945 154.04C200.579 153.052 200.399 152.005 200.413 150.951C200.396 149.857 200.591 148.769 200.987 147.75C201.352 146.837 201.894 146.006 202.582 145.306C203.232 144.63 204.016 144.097 204.883 143.743C205.757 143.385 206.692 143.204 207.636 143.209C208.597 143.198 209.551 143.38 210.442 143.743C211.285 144.098 212.048 144.621 212.685 145.28V145.28ZM211.09 155.758C211.495 155.1 211.786 154.379 211.951 153.624C212.135 152.747 212.224 151.852 212.217 150.956C212.224 150.018 212.124 149.082 211.919 148.166C211.75 147.397 211.452 146.663 211.037 145.994C210.669 145.425 210.169 144.953 209.581 144.618C208.968 144.28 208.277 144.109 207.577 144.122C206.829 144.104 206.091 144.302 205.452 144.693C204.855 145.08 204.36 145.605 204.006 146.224C203.631 146.888 203.366 147.609 203.219 148.358C203.042 149.207 202.955 150.073 202.959 150.94C202.949 151.851 203.041 152.761 203.235 153.651C203.399 154.406 203.69 155.128 204.096 155.785C204.454 156.373 204.948 156.865 205.537 157.22C206.165 157.583 206.879 157.767 207.604 157.753C208.312 157.764 209.01 157.586 209.627 157.238C210.245 156.889 210.759 156.382 211.117 155.769L211.09 155.758Z" fill="white"/>
<path d="M229.962 158.314H225.928C225.035 156.93 224.229 155.735 223.51 154.728C222.787 153.72 222.006 152.685 221.161 151.612H219.63V156.302C219.625 156.521 219.665 156.739 219.747 156.942C219.795 157.044 219.864 157.134 219.949 157.207C220.034 157.28 220.134 157.333 220.242 157.364C220.458 157.433 220.68 157.479 220.906 157.503C221.219 157.54 221.49 157.567 221.708 157.572V158.314H215.374V157.572C215.544 157.572 215.788 157.535 216.107 157.503C216.337 157.488 216.564 157.441 216.782 157.364C216.975 157.288 217.136 157.149 217.239 156.969C217.342 156.763 217.392 156.533 217.382 156.302V145.632C217.385 145.412 217.349 145.193 217.276 144.986C217.229 144.883 217.161 144.792 217.076 144.718C216.99 144.644 216.89 144.59 216.782 144.559C216.557 144.483 216.326 144.426 216.091 144.389C215.854 144.342 215.614 144.308 215.374 144.287V143.551H222.282C222.883 143.547 223.482 143.612 224.068 143.743C224.603 143.86 225.115 144.065 225.583 144.351C226.039 144.635 226.412 145.036 226.664 145.512C226.916 145.988 227.038 146.523 227.017 147.062C227.026 147.577 226.936 148.09 226.752 148.571C226.58 149.004 226.313 149.393 225.971 149.708C225.631 150.02 225.248 150.281 224.833 150.481C224.36 150.701 223.87 150.879 223.366 151.015C224.107 151.982 224.72 152.795 225.205 153.453C225.691 154.111 226.291 154.913 227.007 155.859C227.245 156.203 227.528 156.513 227.847 156.782C228.076 156.968 228.324 157.131 228.585 157.268C228.803 157.368 229.034 157.438 229.271 157.476C229.499 157.519 229.73 157.545 229.962 157.556V158.314ZM224.408 147.296C224.429 146.906 224.371 146.515 224.236 146.148C224.102 145.781 223.895 145.446 223.627 145.162C223.331 144.889 222.983 144.679 222.604 144.544C222.225 144.409 221.823 144.353 221.421 144.378H219.63V150.711H221.012C221.909 150.74 222.781 150.409 223.436 149.793C223.764 149.469 224.02 149.079 224.187 148.649C224.355 148.219 224.43 147.758 224.408 147.296V147.296Z" fill="white"/>
<path d="M239.879 151.531C240.186 151.859 240.424 152.245 240.58 152.667C240.741 153.132 240.819 153.621 240.809 154.113C240.823 154.728 240.698 155.337 240.444 155.896C240.19 156.455 239.813 156.949 239.342 157.341C238.327 158.204 237.03 158.658 235.701 158.616C235.022 158.613 234.347 158.509 233.698 158.307C233.092 158.131 232.51 157.88 231.965 157.56L231.508 158.323H230.669L230.52 153.26H231.375C231.535 153.839 231.741 154.405 231.992 154.951C232.233 155.466 232.548 155.942 232.927 156.365C233.286 156.772 233.721 157.104 234.208 157.341C234.74 157.596 235.324 157.722 235.914 157.709C236.345 157.716 236.774 157.653 237.184 157.522C237.514 157.414 237.816 157.231 238.066 156.989C238.289 156.758 238.46 156.481 238.566 156.178C238.682 155.835 238.738 155.474 238.731 155.111C238.725 154.518 238.539 153.942 238.199 153.457C237.831 152.919 237.303 152.511 236.69 152.294C236.233 152.113 235.712 151.915 235.096 151.696C234.479 151.478 233.995 151.27 233.57 151.077C232.8 150.761 232.122 150.255 231.599 149.605C231.105 148.913 230.858 148.075 230.897 147.225C230.893 146.681 231.013 146.142 231.248 145.652C231.486 145.155 231.822 144.712 232.236 144.35C232.661 143.978 233.151 143.691 233.682 143.501C234.24 143.294 234.83 143.189 235.425 143.192C236.057 143.183 236.686 143.29 237.28 143.507C237.799 143.702 238.299 143.945 238.773 144.232L239.204 143.528H240.049L240.134 148.431H239.278C239.124 147.898 238.949 147.332 238.747 146.831C238.56 146.332 238.307 145.861 237.992 145.433C237.694 145.036 237.315 144.707 236.881 144.467C236.388 144.216 235.84 144.093 235.287 144.11C234.658 144.095 234.048 144.322 233.581 144.745C233.357 144.935 233.177 145.173 233.055 145.442C232.933 145.71 232.871 146.002 232.874 146.297C232.851 146.865 233.009 147.426 233.326 147.898C233.67 148.35 234.124 148.706 234.644 148.933C235.138 149.168 235.643 149.378 236.158 149.562C236.653 149.744 237.136 149.93 237.599 150.133C238.017 150.312 238.424 150.519 238.816 150.752C239.207 150.957 239.565 151.219 239.879 151.531Z" fill="white"/>
<path d="M246.995 146.452C247 146.786 246.936 147.117 246.807 147.425C246.678 147.732 246.487 148.01 246.245 148.24C245.76 148.715 245.109 148.981 244.43 148.981C243.752 148.981 243.101 148.715 242.616 148.24C242.377 148.007 242.187 147.729 242.057 147.422C241.927 147.114 241.86 146.784 241.86 146.45C241.86 146.116 241.927 145.785 242.057 145.478C242.187 145.17 242.377 144.892 242.616 144.66C243.101 144.184 243.752 143.918 244.43 143.918C245.109 143.918 245.76 144.184 246.245 144.66C246.486 144.891 246.677 145.169 246.806 145.478C246.935 145.786 246.999 146.118 246.995 146.452ZM246.713 146.452C246.713 145.845 246.473 145.263 246.045 144.834C245.618 144.405 245.038 144.163 244.433 144.163C243.828 144.163 243.249 144.405 242.821 144.834C242.393 145.263 242.153 145.845 242.153 146.452C242.153 146.752 242.212 147.049 242.326 147.325C242.441 147.602 242.608 147.853 242.82 148.065C243.031 148.277 243.282 148.444 243.558 148.559C243.834 148.673 244.129 148.731 244.428 148.73C245.031 148.73 245.61 148.491 246.038 148.064C246.466 147.637 246.709 147.058 246.713 146.452V146.452ZM246.107 147.759H245.273C245.092 147.503 244.933 147.29 244.794 147.119L244.38 146.586H244.077V147.338C244.069 147.377 244.069 147.417 244.077 147.455C244.099 147.491 244.133 147.517 244.173 147.53C244.217 147.546 244.264 147.555 244.311 147.557H244.465V147.722H243.189V147.557H243.333C243.378 147.552 243.423 147.541 243.466 147.525C243.485 147.519 243.503 147.51 243.519 147.497C243.535 147.484 243.547 147.468 243.556 147.45C243.565 147.411 243.565 147.371 243.556 147.333V145.492C243.565 145.453 243.565 145.413 243.556 145.375C243.556 145.337 243.514 145.316 243.461 145.294L243.322 145.262C243.276 145.258 243.23 145.258 243.184 145.262V145.097H244.662C244.769 145.097 244.875 145.108 244.98 145.129C245.079 145.15 245.174 145.186 245.262 145.236C245.344 145.284 245.413 145.352 245.464 145.433C245.518 145.521 245.546 145.623 245.544 145.727C245.553 145.906 245.492 146.082 245.374 146.217C245.223 146.353 245.04 146.447 244.842 146.49L245.236 146.964L245.528 147.317C245.571 147.376 245.625 147.427 245.687 147.466C245.734 147.496 245.784 147.521 245.836 147.541C245.881 147.556 245.927 147.566 245.974 147.573H246.107V147.759ZM244.986 145.785C244.989 145.718 244.978 145.651 244.952 145.59C244.926 145.528 244.887 145.472 244.837 145.428C244.714 145.339 244.563 145.295 244.412 145.305H244.077V146.372H244.327C244.5 146.381 244.67 146.326 244.805 146.217C244.864 146.163 244.911 146.096 244.942 146.021C244.973 145.947 244.988 145.866 244.986 145.785V145.785Z" fill="white"/>
</g>
<defs>
<clipPath id="clip0_980_2388">
<rect width="247" height="162" fill="white"/>
</clipPath>
</defs>
</svg>
