<svg width="330" height="118" viewBox="0 0 330 118" fill="none" xmlns="http://www.w3.org/2000/svg">
<g clip-path="url(#clip0_980_2673)">
<path d="M87.4522 75.4346C85.605 75.4125 83.789 74.956 82.1509 74.102L81.518 75.0539H80.4283L80.2141 68.6381H81.3086C82.2604 71.6271 84.1353 74.4209 87.7234 74.4209C90.493 74.4209 91.8826 72.9026 91.8826 70.9179C91.8826 69.4234 90.6739 68.0622 88.8703 67.3911C87.0667 66.72 86.1864 66.5201 84.5303 65.8443C82.208 64.8924 80.7899 63.4217 80.7899 60.9468C80.7899 58.0387 83.6833 55.8446 87.1191 55.8446C88.7907 55.8607 90.4299 56.3083 91.8778 57.144L92.4774 56.2492H93.5719L93.6909 62.4984H92.5726C91.697 59.6189 90.4645 56.8679 86.9382 56.8679C85.0728 56.8679 83.3406 58.2053 83.3406 59.7807C83.3406 61.3561 84.4256 62.4365 86.0531 63.1409C87.4807 63.7644 88.8275 64.1214 90.1552 64.6639C92.5964 65.6158 94.5665 66.7914 94.5665 69.7233C94.5665 73.0692 91.5209 75.4346 87.4522 75.4346ZM16.1233 69.947C16.1233 66.4678 12.8873 65.2969 10.6317 65.0019V64.8924C12.9444 64.3498 15.0906 63.0695 15.0906 60.3281C15.0906 57.2582 12.1259 56.2254 9.62757 56.2254H0.690631V57.1773C1.28189 57.2248 1.86098 57.3712 2.40378 57.6104C2.65493 57.7305 2.86285 57.9253 2.99914 58.1681C3.13542 58.4109 3.19341 58.6898 3.16518 58.9668V72.498C3.19364 72.7682 3.13513 73.0403 2.99818 73.2749C2.86123 73.5094 2.65299 73.6942 2.40378 73.8021C1.80918 73.9617 1.20028 74.0621 0.585938 74.102V75.0539H9.76557C12.7541 75.0491 16.1233 73.4499 16.1233 69.947ZM11.9118 60.5993C11.9118 62.9077 10.6602 64.564 7.67172 64.564H5.99188V57.3391C6.63907 57.3106 7.67172 57.282 8.13807 57.282C9.81791 57.282 11.9118 57.8579 11.9118 60.5993ZM12.8635 69.4567C12.8635 71.6842 12.0212 73.9925 8.78527 73.9925C7.15778 73.9925 5.99188 73.4214 5.99188 72.3077V65.6777C6.46775 65.6777 7.64793 65.6254 8.54257 65.6254C11.3407 65.6254 12.8635 67.2103 12.8635 69.4567ZM35.4771 69.5091H34.5254C34.2493 70.323 33.2214 72.498 32.4029 73.3405C31.751 74.0211 30.2425 73.9687 28.8339 73.9687C26.0881 73.9687 25.6265 73.7212 25.6265 71.4938V65.8443H27.3777C29.01 65.8443 29.3621 66.2774 29.6857 66.6582C30.1245 67.3819 30.3945 68.1953 30.4757 69.0379H31.456V61.6845H30.4757C30.3774 62.4756 30.1078 63.2357 29.6857 63.9119C29.3621 64.3213 29.01 64.7544 27.3777 64.7544H25.6265V57.282H28.22C28.9829 57.2727 29.7457 57.3092 30.5042 57.3915C31.6463 57.5295 33.0025 59.5665 33.3261 60.7612H34.3064V56.2254H20.0968V57.1773C20.7597 57.2459 21.4099 57.406 22.0289 57.6532C22.2815 57.7632 22.4917 57.9519 22.6281 58.1913C22.7645 58.4306 22.8197 58.7077 22.7855 58.9811V72.5123C22.8147 72.7857 22.7574 73.0614 22.6216 73.3004C22.4859 73.5395 22.2786 73.73 22.0289 73.845C21.3919 73.9802 20.7464 74.0709 20.0968 74.1163V75.0682H35.1059L35.4771 69.5091ZM57.5434 75.0491V74.0972C56.9485 74.0808 56.3609 73.9617 55.8065 73.745C55.0123 73.3125 54.3322 72.6975 53.8221 71.9507C51.8948 69.3711 51.2952 68.4715 49.2299 65.7634C51.8377 64.9781 53.8221 63.674 53.8221 60.6803C53.8221 57.4533 51.0001 56.2016 47.9022 56.2016H39.208V57.1535C39.8053 57.2059 40.3964 57.3142 40.9735 57.4771C41.2325 57.5953 41.4465 57.7939 41.5837 58.0434C41.7208 58.2929 41.7739 58.5801 41.7349 58.8621V72.4742C41.7674 72.7518 41.7113 73.0325 41.5745 73.2762C41.4377 73.5199 41.2273 73.714 40.9735 73.8307C40.3929 73.9623 39.8023 74.0451 39.208 74.0782V75.0301H47.1646V74.0782C46.5445 74.0615 45.9269 73.9931 45.3182 73.8735C45.0601 73.7619 44.8455 73.5689 44.7072 73.3241C44.5689 73.0792 44.5144 72.7958 44.552 72.5171V66.5201H46.4555C48.6047 69.2554 50.6077 72.1024 52.4563 75.0491H57.5434ZM50.5528 61.0229C50.5528 63.7406 48.735 65.4017 46.27 65.4017H44.5568V57.3106H46.8125C48.8778 57.3106 50.5528 58.4005 50.5528 61.0229ZM77.6111 75.0682V74.1163C77.0241 74.0974 76.4447 73.9783 75.8979 73.7641C75.0784 73.3148 74.358 72.7045 73.7803 71.9697C71.5246 69.1426 70.2207 67.4577 67.6415 64.5259C69.6718 62.5406 71.6015 60.4549 73.4234 58.2767C74.2942 57.2963 76.2501 57.1916 76.5213 57.1916V56.2397H69.4689V57.1916C69.9447 57.2154 71.4247 57.2963 71.4247 57.8388C71.4247 59.1429 68.2221 62.6221 64.9623 65.3398H64.7149V58.8336C64.7149 58.2339 64.8529 57.7199 65.4763 57.5009C66.0425 57.3267 66.6269 57.2181 67.218 57.1773V56.2254H59.4184V57.1773C60.0091 57.2537 60.586 57.414 61.1315 57.6532C61.3813 57.7672 61.589 57.9566 61.7256 58.1948C61.8622 58.433 61.9207 58.708 61.8929 58.9811V72.5647C61.9247 72.839 61.868 73.1163 61.731 73.356C61.594 73.5958 61.384 73.7854 61.1315 73.8973C60.5674 74.0169 59.9944 74.0902 59.4184 74.1163V75.0682H67.2085V74.1163C66.6163 74.066 66.0319 73.9478 65.4668 73.7641C65.2174 73.6404 65.0113 73.4443 64.8754 73.2013C64.7395 72.9584 64.6802 72.6801 64.7054 72.4028V65.8443H65.0337C67.7392 68.6877 70.1839 71.7684 72.3384 75.0491L77.6111 75.0682ZM117.451 75.0682V74.1163C116.867 74.0771 116.291 73.9586 115.738 73.7641C115.493 73.6355 115.29 73.4383 115.155 73.1966C115.02 72.9549 114.958 72.6791 114.977 72.4028V58.8336C114.937 58.5583 114.99 58.2777 115.128 58.0362C115.266 57.7947 115.481 57.6063 115.738 57.5009C116.295 57.3268 116.87 57.2181 117.451 57.1773V56.2254H109.666V57.1773C110.264 57.2543 110.849 57.4145 111.403 57.6532C111.653 57.7672 111.86 57.9566 111.997 58.1948C112.134 58.433 112.192 58.708 112.164 58.9811V64.6925H103.337V58.8336C103.337 58.2339 103.47 57.7199 104.07 57.5009C104.625 57.3293 105.198 57.2208 105.778 57.1773V56.2254H97.9833V57.1773C98.5817 57.2536 99.1665 57.4139 99.7203 57.6532C99.9731 57.7656 100.185 57.9537 100.326 58.1915C100.468 58.4294 100.532 58.7052 100.51 58.9811V72.5647C100.543 72.8427 100.483 73.1238 100.341 73.3647C100.198 73.6055 99.9799 73.7927 99.7203 73.8973C99.1484 74.0187 98.5674 74.0919 97.9833 74.1163V75.0682H105.778V74.1163C105.195 74.0766 104.621 73.9581 104.07 73.7641C103.826 73.6362 103.626 73.4383 103.495 73.1957C103.364 72.9531 103.309 72.677 103.337 72.4028V65.8443H112.164V72.5504C112.203 72.8254 112.149 73.1054 112.011 73.3465C111.873 73.5876 111.659 73.7763 111.403 73.883C110.831 74.0041 110.25 74.0773 109.666 74.102V75.0539L117.451 75.0682ZM129.677 75.0682V74.1163C129.005 74.0644 128.34 73.9464 127.692 73.7641C127.429 73.6598 127.205 73.4746 127.054 73.2351C126.902 72.9955 126.831 72.7141 126.85 72.4314V58.8193C126.808 58.5367 126.87 58.2484 127.025 58.0084C127.18 57.7684 127.417 57.5931 127.692 57.5152C128.341 57.3404 129.006 57.2319 129.677 57.1916V56.2397H121.211V57.1916C121.887 57.27 122.552 57.4298 123.19 57.6675C123.462 57.7514 123.695 57.928 123.849 58.1665C124.003 58.4049 124.068 58.6899 124.033 58.9716V72.6075C124.065 72.8888 123.999 73.1725 123.845 73.4103C123.691 73.6481 123.46 73.8253 123.19 73.9116C122.537 74.0322 121.875 74.1053 121.211 74.1305V75.0824L129.677 75.0682ZM151.767 75.0682V74.1163C151.172 74.0999 150.584 73.9807 150.03 73.7641C149.236 73.3315 148.555 72.7166 148.045 71.9697C146.142 69.3901 145.523 68.4906 143.458 65.7824C146.061 64.9971 148.045 63.693 148.045 60.6993C148.045 57.4724 145.219 56.2206 142.125 56.2206H133.441V57.1725C134.038 57.2245 134.629 57.3329 135.206 57.4962C135.465 57.6143 135.679 57.813 135.816 58.0625C135.954 58.312 136.007 58.5991 135.968 58.8812V72.4933C136 72.7708 135.944 73.0516 135.807 73.2952C135.671 73.5389 135.46 73.733 135.206 73.8497C134.626 73.982 134.035 74.0648 133.441 74.0972V75.0491H141.402V74.0972C140.777 74.0745 140.154 73.9997 139.541 73.8735C139.285 73.7603 139.073 73.5667 138.936 73.322C138.8 73.0772 138.746 72.7947 138.785 72.5171V66.5201H140.688C142.836 69.2545 144.836 72.1015 146.68 75.0491L151.767 75.0682ZM144.776 61.0229C144.776 63.7406 142.958 65.4017 140.493 65.4017H138.756V57.3106H141.007C143.111 57.3106 144.776 58.4005 144.776 61.0229ZM168.636 69.5281H167.685C167.418 70.342 166.386 72.5171 165.567 73.3595C164.915 74.0401 163.407 73.9877 161.993 73.9877C159.252 73.9877 158.791 73.7403 158.791 71.5128V65.8443H160.542C162.174 65.8443 162.526 66.2774 162.85 66.6582C163.291 67.381 163.561 68.1949 163.64 69.0379H164.615V61.6845H163.64C163.539 62.4751 163.27 63.2347 162.85 63.9119C162.526 64.3213 162.174 64.7544 160.542 64.7544H158.791V57.282H161.384C162.147 57.2728 162.91 57.3093 163.668 57.3915C164.806 57.5295 166.167 59.5665 166.49 60.7612H167.471V56.2254H153.294V57.1773C153.956 57.2459 154.604 57.4061 155.222 57.6532C155.475 57.7624 155.686 57.9508 155.824 58.1902C155.961 58.4297 156.017 58.7072 155.983 58.9811V72.5123C156.012 72.7862 155.954 73.0623 155.817 73.3014C155.68 73.5406 155.472 73.7307 155.222 73.845C154.586 73.9802 153.942 74.0709 153.294 74.1163V75.0682H168.303L168.636 69.5281ZM27.9059 99.5128V98.5847C27.333 98.5444 26.768 98.4276 26.2261 98.2373C25.9847 98.1132 25.7854 97.9205 25.6533 97.6833C25.5212 97.4462 25.4622 97.1752 25.4837 96.9046V83.5829C25.4434 83.3137 25.4946 83.0388 25.6292 82.8023C25.7639 82.5658 25.9741 82.3814 26.2261 82.2788C26.7726 82.1108 27.3359 82.0038 27.9059 81.9599V81.008H20.2824V81.9599C20.8681 82.033 21.4412 82.1851 21.986 82.412C22.2312 82.5255 22.4348 82.7125 22.5687 82.947C22.7026 83.1816 22.7601 83.4521 22.7332 83.7209V89.3133H14.0817V83.6019C14.0817 83.0165 14.215 82.512 14.8003 82.2978C15.3458 82.1324 15.9073 82.0255 16.4754 81.9789V81.027H8.83761V81.9789C9.42318 82.0526 9.99619 82.2047 10.5413 82.4311C10.7886 82.5436 10.9953 82.7296 11.1332 82.9638C11.2712 83.198 11.3336 83.469 11.3122 83.7399V97.0665C11.3435 97.3376 11.2851 97.6115 11.1459 97.8462C11.0066 98.0809 10.7942 98.2634 10.5413 98.3658C9.98056 98.4867 9.41065 98.5599 8.83761 98.5847V99.5128H16.4754V98.5847C15.9041 98.544 15.3407 98.4271 14.8003 98.2373C14.5617 98.1118 14.3658 97.9179 14.2378 97.6806C14.1098 97.4432 14.0555 97.173 14.0817 96.9046V90.4555H22.7332V97.0331C22.7704 97.3019 22.7172 97.5754 22.5819 97.8107C22.4466 98.0459 22.237 98.2295 21.986 98.3325C21.4255 98.454 20.8555 98.5272 20.2824 98.5514V99.4795L27.9059 99.5128ZM48.2448 99.5128V98.5847C47.6896 98.5439 47.1472 98.3986 46.6459 98.1564C46.1291 97.8133 45.7368 97.3125 45.5276 96.7285L39.3793 80.8081H38.3419C36.3194 85.9721 34.1637 91.6692 32.2745 96.3287C32.035 97.0601 31.5554 97.6891 30.9135 98.1135C30.396 98.3912 29.8245 98.5536 29.2384 98.5895V99.5176H36.1862V98.5895C35.3343 98.5324 33.5213 98.2944 33.5213 97.4424C33.5521 96.9426 33.6514 96.4494 33.8163 95.9765C34.0542 95.1246 34.4302 94.1156 34.8014 93.1208H41.2685L42.8151 97.2711C42.8777 97.4521 42.913 97.6414 42.9198 97.8327C42.9198 98.3087 41.4017 98.5229 40.5404 98.58V99.5081L48.2448 99.5128ZM40.8354 91.9595H35.2963L38.0421 84.7965L40.8354 91.9595ZM63.6537 86.0483V81.0127H47.5738V86.0197H48.5018C48.7968 84.8489 50.1816 82.293 51.3237 82.136C52.04 82.0631 52.7595 82.0266 53.4795 82.0265H54.2266V96.9094C54.2597 97.1918 54.1963 97.4771 54.0469 97.719C53.8974 97.9609 53.6707 98.1453 53.4033 98.2421C52.702 98.3988 51.9889 98.4975 51.2714 98.5371V99.4652H59.9751V98.5371C59.2463 98.4666 58.5251 98.3329 57.8194 98.1373C57.5586 98.0231 57.3394 97.831 57.192 97.5873C57.0446 97.3436 56.9762 97.0602 56.9962 96.7761V82.0217H57.7671C58.4792 82.018 59.191 82.0545 59.899 82.1312C61.0411 82.2883 62.4545 84.8441 62.7543 86.015L63.6537 86.0483ZM85.1204 99.4938V98.5657C84.5489 98.5259 83.9855 98.409 83.4453 98.2182C83.2026 98.0954 83.002 97.903 82.8689 97.6657C82.7358 97.4284 82.6764 97.1568 82.6982 96.8856V83.5829C82.659 83.3132 82.7113 83.0383 82.8468 82.8019C82.9822 82.5655 83.1929 82.3813 83.4453 82.2788C83.99 82.1103 84.5519 82.0034 85.1204 81.9599V81.008H77.4778V81.9599C78.0636 82.0324 78.6368 82.1845 79.1815 82.412C79.4266 82.5255 79.6303 82.7125 79.7642 82.947C79.8981 83.1816 79.9556 83.4521 79.9286 83.7209V89.3133H71.2772V83.6019C71.2772 83.0165 71.4104 82.512 71.9958 82.2978C72.5412 82.1324 73.1028 82.0255 73.6708 81.9789V81.027H66.033V81.9789C66.6187 82.052 67.1918 82.2041 67.7367 82.4311C67.9845 82.5434 68.1918 82.7293 68.3305 82.9634C68.4693 83.1975 68.5327 83.4686 68.5124 83.7399V97.0665C68.5426 97.338 68.4831 97.612 68.3431 97.8466C68.203 98.0812 67.99 98.2636 67.7367 98.3658C67.176 98.487 66.6061 98.5603 66.033 98.5847V99.5128H73.6708V98.5847C73.0995 98.544 72.5362 98.4271 71.9958 98.2373C71.7571 98.1118 71.5613 97.9179 71.4333 97.6806C71.3053 97.4432 71.2509 97.173 71.2772 96.9046V90.4555H79.9286V97.0331C79.9658 97.3019 79.9126 97.5754 79.7773 97.8107C79.6421 98.0459 79.4325 98.2295 79.1815 98.3325C78.6209 98.454 78.0509 98.5272 77.4778 98.5514V99.4795L85.1204 99.4938ZM105.459 99.4938V98.5657C104.901 98.529 104.356 98.3869 103.851 98.1469C103.334 97.8038 102.942 97.303 102.733 96.719L96.5842 80.7986H95.5468C93.5243 85.9626 91.3686 91.6597 89.4794 96.3192C89.24 97.0506 88.7603 97.6796 88.1184 98.104C87.6009 98.3817 87.0295 98.5441 86.4433 98.58V99.5081H93.3816V98.58C92.5298 98.5229 90.7167 98.2849 90.7167 97.4329C90.7476 96.9331 90.8468 96.4399 91.0117 95.967C91.2497 95.1151 91.6256 94.1061 91.9968 93.1113H98.4639L100.044 97.2426C100.106 97.4235 100.142 97.6128 100.149 97.8042C100.149 98.2801 98.6305 98.4943 97.7692 98.5514V99.4795L105.459 99.4938ZM98.0309 91.9595H92.4965L95.2375 84.7965L98.0309 91.9595ZM130.152 81.9646V81.0127H123.49V81.9646C124.609 82.0455 126.046 82.2597 126.046 83.1069C125.984 83.9321 125.824 84.7469 125.57 85.5342C124.984 87.7998 124.104 90.9648 122.857 95.2769L118.222 81.3031H116.947L112.336 94.9866C110.608 88.9706 109.357 84.6252 109.005 83.3258C108.958 83.0961 108.923 82.8642 108.9 82.631C108.9 82.0979 110.446 82.017 111.279 81.9646V81.0127H103.741V81.9646C104.284 81.999 104.812 82.1535 105.288 82.4168C105.759 82.7173 106.099 83.1848 106.24 83.7256L110.765 99.727H111.941L116.785 85.5342L121.444 99.727H122.643C124.371 94.1061 126.369 87.6094 127.402 84.1492C127.484 83.8026 127.634 83.4759 127.844 83.1882C128.054 82.9005 128.32 82.6576 128.625 82.4739C129.09 82.1921 129.612 82.0181 130.152 81.9646ZM146.989 99.4843V98.5562C146.434 98.5153 145.891 98.37 145.39 98.1278C144.873 97.7848 144.481 97.284 144.272 96.7L138.114 80.7653H137.076C135.054 85.9293 132.898 91.6264 131.009 96.2859C130.768 97.0164 130.289 97.6449 129.648 98.0707C129.131 98.3484 128.559 98.5108 127.973 98.5466V99.4748H134.921V98.5466C134.069 98.4895 132.256 98.2516 132.256 97.3996C132.287 96.8998 132.386 96.4066 132.551 95.9337C132.789 95.0818 133.165 94.0727 133.536 93.078H140.017L141.564 97.2283C141.627 97.4092 141.662 97.5985 141.669 97.7899C141.669 98.2658 140.151 98.48 139.289 98.5371V99.4652L146.989 99.4843ZM139.541 91.9595H134.026L136.767 84.7965L139.541 91.9595ZM162.745 81.9646V81.0127H156.345V81.9646C157.439 82.0455 158.795 82.1265 158.795 82.9165C158.795 83.3687 156.935 86.5099 154.593 90.2604C152.247 86.0054 150.544 82.9403 150.544 82.5691C150.544 81.9837 152.114 82.0075 152.966 81.9551V81.0032H145.114V81.9551C145.645 81.9864 146.163 82.1326 146.632 82.3835C147.29 82.8298 147.815 83.4467 148.15 84.1683C149.268 86.1387 150.277 87.9996 151.529 90.4222C151.911 91.0487 152.201 91.7267 152.39 92.4355V96.9046C152.43 97.1916 152.374 97.4838 152.229 97.7347C152.084 97.9857 151.859 98.181 151.591 98.2896C150.898 98.4384 150.195 98.5292 149.487 98.5609V99.489H158.101V98.5609C157.389 98.4938 156.684 98.36 155.997 98.1611C155.727 98.0496 155.5 97.8556 155.347 97.6068C155.194 97.3581 155.123 97.0673 155.145 96.7761V93.2589C155.145 92.0071 155.279 91.6359 155.945 90.465C157.169 88.1873 158.509 85.9744 159.961 83.8351C160.294 83.2606 160.772 82.7831 161.346 82.4501C161.79 82.2144 162.269 82.0505 162.764 81.9646H162.745ZM81.1897 117.489C80.069 117.475 78.9686 117.189 77.9823 116.656L77.6063 117.251H76.9924L76.8687 113.234H77.4778C78.0774 115.233 79.0482 116.775 81.3515 116.775C83.0599 116.775 83.8689 115.947 83.8689 114.71C83.8689 113.715 83.2264 112.93 82.0367 112.454C80.9993 112.045 80.433 111.911 79.4432 111.502C78.0584 110.907 77.2113 109.988 77.2113 108.446C77.2113 106.633 78.9388 105.262 80.9898 105.262C82.0064 105.272 83.0019 105.553 83.8736 106.076L84.2353 105.515H84.8444L84.9205 109.413H84.2876C83.7594 107.59 83.136 105.971 80.8851 105.971C79.6907 105.971 78.7104 106.738 78.7104 107.718C78.7104 108.894 79.2481 109.384 80.3569 109.898C81.2182 110.293 82.0129 110.502 82.8076 110.85C84.2638 111.445 85.4392 112.097 85.4392 113.925C85.4392 116.014 83.6214 117.489 81.1897 117.489ZM37.3283 117.256V116.666C37.693 116.649 38.0558 116.603 38.4132 116.528C38.5725 116.46 38.7051 116.342 38.791 116.191C38.8769 116.041 38.9113 115.867 38.8891 115.695V111.507H33.3737V115.595C33.3586 115.768 33.3959 115.941 33.4808 116.092C33.5657 116.243 33.6943 116.365 33.8496 116.442C34.1945 116.566 34.5548 116.641 34.9203 116.666V117.256H30.0902V116.666C30.4534 116.649 30.8146 116.602 31.1704 116.528C31.3291 116.459 31.4613 116.341 31.5471 116.191C31.6329 116.041 31.6677 115.867 31.6463 115.695V107.214C31.6622 107.043 31.625 106.872 31.5398 106.724C31.4546 106.576 31.3255 106.458 31.1704 106.386C30.825 106.241 30.4617 106.143 30.0902 106.095V105.505H34.9108V106.095C34.5478 106.126 34.1889 106.195 33.8401 106.3C33.4689 106.438 33.3642 106.776 33.3642 107.133V110.779H38.8796V107.214C38.8955 107.043 38.8583 106.872 38.7731 106.724C38.6879 106.576 38.5588 106.458 38.4037 106.386C38.0566 106.241 37.6917 106.143 37.3187 106.095V105.505H42.1394V106.095C41.7761 106.124 41.417 106.193 41.0686 106.3C40.9079 106.366 40.7739 106.484 40.6877 106.635C40.6015 106.785 40.5681 106.961 40.5928 107.133V115.595C40.5796 115.768 40.6178 115.94 40.7024 116.091C40.7871 116.242 40.9145 116.364 41.0686 116.442C41.4136 116.566 41.7739 116.641 42.1394 116.666V117.256H37.3283ZM46.9933 117.508C44.9089 117.508 43.0768 115.847 43.0768 113.225C43.0768 110.664 44.6853 108.879 47.1122 108.879C49.5392 108.879 51.0477 110.693 51.0477 113.106C51.0477 115.519 49.6011 117.508 46.9933 117.508ZM47.0932 109.489C45.2944 109.489 44.7852 111.421 44.7852 113.068C44.7852 115.119 45.4657 116.875 47.0932 116.875C48.6351 116.875 49.3298 115.143 49.3298 113.092C49.3298 111.302 48.7731 109.489 47.0932 109.489ZM62.3736 117.256V116.709C62.6201 116.692 62.8651 116.657 63.1064 116.604C63.2564 116.551 63.3833 116.447 63.4657 116.311C63.5481 116.175 63.5808 116.014 63.5585 115.857V111.635C63.5585 110.479 62.9684 109.836 62.188 109.836C61.7659 109.837 61.3517 109.951 60.9879 110.165C60.6242 110.379 60.3239 110.686 60.1179 111.055V115.771C60.1005 115.929 60.134 116.089 60.2136 116.227C60.2932 116.365 60.4147 116.474 60.5605 116.537C60.7981 116.631 61.0483 116.689 61.3028 116.709V117.247H57.4054V116.709C57.6395 116.693 57.8719 116.658 58.1002 116.604C58.2546 116.555 58.3869 116.454 58.4739 116.317C58.5608 116.18 58.597 116.017 58.5761 115.857V111.635C58.5761 110.479 57.986 109.836 57.2056 109.836C56.7816 109.839 56.3661 109.956 56.0022 110.173C55.6382 110.391 55.339 110.702 55.1355 111.074V115.757C55.1239 115.918 55.1637 116.078 55.2493 116.215C55.3348 116.352 55.4616 116.458 55.6114 116.518C55.8522 116.626 56.1098 116.69 56.3728 116.709V117.247H52.404V116.709C52.6553 116.693 52.9051 116.658 53.1511 116.604C53.3055 116.555 53.4378 116.454 53.5248 116.317C53.6118 116.18 53.6479 116.017 53.627 115.857V110.793C53.6212 110.624 53.575 110.459 53.4922 110.311C53.4094 110.164 53.2924 110.038 53.1511 109.946C52.882 109.807 52.5871 109.726 52.285 109.708V109.165L55.0165 108.998L55.1355 109.117V110.269H55.1878C55.8493 109.622 56.4584 108.841 57.9194 108.841C58.3883 108.836 58.8477 108.973 59.2375 109.234C59.6272 109.495 59.9291 109.867 60.1036 110.303C60.7984 109.641 61.4599 108.841 62.9208 108.841C64.5007 108.841 65.1622 109.998 65.1622 111.607V115.762C65.1444 115.919 65.1772 116.079 65.2559 116.216C65.3346 116.354 65.4551 116.463 65.6 116.528C65.8573 116.622 66.1263 116.679 66.3995 116.699V117.237L62.3736 117.256ZM71.4152 117.48C68.7503 117.48 67.513 115.49 67.513 113.101C67.513 110.931 68.9407 108.86 71.2439 108.86C73.6708 108.86 74.575 110.507 74.575 112.373V112.901H69.1786C69.1786 114.986 69.9781 116.547 71.9101 116.547C73.095 116.547 73.6185 115.971 74.2133 114.972L74.7939 115.324C74.4928 115.962 74.018 116.503 73.4238 116.885C72.8297 117.266 72.1402 117.472 71.4342 117.48H71.4152ZM71.2296 109.489C70.1113 109.489 69.2262 110.474 69.1595 112.221H72.938C72.957 110.859 72.6382 109.489 71.2486 109.489H71.2296ZM91.0736 117.48C88.4135 117.48 87.1762 115.49 87.1762 113.101C87.1762 110.931 88.58 108.86 90.9023 108.86C93.3292 108.86 94.2334 110.507 94.2334 112.373V112.901H88.837C88.837 114.986 89.6365 116.547 91.5685 116.547C92.7534 116.547 93.2817 115.971 93.8765 114.972L94.4523 115.324C94.1517 115.963 93.677 116.504 93.0827 116.885C92.4884 117.267 91.7987 117.473 91.0926 117.48H91.0736ZM90.888 109.489C89.7697 109.489 88.8846 110.474 88.8179 112.221H92.6012C92.6202 110.859 92.2966 109.489 90.907 109.489H90.888ZM100.815 111.221C100.7 111.234 100.585 111.222 100.475 111.188C100.366 111.153 100.265 111.095 100.179 111.019C100.092 110.943 100.023 110.85 99.9755 110.745C99.9277 110.64 99.9024 110.527 99.9011 110.412C99.9003 110.204 99.939 109.997 100.015 109.803C99.154 109.803 98.4068 110.66 98.2022 111.031V115.79C98.1875 115.95 98.2263 116.11 98.3124 116.245C98.3985 116.38 98.5272 116.483 98.6781 116.537C99.0376 116.643 99.4081 116.707 99.7821 116.728V117.266H95.4754V116.709C95.7252 116.693 95.9734 116.658 96.2178 116.604C96.3722 116.555 96.5045 116.454 96.5915 116.317C96.6785 116.18 96.7146 116.017 96.6937 115.857V110.831C96.6869 110.652 96.6408 110.477 96.5585 110.318C96.4762 110.16 96.3599 110.021 96.2178 109.912C95.9597 109.785 95.6773 109.715 95.3898 109.708V109.165L98.1023 108.998L98.2212 109.117V110.255H98.2545C98.5121 109.873 98.8509 109.553 99.2466 109.318C99.6423 109.083 100.085 108.938 100.544 108.894C100.707 108.888 100.87 108.917 101.022 108.978C101.173 109.04 101.31 109.134 101.423 109.253C101.535 109.372 101.621 109.513 101.675 109.668C101.728 109.823 101.748 109.987 101.733 110.15C101.75 110.281 101.739 110.413 101.702 110.539C101.665 110.665 101.602 110.782 101.518 110.883C101.433 110.983 101.329 111.065 101.211 111.123C101.094 111.182 100.965 111.215 100.834 111.221H100.815ZM109.381 110.574C108.686 112.202 108.058 113.577 107.296 115.429C107.018 116.045 106.786 116.681 106.601 117.332H105.94C104.698 114.201 104.327 113.377 103.137 110.521C102.913 110.012 102.661 109.698 102.223 109.655V109.094H105.631V109.67C105.24 109.67 104.646 109.774 104.646 110.027C104.646 110.06 104.712 110.231 104.765 110.398L106.73 115.2C107.139 114.248 107.834 112.606 108.462 111.059C108.584 110.804 108.665 110.531 108.7 110.25C108.7 109.86 107.834 109.655 107.563 109.617V109.094H110.461V109.57C110.209 109.625 109.977 109.748 109.789 109.925C109.602 110.101 109.465 110.326 109.395 110.574H109.381ZM111.246 117.237V116.709C111.497 116.693 111.747 116.658 111.993 116.604C112.147 116.555 112.28 116.454 112.367 116.317C112.454 116.18 112.49 116.017 112.469 115.857V110.831C112.464 110.659 112.418 110.491 112.335 110.34C112.253 110.19 112.135 110.061 111.993 109.965C111.679 109.811 111.338 109.724 110.989 109.708V109.165L113.873 108.998L113.992 109.117V115.781C113.977 115.942 114.016 116.104 114.102 116.242C114.187 116.379 114.316 116.485 114.468 116.542C114.705 116.641 114.955 116.705 115.21 116.733V117.27L111.246 117.237ZM113.083 107.242C112.831 107.234 112.593 107.125 112.421 106.942C112.249 106.758 112.157 106.513 112.164 106.262C112.158 106.008 112.25 105.762 112.421 105.574C112.592 105.387 112.83 105.273 113.083 105.258C113.211 105.257 113.339 105.283 113.457 105.334C113.576 105.384 113.682 105.458 113.771 105.551C113.86 105.644 113.93 105.754 113.975 105.875C114.02 105.995 114.04 106.124 114.035 106.252C114.048 106.382 114.034 106.514 113.993 106.638C113.951 106.762 113.884 106.875 113.795 106.971C113.707 107.067 113.598 107.143 113.478 107.194C113.358 107.245 113.228 107.269 113.097 107.266L113.083 107.242ZM120.069 117.456C117.561 117.456 116.29 115.59 116.29 113.111C116.29 110.888 117.799 108.827 120.173 108.827C121.967 108.827 122.886 109.779 122.886 110.964C122.886 111.526 122.648 112.016 122.039 112.016C121.43 112.016 121.001 111.626 121.001 111.221C121.042 110.769 121.117 110.32 121.225 109.879C121.095 109.72 120.927 109.598 120.736 109.524C120.545 109.45 120.338 109.426 120.135 109.455C119.122 109.455 118.003 110.369 118.003 113.034C118.003 115.038 118.955 116.528 120.478 116.528C121.563 116.528 122.205 115.985 122.819 114.967L123.362 115.324C123.051 115.938 122.585 116.461 122.01 116.839C121.435 117.217 120.77 117.438 120.083 117.48L120.069 117.456ZM128.363 117.456C125.698 117.456 124.461 115.467 124.461 113.077C124.461 110.907 125.889 108.837 128.192 108.837C130.619 108.837 131.523 110.483 131.523 112.349V112.901H126.122C126.122 114.986 126.921 116.547 128.853 116.547C130.038 116.547 130.566 115.971 131.157 114.972L131.737 115.324C131.436 115.962 130.961 116.503 130.367 116.885C129.773 117.266 129.083 117.472 128.377 117.48L128.363 117.456ZM128.178 109.465C127.055 109.465 126.174 110.45 126.108 112.197H129.891C129.905 110.859 129.581 109.489 128.192 109.489L128.178 109.465ZM136.21 117.48C135.429 117.47 134.67 117.215 134.04 116.752L133.869 117.275H133.26L133.174 114.443H133.736C133.94 115.324 134.821 116.823 136.329 116.823C137.395 116.823 137.99 116.314 137.99 115.433C137.99 114.553 137.243 114.143 135.887 113.739C134.754 113.401 133.379 112.787 133.379 111.245C133.379 109.903 134.445 108.865 136.125 108.865C136.75 108.86 137.366 109.006 137.923 109.289L138.109 108.846H138.704L138.842 111.478H138.261C138.062 110.479 137.367 109.493 136.11 109.493C135.211 109.493 134.649 110.022 134.649 110.664C134.649 111.649 135.33 111.887 136.72 112.344C138.228 112.82 139.265 113.43 139.265 114.905C139.27 116.495 137.909 117.48 136.21 117.48ZM84.8634 0.396729C80.5339 0.396729 76.3017 1.68076 72.7018 4.08646C69.102 6.49216 66.2963 9.91147 64.6395 13.912C62.9826 17.9125 62.5491 22.3146 63.3938 26.5616C64.2384 30.8085 66.3233 34.7096 69.3847 37.7714C72.4461 40.8333 76.3466 42.9185 80.5928 43.7632C84.8391 44.608 89.2405 44.1744 93.2405 42.5174C97.2404 40.8603 100.659 38.0541 103.065 34.4537C105.47 30.8534 106.754 26.6205 106.754 22.2903C106.751 16.4863 104.444 10.9207 100.34 6.81705C96.2366 2.7134 90.6714 0.407511 84.8682 0.40625L84.8634 0.396729ZM84.8634 43.075C80.7523 43.075 76.7335 41.8557 73.3152 39.5713C69.8969 37.2869 67.2327 34.0401 65.6595 30.2413C64.0862 26.4426 63.6746 22.2625 64.4766 18.2298C65.2786 14.197 67.2583 10.4927 70.1653 7.58524C73.0723 4.67779 76.7761 2.6978 80.8082 1.89563C84.8404 1.09347 89.0198 1.50517 92.818 3.07867C96.6162 4.65217 99.8625 7.3168 102.147 10.7356C104.431 14.1544 105.65 18.1738 105.65 22.2856C105.645 27.7978 103.454 33.083 99.5582 36.982C95.6624 40.8811 90.3795 43.0757 84.8682 43.0845L84.8634 43.075ZM101.338 27.5733C101.459 27.5733 101.578 27.5374 101.679 27.4702C101.78 27.4029 101.858 27.3073 101.905 27.1954C101.952 27.0835 101.964 26.9603 101.941 26.8413C101.917 26.7224 101.859 26.613 101.774 26.5269C101.689 26.4409 101.58 26.382 101.461 26.3578C101.342 26.3336 101.219 26.345 101.107 26.3908C100.994 26.4365 100.898 26.5145 100.83 26.6148C100.762 26.7151 100.725 26.8334 100.724 26.9546C100.723 27.0367 100.738 27.1181 100.769 27.1943C100.799 27.2705 100.845 27.3398 100.902 27.3983C100.96 27.4567 101.028 27.5032 101.104 27.5349C101.18 27.5666 101.261 27.5829 101.343 27.5829L101.338 27.5733ZM68.3886 27.5733C68.51 27.5733 68.6287 27.5373 68.7297 27.4699C68.8306 27.4024 68.9093 27.3065 68.9558 27.1943C69.0022 27.0821 69.0144 26.9587 68.9907 26.8396C68.967 26.7205 68.9086 26.6111 68.8227 26.5252C68.7369 26.4394 68.6275 26.3809 68.5084 26.3572C68.3893 26.3335 68.2659 26.3457 68.1537 26.3921C68.0415 26.4386 67.9457 26.5173 67.8782 26.6183C67.8108 26.7192 67.7747 26.8379 67.7747 26.9594C67.7735 27.0412 67.7886 27.1225 67.8192 27.1984C67.8497 27.2743 67.8952 27.3433 67.9528 27.4014C68.0104 27.4595 68.0791 27.5054 68.1548 27.5366C68.2304 27.5678 68.3116 27.5835 68.3934 27.5829L68.3886 27.5733ZM68.9311 22.8139L66.6374 22.7568L66.6707 21.5526C66.6626 21.4696 66.6722 21.3859 66.6988 21.3069C66.7254 21.2279 66.7685 21.1554 66.8252 21.0943C66.8818 21.0331 66.9508 20.9847 67.0275 20.9521C67.1042 20.9195 67.187 20.9036 67.2703 20.9053C67.3905 20.9019 67.5081 20.9411 67.6021 21.016C67.6962 21.0909 67.7607 21.1967 67.7843 21.3146C67.8134 21.1876 67.887 21.0751 67.9916 20.9975C68.0963 20.9198 68.2253 20.8821 68.3553 20.891C68.442 20.8887 68.5281 20.9054 68.6077 20.9399C68.6872 20.9744 68.7583 21.0259 68.8158 21.0907C68.8734 21.1555 68.9161 21.2322 68.941 21.3153C68.9658 21.3983 68.9722 21.4858 68.9597 21.5716L68.9311 22.8139ZM67.3417 21.4098C67.308 21.4084 67.2744 21.4141 67.243 21.4266C67.2117 21.4391 67.1834 21.4582 67.16 21.4825C67.1366 21.5068 67.1186 21.5358 67.1073 21.5676C67.096 21.5994 67.0915 21.6332 67.0943 21.6668V22.2808H67.5701V21.6668C67.5748 21.6343 67.5726 21.6012 67.5636 21.5696C67.5546 21.538 67.5391 21.5086 67.518 21.4835C67.4968 21.4583 67.4706 21.4379 67.4411 21.4236C67.4115 21.4092 67.3793 21.4013 67.3465 21.4003L67.3417 21.4098ZM68.2934 21.386C68.2564 21.3844 68.2194 21.3909 68.185 21.4049C68.1507 21.419 68.1198 21.4403 68.0945 21.4674C68.0691 21.4946 68.05 21.5269 68.0383 21.5621C68.0267 21.5974 68.0228 21.6347 68.027 21.6716V22.3046H68.5504V21.6716C68.5362 21.5193 68.4457 21.3813 68.2792 21.3765L68.2934 21.386ZM69.1548 19.7297L66.9134 19.2538L67.2513 17.6689L67.6701 17.7593L67.4369 18.8683L67.9128 18.9682L68.1459 17.883L68.5647 17.9735L68.3315 19.0586L68.8407 19.1681L69.0786 18.0591L69.4974 18.1496L69.1548 19.7297ZM70.354 15.7889L69.4308 15.8888L69.2928 16.2172L70.0399 16.5361L69.8543 16.9835L67.7414 16.0982L68.1554 15.1083C68.1871 15.0124 68.2386 14.9243 68.3066 14.8497C68.3746 14.7751 68.4575 14.7157 68.55 14.6753C68.6425 14.6349 68.7425 14.6144 68.8434 14.6152C68.9443 14.616 69.0439 14.6381 69.1357 14.6799C69.2812 14.7332 69.4035 14.8356 69.4817 14.9693C69.5599 15.1031 69.589 15.26 69.564 15.4129L70.5729 15.2701L70.354 15.7889ZM68.9264 15.1416C68.8868 15.1259 68.8444 15.1185 68.8019 15.12C68.7594 15.1214 68.7176 15.1316 68.6792 15.1499C68.6408 15.1682 68.6066 15.1943 68.5787 15.2264C68.5508 15.2586 68.5298 15.2961 68.5171 15.3367L68.3172 15.8127L68.8883 16.0554L69.0834 15.5795C69.1055 15.5401 69.1189 15.4964 69.1226 15.4514C69.1263 15.4064 69.1203 15.3612 69.105 15.3187C69.0896 15.2762 69.0653 15.2376 69.0336 15.2054C69.002 15.1732 68.9638 15.1482 68.9216 15.1321L68.9264 15.1416ZM71.8673 13.1188L70.7157 13.1902L70.7966 13.4567L71.3866 13.847L71.1154 14.2516L69.2119 12.9903L69.4831 12.581L70.335 13.1474L69.9305 11.9051L70.2636 11.4054L70.6586 12.7571L72.2099 12.6191L71.8673 13.1188ZM72.505 11.7433L72.4145 11.2674C72.5505 11.2678 72.6852 11.2406 72.8103 11.1874C72.9355 11.1342 73.0485 11.0562 73.1426 10.958C73.3282 10.7629 73.333 10.5868 73.233 10.4821C72.9475 10.2013 72.2385 11.3483 71.6151 10.7534C71.5457 10.6751 71.493 10.5836 71.4601 10.4844C71.4272 10.3851 71.4148 10.2802 71.4237 10.1761C71.4326 10.0719 71.4626 9.97061 71.5118 9.8784C71.5611 9.78618 71.6286 9.70494 71.7102 9.63963C71.9291 9.3948 72.2345 9.24463 72.562 9.2208L72.6382 9.66819C72.3925 9.68727 72.1623 9.79562 71.991 9.9728C71.8482 10.1203 71.834 10.2679 71.9339 10.3631C72.1909 10.6106 72.9285 9.49685 73.5471 10.087C73.8469 10.3774 73.866 10.8152 73.4424 11.2579C73.3263 11.3974 73.1827 11.5116 73.0206 11.5935C72.8586 11.6754 72.6814 11.7231 72.5002 11.7338L72.505 11.7433ZM76.1835 8.95903L75.6267 8.1642L74.7416 8.78769L75.2983 9.57776L74.8986 9.85857L73.5804 7.98333L73.9802 7.70253L74.4989 8.44025L75.384 7.81676L74.87 7.07904L75.2698 6.79823L76.5832 8.67346L76.1835 8.95903ZM77.7253 8.07852L76.726 6.00339L77.1638 5.79398L78.1631 7.85483L77.7253 8.07852ZM80.5806 6.96956L79.9143 6.32228L79.5669 6.42698L79.8096 7.20754L79.3338 7.35032L78.658 5.16097L79.6811 4.84684C79.7745 4.80982 79.8746 4.79292 79.975 4.79725C80.0753 4.80158 80.1736 4.82704 80.2634 4.87196C80.3532 4.91688 80.4326 4.98026 80.4963 5.05794C80.5599 5.13563 80.6065 5.22588 80.6329 5.32279C80.6871 5.46786 80.6886 5.62734 80.6373 5.77345C80.586 5.91956 80.4851 6.04304 80.3521 6.12238L81.1088 6.80299L80.5806 6.96956ZM80.1665 5.46558C80.1534 5.4248 80.1319 5.38719 80.1035 5.35514C80.0751 5.3231 80.0403 5.29731 80.0014 5.27941C79.9624 5.26151 79.9202 5.2519 79.8774 5.25117C79.8345 5.25045 79.792 5.25862 79.7525 5.27519L79.2766 5.4275L79.4575 6.01767L79.9334 5.86537C79.9765 5.85602 80.0171 5.8374 80.0523 5.81081C80.0876 5.78421 80.1166 5.75027 80.1374 5.71133C80.1583 5.6724 80.1704 5.6294 80.1729 5.58532C80.1755 5.54124 80.1684 5.49714 80.1523 5.45605L80.1665 5.46558ZM82.2604 6.58405L81.9939 4.30426L83.6071 4.11388L83.6547 4.54224L82.5269 4.6755L82.584 5.15145L83.688 5.02294L83.7356 5.4513L82.6363 5.5798L82.6982 6.09859L83.8213 5.96532L83.8736 6.39367L82.2604 6.58405ZM88.3088 6.74111L88.4848 5.78922L87.4189 5.59408L87.2428 6.54597L86.7669 6.4603L87.1809 4.20431L87.6568 4.29474L87.495 5.18L88.5562 5.37514L88.7228 4.48988L89.1986 4.57555L88.7846 6.83154L88.3088 6.74111ZM91.4591 7.78344V7.36937L90.5501 6.99813L90.2694 7.30273L89.7554 7.09807L91.4353 5.30375L92.0016 5.53221L91.9587 7.9881L91.4591 7.78344ZM91.5447 5.87965L90.8452 6.6602L91.5066 6.92673L91.5447 5.87965ZM93.0818 8.65442L94.0621 7.07427L93.4958 6.71731L93.7195 6.35559L95.2756 7.30749L95.0471 7.67397L94.4809 7.31701L93.4958 8.90192L93.0818 8.65442ZM96.0703 10.9628L96.727 10.2536L95.9275 9.52064L95.2851 10.2108L94.9234 9.88237L96.4748 8.19275L96.8364 8.52592L96.2273 9.18748L97.022 9.92045L97.6311 9.25411L97.9928 9.58728L96.4415 11.2769L96.0703 10.9628ZM98.1784 13.5186L98.4116 13.1759L97.8358 12.3763L97.436 12.4858L97.1124 12.0384L99.4918 11.4102L99.8487 11.9099L98.5115 13.966L98.1784 13.5186ZM99.2729 11.948L98.2641 12.2336L98.6781 12.8142L99.2729 11.948ZM99.6631 16.3362L100.943 15.3367L99.3443 15.6033L99.1349 15.1273L100.972 13.609L101.195 14.085L99.8345 15.1178L101.529 14.856L101.681 15.2035L100.32 16.2839L102 15.9888L102.219 16.4933L99.8392 16.8074L99.6631 16.3362ZM100.639 19.8344L100.996 19.6155L100.81 18.6636L100.401 18.597L100.291 18.0544L102.713 18.4732L102.828 19.0777L100.753 20.3865L100.639 19.8344ZM102.28 18.8825L101.243 18.7207L101.386 19.4204L102.28 18.8825ZM100.81 21.7953H101.762L103.099 20.891V21.4431L102.195 22.0286L103.123 22.5759V23.1327L101.752 22.2808H100.8L100.81 21.7953ZM69.9067 32.7897L70.7157 32.2614L70.1208 31.3571L69.3118 31.8854L69.0453 31.4761L70.9488 30.2196L71.2153 30.6289L70.4634 31.1049L71.0583 32.0139L71.8102 31.538L72.0814 31.9473L70.1779 33.2086L69.9067 32.7897ZM71.9244 33.5703C72.0917 33.4016 72.3054 33.2865 72.5382 33.2394C72.7711 33.1924 73.0127 33.2156 73.2324 33.3061C73.4521 33.3966 73.6399 33.5503 73.7721 33.7478C73.9043 33.9452 73.9748 34.1775 73.9748 34.4151C73.9748 34.6527 73.9043 34.885 73.7721 35.0824C73.6399 35.2798 73.4521 35.4336 73.2324 35.5241C73.0127 35.6146 72.7711 35.6378 72.5382 35.5907C72.3054 35.5437 72.0917 35.4286 71.9244 35.2599C71.8003 35.1533 71.7004 35.0213 71.6315 34.8728C71.5626 34.7244 71.5262 34.5629 71.5249 34.3993C71.5235 34.2356 71.5572 34.0736 71.6236 33.924C71.6901 33.7745 71.7878 33.6409 71.9101 33.5322L71.9244 33.5703ZM73.2616 34.9125C73.3507 34.8094 73.4077 34.6825 73.4257 34.5474C73.4437 34.4124 73.4219 34.275 73.3629 34.1521C73.3039 34.0293 73.2104 33.9264 73.0937 33.856C72.9771 33.7856 72.8424 33.7508 72.7063 33.7558C72.5701 33.7609 72.4384 33.8056 72.3274 33.8845C72.2163 33.9634 72.1306 34.073 72.0809 34.1999C72.0312 34.3267 72.0197 34.4654 72.0477 34.5987C72.0757 34.7321 72.142 34.8543 72.2385 34.9505C72.3084 35.0145 72.3907 35.0634 72.4803 35.0943C72.5699 35.1252 72.6648 35.1375 72.7593 35.1304C72.8538 35.1233 72.9459 35.0969 73.0298 35.0528C73.1137 35.0088 73.1877 34.9481 73.2473 34.8744L73.2616 34.9125ZM75.641 38.1156L76.5356 36.7211L75.108 37.7681L74.9319 37.6492L75.2841 35.9119L74.3894 37.3017L73.9754 37.0352L75.2174 35.1076L75.7933 35.4788L75.4887 36.9876L76.7307 36.0833L77.3065 36.4545L76.0693 38.3583L75.641 38.1156ZM77.5159 39.0675L78.3535 36.9305L79.862 37.5159L79.7097 37.9204L78.6485 37.5111L78.4724 37.9585L79.5098 38.3583L79.3528 38.7581L78.3201 38.3583L78.1298 38.8343L79.1862 39.2483L79.0292 39.6481L77.5159 39.0675ZM80.4283 39.7386L80.7661 39.4149C80.8394 39.5303 80.9354 39.6294 81.0484 39.7063C81.1613 39.7833 81.2887 39.8363 81.4228 39.8623C81.6846 39.9147 81.8369 39.8242 81.8607 39.691C81.9368 39.3007 80.5901 39.3197 80.7566 38.4725C80.784 38.3712 80.8321 38.2767 80.8977 38.1948C80.9634 38.113 81.0453 38.0456 81.1382 37.9968C81.2311 37.9481 81.3331 37.9192 81.4378 37.9117C81.5425 37.9043 81.6476 37.9186 81.7464 37.9538C82.0683 38.0031 82.3594 38.1733 82.5602 38.4297L82.2223 38.7391C82.0771 38.5403 81.8605 38.4055 81.618 38.3631C81.4133 38.3202 81.2848 38.3869 81.2563 38.5201C81.1849 38.8771 82.5221 38.8914 82.3603 39.729C82.2794 40.1431 81.9178 40.3954 81.3182 40.2764C81.1399 40.2469 80.9696 40.1815 80.8174 40.0841C80.6653 39.9868 80.5345 39.8595 80.433 39.71L80.4283 39.7386ZM83.6785 40.5572L83.7546 38.2679L85.3774 38.3202V38.7486L84.24 38.7105V39.1865L85.3488 39.2198V39.6481L84.24 39.6148V40.1336L85.3726 40.1717V40.6L83.6785 40.5572ZM88.1708 40.2954L87.5997 39.5625L87.2476 39.6196L87.376 40.4239L86.9002 40.5001L86.5385 38.2346L87.5949 38.0632C87.6931 38.0405 87.795 38.0385 87.894 38.0574C87.993 38.0763 88.087 38.1157 88.1699 38.173C88.2528 38.2304 88.3228 38.3045 88.3754 38.3905C88.428 38.4765 88.462 38.5725 88.4753 38.6724C88.5076 38.8236 88.4863 38.9813 88.4151 39.1185C88.3439 39.2556 88.2272 39.3638 88.0851 39.4244L88.7323 40.205L88.1708 40.2954ZM87.9757 38.7486C87.9685 38.706 87.9525 38.6655 87.9288 38.6294C87.905 38.5934 87.874 38.5628 87.8377 38.5395C87.8014 38.5162 87.7606 38.5007 87.718 38.4941C87.6754 38.4875 87.6318 38.4899 87.5902 38.5011L87.081 38.582L87.1762 39.1912L87.6854 39.1103C87.7323 39.1089 87.7783 39.0969 87.8199 39.0754C87.8616 39.0538 87.898 39.0232 87.9263 38.9858C87.9546 38.9483 87.9741 38.905 87.9835 38.8591C87.9929 38.8131 87.9918 38.7656 87.9804 38.72L87.9757 38.7486ZM90.7072 39.6386L89.0987 37.7443L89.6222 37.5587L90.8119 38.9866V37.1161L91.3306 36.9305L91.2687 39.3864L90.7072 39.6386ZM93.2579 38.5487L92.1729 36.5307L92.6059 36.3022L93.6862 38.3202L93.2579 38.5487ZM94.2096 36.6973C94.1123 36.5707 94.042 36.4256 94.0031 36.2708C93.9642 36.116 93.9575 35.9548 93.9833 35.7973C94.0092 35.6398 94.0672 35.4893 94.1535 35.3551C94.2399 35.2209 94.353 35.1059 94.4856 35.0172C94.6388 34.8954 94.8231 34.8193 95.0175 34.7974C95.2119 34.7755 95.4085 34.8088 95.5849 34.8934L95.3755 35.3122C95.2747 35.2644 95.1631 35.2441 95.052 35.2533C94.9409 35.2625 94.8341 35.3009 94.7426 35.3646C94.6635 35.424 94.5969 35.4983 94.5466 35.5835C94.4963 35.6686 94.4632 35.7628 94.4493 35.8607C94.4354 35.9586 94.4409 36.0582 94.4655 36.154C94.4901 36.2498 94.5333 36.3398 94.5927 36.4188C94.6521 36.4979 94.7264 36.5645 94.8115 36.6148C94.8966 36.6651 94.9908 36.6982 95.0887 36.7121C95.1866 36.726 95.2862 36.7205 95.382 36.6959C95.4777 36.6713 95.5677 36.6281 95.6468 36.5687C95.734 36.5008 95.8013 36.4105 95.8415 36.3075C95.8817 36.2044 95.8934 36.0924 95.8752 35.9833L96.351 35.8977C96.3832 36.0913 96.3601 36.29 96.2843 36.471C96.2085 36.6521 96.0832 36.808 95.9228 36.921C95.7967 37.0212 95.6514 37.0945 95.4959 37.1362C95.3403 37.178 95.1779 37.1873 95.0186 37.1637C94.8593 37.14 94.7065 37.0839 94.5698 36.9987C94.4331 36.9136 94.3154 36.8013 94.2239 36.6687L94.2096 36.6973ZM97.674 35.3503L95.9989 33.7845L97.1077 32.5993L97.4218 32.8944L96.6461 33.7226L96.9982 34.051L97.7549 33.2419L98.069 33.5322L97.3123 34.3461L97.693 34.703L98.4687 33.8701L98.7828 34.1652L97.674 35.3503ZM99.3491 32.9373L99.1777 32.5042C99.311 32.4791 99.4379 32.4274 99.5507 32.3521C99.6635 32.2769 99.76 32.1797 99.8345 32.0663C99.982 31.8378 99.9534 31.6665 99.8345 31.5903C99.4966 31.3762 99.0112 32.6279 98.2879 32.1615C98.2052 32.0972 98.1365 32.0168 98.0859 31.9251C98.0354 31.8334 98.004 31.7324 97.9938 31.6281C97.9835 31.5239 97.9946 31.4187 98.0264 31.3189C98.0581 31.2192 98.1098 31.1269 98.1784 31.0478C98.3483 30.7676 98.6191 30.5631 98.9351 30.4766L99.0921 30.9002C98.8542 30.9623 98.6495 31.1141 98.521 31.3238C98.4068 31.4952 98.4163 31.6427 98.521 31.7188C98.8208 31.914 99.3395 30.6813 100.053 31.1477C100.406 31.3809 100.529 31.8045 100.168 32.3185C99.9868 32.6127 99.6981 32.8245 99.3633 32.9087L99.3491 32.9373ZM80.7423 21.6859H76.9353V12.5857H80.6329C82.1747 12.5857 83.2121 13.5376 83.2121 14.9369C83.2243 15.3731 83.1021 15.8025 82.8621 16.1669C82.622 16.5313 82.2757 16.8131 81.8702 16.974C82.3133 17.1472 82.6944 17.4493 82.9641 17.8412C83.2339 18.2332 83.3799 18.697 83.3834 19.1729C83.412 20.6816 82.3698 21.6573 80.7566 21.6573L80.7423 21.6859ZM78.2155 20.5388H80.533C81.5133 20.5388 82.0986 19.9915 82.0986 19.0777C82.1029 18.876 82.0644 18.6757 81.9857 18.4899C81.907 18.3042 81.7898 18.1372 81.6419 18.0001C81.4939 17.8629 81.3186 17.7586 81.1275 17.6942C80.9363 17.6297 80.7337 17.6065 80.533 17.626H78.2202L78.2155 20.5388ZM78.2155 16.4742H80.4616C80.649 16.4972 80.8391 16.4791 81.0188 16.4212C81.1985 16.3632 81.3634 16.2667 81.502 16.1385C81.6406 16.0103 81.7496 15.8534 81.8214 15.6788C81.8932 15.5041 81.9261 15.316 81.9178 15.1273C81.9249 14.9382 81.8913 14.7497 81.8194 14.5747C81.7475 14.3996 81.6388 14.242 81.5008 14.1126C81.3627 13.9831 81.1986 13.8847 81.0193 13.8242C80.84 13.7636 80.6498 13.7421 80.4616 13.7613H78.2155V16.4742ZM92.9057 21.6573H91.6399V17.5689H86.9382V21.6573H85.6677V12.5857H86.9382V16.4219H91.6399V12.5857H92.9057V21.6573ZM84.202 32.4661H82.9361V28.3777H78.2297V32.4661H76.9639V23.385H78.2297V27.2307H82.9361V23.3993H84.202V32.4661ZM89.5318 32.6279C88.8836 32.6523 88.2377 32.5374 87.6377 32.2911C87.0376 32.0448 86.4973 31.6728 86.0531 31.2001L86.0103 31.1525L86.7764 30.1673L86.8383 30.2434C87.1811 30.6303 87.6025 30.9396 88.0744 31.1506C88.5462 31.3615 89.0577 31.4692 89.5746 31.4666C91.0641 31.4666 91.5923 30.7051 91.5923 29.9959C91.5923 29.0012 90.5454 28.7156 89.3319 28.392C87.9043 28.0112 86.3196 27.5781 86.3196 25.7981C86.3196 24.3131 87.6425 23.2327 89.4699 23.2327C90.0647 23.2125 90.6572 23.3159 91.2101 23.5363C91.763 23.7566 92.2641 24.0892 92.6821 24.513L92.7296 24.5653L91.9587 25.5172L91.8969 25.4459C91.5739 25.1039 91.1821 24.8342 90.7474 24.6545C90.3127 24.4749 89.8449 24.3893 89.3747 24.4035C88.3468 24.4035 87.6283 24.9556 87.6283 25.7409C87.6283 26.5263 88.58 26.8166 89.7078 27.1212C91.2068 27.5305 92.9009 27.9874 92.9009 29.9245C92.9057 31.2191 92.0111 32.6136 89.5318 32.6136V32.6279Z" fill="white"/>
<path d="M183.979 56.1731H183.022V99.4843H183.979V56.1731Z" fill="white"/>
<path d="M211.822 63.1934C211.579 62.2082 210.437 60.3996 209.476 60.2854C208.86 60.2176 208.24 60.1874 207.62 60.195H205.027V66.4156H206.792C208.158 66.4156 208.558 66.011 208.829 65.7207C209.205 65.1808 209.421 64.5456 209.452 63.8883H210.28V69.9709H209.452C209.402 69.2757 209.189 68.6021 208.829 68.0053C208.558 67.6911 208.177 67.3104 206.792 67.3104H205.027V72.6315C205.005 72.8591 205.053 73.088 205.164 73.2878C205.276 73.4875 205.445 73.6487 205.65 73.7499C206.154 73.9001 206.672 73.9989 207.197 74.045V74.8256H200.487V74.045C201.019 74.0229 201.548 73.9624 202.071 73.8642C202.28 73.773 202.453 73.6174 202.566 73.4204C202.679 73.2233 202.726 72.9952 202.7 72.7695V61.5847C202.729 61.3587 202.684 61.1292 202.57 60.9315C202.457 60.7338 202.281 60.5787 202.071 60.4901C201.564 60.2899 201.03 60.1617 200.487 60.1093V59.324H212.631V63.1934H211.822Z" fill="white"/>
<path d="M218.87 75.1635C216.12 75.1635 213.702 72.9693 213.702 69.4807C213.702 66.1014 215.829 63.7693 219.027 63.7693C222.225 63.7693 224.214 66.149 224.214 69.3379C224.214 72.5267 222.315 75.1635 218.87 75.1635ZM219.003 64.5832C216.624 64.5832 215.963 67.1295 215.963 69.2998C215.963 72.0079 216.857 74.3353 219.003 74.3353C221.04 74.3353 221.959 72.0508 221.959 69.3474C221.959 66.9724 221.216 64.5832 219.013 64.5832H219.003Z" fill="white"/>
<path d="M231.214 74.8254V74.1115C231.799 74.0448 232.399 73.9734 232.399 73.7069C232.33 73.4575 232.217 73.2223 232.066 73.012C231.728 72.498 231.057 71.4462 230.162 70.1563C229.406 71.1082 228.82 71.9459 228.107 72.9549C227.992 73.1174 227.908 73.2998 227.859 73.4927C227.859 73.9687 228.868 74.0972 229.115 74.1162V74.8254H225.132V74.1543C225.933 73.9516 226.648 73.4959 227.169 72.855C227.569 72.3409 228.554 71.0654 229.672 69.5709L226.988 65.7015C226.825 65.4049 226.581 65.161 226.284 64.9983C225.988 64.8356 225.651 64.7609 225.313 64.7829V64.0642H229.986V64.7829C229.539 64.7829 228.958 64.8257 228.958 65.0304C228.958 65.1399 229.044 65.2731 229.201 65.5063C229.472 65.9537 230.3 67.2055 231.038 68.3049C231.728 67.353 232.132 66.8057 232.87 65.73C232.939 65.6074 232.978 65.4705 232.984 65.3302C232.984 64.9685 232.247 64.8543 231.909 64.7686V64.0737H235.868V64.7448C235.052 64.9032 234.312 65.3285 233.765 65.9537C233.317 66.5153 232.623 67.4291 231.528 68.8855L234.383 73.0215C234.553 73.3437 234.806 73.6147 235.115 73.8063C235.425 73.998 235.78 74.1033 236.144 74.1115V74.8254H231.214Z" fill="white"/>
<path d="M255.26 66.6819C254.656 67.4006 253.985 69.6804 252.686 71.4033C253.313 72.1626 254.034 72.8391 254.832 73.4166C255.638 73.7987 256.514 74.0124 257.406 74.0448V74.8254H252.89L251.277 72.9692C250.249 74.0877 248.898 75.2061 246.994 75.2061C244.8 75.2061 242.521 73.9734 242.521 71.0654C242.521 69.0331 243.573 67.7337 245.895 66.2821C244.601 64.4925 244.02 63.7977 244.02 62.346C244.02 60.2661 245.809 58.9668 247.865 58.9668C250.282 58.9668 251.263 60.6231 251.263 62.0081C251.263 63.7739 250.125 64.9399 248.203 65.968C249.588 67.8242 250.663 68.9855 252.091 70.7275C252.985 69.3425 253.637 67.8194 253.637 66.7248C253.637 66.2488 252.9 66.0061 251.734 65.7729V64.9923H257.559V65.7824C256.911 65.8538 255.793 65.9918 255.26 66.6819ZM246.357 66.9056C245.824 67.2751 245.396 67.7761 245.114 68.3599C244.832 68.9436 244.706 69.5903 244.748 70.2372C244.748 72.1791 245.909 73.6783 247.856 73.6783C248.403 73.6928 248.947 73.579 249.442 73.346C249.938 73.1129 250.372 72.7671 250.711 72.3362C249.355 70.618 247.432 68.381 246.357 66.9056ZM247.946 59.9282C246.604 59.9282 246.114 61.2275 246.114 61.9415C246.114 62.9457 246.59 63.8453 247.722 65.3207C249.15 64.5116 249.845 63.5073 249.845 62.2318C249.845 60.7326 249.155 59.9282 247.946 59.9282Z" fill="white"/>
<path d="M274.942 74.8256C273.418 72.3988 271.768 70.0539 269.998 67.8006H268.432V72.7219C268.4 72.9513 268.445 73.1848 268.558 73.3868C268.671 73.5887 268.848 73.748 269.06 73.8404C269.56 73.9489 270.068 74.0173 270.578 74.045V74.8256H264.025V74.045C264.515 74.0155 265.002 73.9471 265.482 73.8404C265.69 73.743 265.862 73.5826 265.974 73.3818C266.086 73.1811 266.132 72.9502 266.105 72.7219V61.499C266.137 61.267 266.094 61.0308 265.981 60.8252C265.869 60.6196 265.694 60.4554 265.482 60.3568C265.005 60.2248 264.518 60.1356 264.025 60.0902V59.3049H271.164C273.714 59.3049 276.041 60.333 276.041 62.9983C276.041 65.4589 274.409 66.5298 272.234 67.1771C273.938 69.395 274.428 70.1327 276.041 72.2555C276.456 72.8738 277.017 73.3805 277.673 73.7309C278.128 73.9129 278.612 74.0129 279.101 74.026V74.8256H274.942ZM270.288 60.2187H268.432V66.882H269.86C271.873 66.882 273.372 65.516 273.372 63.2791C273.376 61.1135 271.987 60.2187 270.288 60.2187Z" fill="white"/>
<path d="M284.579 75.1635C281.828 75.1635 279.416 72.9693 279.416 69.4807C279.416 66.1014 281.538 63.7693 284.736 63.7693C287.934 63.7693 289.928 66.149 289.928 69.3379C289.928 72.5267 288.015 75.1635 284.579 75.1635ZM284.717 64.5832C282.337 64.5832 281.671 67.1295 281.671 69.2998C281.671 72.0079 282.566 74.3353 284.717 74.3353C286.749 74.3353 287.667 72.0508 287.667 69.3474C287.667 66.9724 286.93 64.5832 284.717 64.5832Z" fill="white"/>
<path d="M299.911 75.0492C298.774 75.0492 298.079 74.4876 297.898 73.4834H297.832C297.402 73.989 296.868 74.3948 296.265 74.6726C295.663 74.9505 295.007 75.0936 294.344 75.0921C293.98 75.1177 293.616 75.0666 293.274 74.942C292.931 74.8174 292.619 74.6221 292.358 74.3689C292.096 74.1157 291.89 73.8102 291.755 73.4723C291.619 73.1344 291.556 72.7717 291.569 72.4077C291.569 70.6182 292.668 69.8614 293.83 69.414C295.129 68.9 296.87 68.4621 297.856 67.9386V66.8629C297.856 66.4393 297.698 64.5593 295.8 64.5593C295.237 64.5257 294.684 64.7098 294.253 65.0734C294.253 65.4303 294.458 65.9444 294.458 66.5012C294.458 67.0581 293.982 67.5055 293.159 67.5055C292.335 67.5055 292.107 66.901 292.107 66.2537C292.107 64.8687 294.21 63.7502 295.914 63.7502C298.193 63.7502 299.892 64.3309 299.892 67.3056C299.892 69.3855 299.826 70.7705 299.826 72.6981C299.803 72.923 299.848 73.1496 299.956 73.3483C300.064 73.547 300.229 73.7085 300.43 73.8118C300.83 73.9258 301.248 73.9645 301.663 73.926V74.6209C301.108 74.8639 300.515 75.0088 299.911 75.0492ZM293.763 72.1412C293.763 73.3501 294.477 73.8879 295.438 73.8879C296.647 73.8879 297.275 73.2168 297.817 72.6314L297.884 68.8524C295.562 69.5473 293.772 70.2612 293.772 72.1412H293.763Z" fill="white"/>
<path d="M307.749 75.1159C304.418 75.1159 302.762 72.6552 302.762 69.4045C302.762 66.4727 304.756 63.7693 307.887 63.7693C310.266 63.7693 311.465 65.0448 311.465 66.5869C311.465 67.3246 311.151 67.9719 310.347 67.9719C309.543 67.9719 308.981 67.4579 308.981 66.9201C309.035 66.3252 309.132 65.7351 309.272 65.1543C309.005 64.7069 308.444 64.5974 307.844 64.5974C306.502 64.5974 305.027 65.8016 305.027 69.3141C305.027 71.9556 306.278 73.9213 308.291 73.9213C309.719 73.9213 310.576 73.2073 311.38 71.8652L312.094 72.3411C311.242 73.8737 309.586 75.1159 307.749 75.1159Z" fill="white"/>
<path d="M319.336 74.8253V74.1114C319.69 74.0925 320.042 74.0463 320.388 73.9734C320.587 73.9049 320.755 73.7698 320.865 73.5911C320.976 73.4124 321.02 73.201 320.993 72.9929V67.4434C320.993 65.9203 320.165 65.0636 319.137 65.0636C318.566 65.0573 318.005 65.2058 317.512 65.4933C317.019 65.7808 316.614 66.1965 316.338 66.6962V72.8835C316.317 73.0913 316.365 73.3003 316.474 73.4783C316.583 73.6564 316.748 73.7935 316.943 73.8687C317.277 74.0099 317.633 74.0936 317.995 74.1162V74.8253H312.717V74.1114C313.049 74.0928 313.378 74.0466 313.702 73.9734C313.901 73.9049 314.069 73.7698 314.179 73.5911C314.29 73.4124 314.334 73.201 314.306 72.9929V60.4422C314.307 60.1945 314.254 59.9496 314.149 59.7251C314.045 59.5005 313.892 59.3017 313.702 59.1429C313.221 58.9692 312.714 58.879 312.203 58.8763V58.1672L316.186 57.9197L316.338 58.0767V65.592H316.386C317.233 64.7638 318.128 63.7596 320.05 63.7596C322.135 63.7596 323.048 65.1874 323.048 67.3149V72.9215C323.025 73.1265 323.069 73.3334 323.174 73.5111C323.279 73.6887 323.438 73.8276 323.629 73.9068C323.944 74.031 324.276 74.1064 324.614 74.1305V74.8253H319.336Z" fill="white"/>
<path d="M326.718 78.695L326.204 77.9573C327.436 77.2053 328.464 76.2534 328.688 74.8255H328.126C326.965 74.8255 326.561 74.1116 326.561 73.3977C326.573 73.0396 326.726 72.7007 326.986 72.4541C327.245 72.2074 327.592 72.0729 327.95 72.0793C329.292 72.0793 329.825 73.0312 329.825 74.4591C329.825 76.5009 327.769 78.1143 326.718 78.695Z" fill="white"/>
<path d="M216.338 99.0988C214.816 96.6721 213.167 94.3272 211.398 92.0738H209.828V96.9951C209.796 97.2245 209.841 97.458 209.954 97.66C210.067 97.8619 210.244 98.0212 210.456 98.1136C210.956 98.2221 211.464 98.2905 211.974 98.3182V99.0988H205.421V98.3182C205.911 98.2887 206.398 98.2203 206.878 98.1136C207.086 98.0162 207.258 97.8557 207.37 97.655C207.482 97.4542 207.528 97.2234 207.501 96.9951V85.7722C207.533 85.5402 207.49 85.304 207.377 85.0984C207.265 84.8928 207.09 84.7286 206.878 84.63C206.401 84.498 205.914 84.4088 205.421 84.3634V83.5781H212.56C215.11 83.5781 217.437 84.6062 217.437 87.2715C217.437 89.7321 215.805 90.803 213.63 91.4503C215.334 93.6682 215.824 94.4059 217.437 96.5287C217.852 97.147 218.413 97.6537 219.069 98.0041C219.524 98.1861 220.008 98.2861 220.497 98.2992V99.0988H216.338ZM211.684 84.4919H209.828V91.1552H211.256C213.269 91.1552 214.768 89.7892 214.768 87.5523C214.772 85.3867 213.383 84.4919 211.684 84.4919Z" fill="white"/>
<path d="M233.851 99.0988H221.002V98.3182C221.537 98.2816 222.068 98.2052 222.591 98.0898C222.798 97.9968 222.97 97.8409 223.083 97.6443C223.196 97.4477 223.244 97.2205 223.22 96.9951V85.8579C223.248 85.632 223.202 85.4028 223.089 85.2053C222.976 85.0077 222.801 84.8526 222.591 84.7632C222.082 84.5625 221.547 84.4344 221.002 84.3825V83.5972H232.989V87.3334H232.185C231.919 86.3481 230.8 84.6728 229.858 84.5586C229.235 84.4907 228.609 84.4605 227.983 84.4682H225.542V90.6222H227.288C228.63 90.6222 228.921 90.2652 229.192 89.9273C229.538 89.3702 229.76 88.7453 229.844 88.0949H230.648V94.1537H229.844C229.778 93.4576 229.555 92.7855 229.192 92.188C228.925 91.8739 228.635 91.5169 227.288 91.5169H225.542V96.1669C225.542 98.0041 225.923 98.204 228.183 98.204C229.344 98.204 231.091 98.2468 231.628 97.69C232.372 96.737 232.96 95.6719 233.37 94.5345H234.155L233.851 99.0988Z" fill="white"/>
<path d="M243.711 99.0988V98.3183C244.429 98.2707 245.705 98.0898 245.705 97.69C245.698 97.5279 245.667 97.3676 245.614 97.2141L244.315 93.7254H238.881C238.571 94.5535 238.257 95.4055 238.053 96.1051C237.917 96.5018 237.836 96.9148 237.81 97.3331C237.81 98.0518 239.328 98.2517 240.047 98.285V99.0988H234.208V98.3183C234.708 98.2912 235.195 98.153 235.635 97.9137C236.175 97.5577 236.577 97.0291 236.777 96.4145C238.362 92.5022 240.175 87.7142 241.874 83.3735H242.749L247.913 96.7524C248.088 97.2479 248.423 97.6714 248.864 97.9566C249.284 98.1634 249.74 98.2862 250.206 98.3183V99.0988H243.711ZM241.588 86.7528L239.285 92.7688H243.939L241.588 86.7528Z" fill="white"/>
<path d="M262.836 99.0988H250.734V98.3182C251.224 98.2891 251.711 98.2206 252.191 98.1136C252.399 98.0168 252.572 97.8565 252.684 97.6556C252.796 97.4547 252.841 97.2235 252.814 96.9951V85.9008C252.839 85.6726 252.793 85.4424 252.681 85.2419C252.569 85.0415 252.398 84.8808 252.191 84.7823C251.728 84.5762 251.237 84.4413 250.734 84.3825V83.5972H257.268V84.3825C256.762 84.429 256.26 84.5182 255.769 84.649C255.555 84.7463 255.379 84.91 255.265 85.1159C255.152 85.3217 255.109 85.5586 255.141 85.7913V96.1908C255.141 98.0707 255.365 98.2468 257.668 98.2468C258.767 98.2468 260.085 98.1374 260.523 97.6662C261.281 96.696 261.906 95.6283 262.379 94.4916H263.159L262.836 99.0988Z" fill="white"/>
<path d="M275.166 87.8045C274.923 86.8193 273.738 84.6728 272.786 84.5395C272.192 84.4737 271.595 84.4435 270.997 84.4491H270.35V96.8238C270.333 97.0627 270.391 97.3009 270.516 97.5055C270.64 97.7101 270.825 97.871 271.045 97.966C271.636 98.132 272.242 98.2451 272.853 98.3039V99.0988H265.544V98.3182C266.146 98.2837 266.744 98.201 267.333 98.0707C267.557 97.9889 267.747 97.8341 267.872 97.6312C267.997 97.4283 268.05 97.1891 268.023 96.9523V84.4491H267.4C266.794 84.4468 266.189 84.477 265.586 84.5395C264.635 84.6728 263.464 86.8193 263.207 87.8045H262.422V83.5972H275.932V87.8045H275.166Z" fill="white"/>
<path d="M284.441 99.4796C280.124 99.4796 276.993 96.0575 276.993 91.3599C276.993 86.4148 280.415 83.2402 284.441 83.2402C288.557 83.2402 291.888 86.4148 291.888 91.3599C291.888 96.305 288.443 99.4796 284.441 99.4796ZM284.441 84.2017C280.929 84.2017 279.634 87.6904 279.634 91.3409C279.634 95.3912 281.176 98.4801 284.441 98.4801C287.705 98.4801 289.252 95.3483 289.252 91.3409C289.252 87.0669 287.572 84.2017 284.441 84.2017Z" fill="white"/>
<path d="M304.751 99.0988C303.227 96.672 301.577 94.3271 299.807 92.0738H298.241V96.9951C298.209 97.224 298.253 97.4571 298.365 97.6589C298.478 97.8608 298.653 98.0204 298.864 98.1136C299.366 98.2217 299.875 98.2901 300.387 98.3182V99.0988H293.834V98.3182C294.325 98.2887 294.811 98.2203 295.291 98.1136C295.499 98.0162 295.671 97.8557 295.783 97.655C295.895 97.4542 295.941 97.2234 295.914 96.9951V85.7722C295.946 85.5402 295.903 85.304 295.79 85.0984C295.678 84.8928 295.503 84.7286 295.291 84.63C294.814 84.498 294.327 84.4088 293.834 84.3634V83.5781H300.973C303.523 83.5781 305.85 84.6062 305.85 87.2715C305.85 89.7321 304.213 90.803 302.067 91.4503C303.766 93.6682 304.261 94.4059 305.85 96.5287C306.265 97.147 306.826 97.6537 307.483 98.0041C307.937 98.1866 308.421 98.2866 308.91 98.2992V99.0988H304.751ZM300.097 84.4919H298.241V91.1552H299.669C301.682 91.1552 303.181 89.7892 303.181 87.5523C303.185 85.3867 301.815 84.4919 300.097 84.4919Z" fill="white"/>
<path d="M314.858 99.4128C313.495 99.3917 312.162 99.0143 310.99 98.3181L310.514 99.0987H309.643L309.486 93.7966H310.38C311.075 96.2573 312.417 98.4704 315.077 98.4704C317.138 98.4704 318.009 97.3758 318.009 95.7433C317.999 95.0993 317.795 94.4733 317.424 93.9469C317.053 93.4205 316.532 93.0181 315.929 92.7924C314.63 92.2784 313.94 92.0737 312.708 91.5168C310.985 90.7315 309.933 89.5036 309.933 87.4665C309.933 85.0868 312.084 83.2639 314.63 83.2639C315.865 83.2809 317.069 83.6526 318.099 84.3348L318.546 83.5971H319.422L319.513 88.7421H318.618C317.971 86.3623 317.119 84.2015 314.502 84.2015C314.185 84.1849 313.869 84.2316 313.571 84.339C313.272 84.4464 312.999 84.6122 312.766 84.8268C312.532 85.0414 312.345 85.3004 312.213 85.5886C312.081 85.8768 312.008 86.1884 311.998 86.5051C311.998 87.8473 312.622 88.6754 313.831 89.2561C314.906 89.7701 315.891 90.0605 316.871 90.5078C318.685 91.2932 320.16 92.2784 320.16 94.6914C320.136 97.4662 317.88 99.4128 314.858 99.4128Z" fill="white"/>
<path d="M323.705 88.4565C323.219 88.4565 322.743 88.3122 322.339 88.0421C321.934 87.7719 321.619 87.3879 321.432 86.9385C321.246 86.4892 321.197 85.9947 321.292 85.5175C321.386 85.0403 321.62 84.6019 321.964 84.2575C322.307 83.9132 322.745 83.6785 323.222 83.583C323.699 83.4875 324.193 83.5356 324.643 83.7211C325.093 83.9066 325.477 84.2213 325.748 84.6253C326.019 85.0293 326.164 85.5046 326.165 85.991C326.163 86.6433 325.903 87.2682 325.442 87.7299C324.981 88.1916 324.357 88.4527 323.705 88.4565ZM323.705 83.7827C323.265 83.776 322.832 83.9007 322.463 84.1408C322.094 84.3809 321.804 84.7255 321.632 85.1307C321.459 85.5359 321.411 85.9833 321.493 86.416C321.576 86.8487 321.785 87.2469 322.095 87.5601C322.405 87.8732 322.801 88.0871 323.232 88.1743C323.664 88.2615 324.112 88.2182 324.519 88.0499C324.926 87.8816 325.274 87.5959 325.518 87.2292C325.762 86.8626 325.891 86.4315 325.889 85.991C325.891 85.7025 325.836 85.4164 325.727 85.1492C325.618 84.882 325.458 84.6388 325.255 84.4337C325.052 84.2286 324.811 84.0655 324.545 83.9538C324.279 83.842 323.993 83.7839 323.705 83.7827ZM324.509 87.2713C324.162 86.7954 323.967 86.5384 323.648 86.1481H323.358V86.8763C323.352 86.9169 323.361 86.9582 323.383 86.9929C323.404 87.0277 323.438 87.0538 323.476 87.0667C323.566 87.0875 323.656 87.1018 323.748 87.1095V87.2713H322.529V87.1095C322.618 87.1006 322.705 87.0863 322.791 87.0667C322.828 87.0515 322.859 87.0248 322.88 86.9905C322.901 86.9562 322.909 86.9161 322.905 86.8763V85.082C322.91 85.0427 322.901 85.0031 322.88 84.9694C322.86 84.9357 322.828 84.91 322.791 84.8964C322.706 84.8692 322.618 84.85 322.529 84.8393V84.6774H323.895C324.309 84.6774 324.747 84.844 324.747 85.2962C324.747 85.7483 324.504 85.9101 324.09 86.0339C324.4 86.4051 324.566 86.586 324.747 86.843C324.827 86.9425 324.932 87.0182 325.052 87.0619C325.136 87.0847 325.222 87.1006 325.309 87.1095V87.2713H324.509ZM323.681 84.8916H323.358V85.9482H323.6C323.681 85.9571 323.762 85.9486 323.839 85.9232C323.916 85.8979 323.987 85.8562 324.047 85.8012C324.106 85.7461 324.153 85.6789 324.185 85.6041C324.216 85.5293 324.231 85.4486 324.228 85.3675C324.228 85.0011 323.99 84.8773 323.705 84.8773L323.681 84.8916Z" fill="white"/>
</g>
<defs>
<clipPath id="clip0_980_2673">
<rect width="329.244" height="117.102" fill="white" transform="translate(0.585938 0.40625)"/>
</clipPath>
</defs>
</svg>
