<svg width="247" height="162" viewBox="0 0 247 162" fill="none" xmlns="http://www.w3.org/2000/svg">
<g clip-path="url(#clip0_1250_4144)">
<path d="M124.692 81.3948C122.695 81.3734 120.73 80.8799 118.958 79.9543L118.278 80.984H117.114L116.886 74.0001H118.065C119.075 77.244 121.121 80.2744 125.001 80.2744C127.998 80.2744 129.497 78.6258 129.497 76.4757C129.497 74.8751 128.195 73.3812 126.239 72.645C124.283 71.9087 123.337 71.7006 121.546 70.9644C119.038 69.9346 117.502 68.3394 117.502 65.6558C117.502 62.5026 120.632 60.1124 124.347 60.1124C126.155 60.129 127.927 60.6161 129.491 61.5263L130.145 60.5553H131.325L131.452 67.3364H130.241C129.295 64.2099 127.966 61.2328 124.15 61.2328C122.131 61.2328 120.266 62.6787 120.266 64.386C120.266 66.0933 121.44 67.267 123.194 68.0353C124.762 68.7129 126.196 69.1023 127.626 69.6839C130.283 70.7189 132.409 71.9941 132.409 75.1739C132.382 78.8499 129.093 81.3948 124.692 81.3948ZM47.5744 75.4566C47.5744 71.6846 44.0828 70.4202 41.6434 70.0947V69.9773C44.1412 69.3851 46.4583 68.0033 46.4583 65.0209C46.4583 61.6917 43.2697 60.5713 40.5593 60.5713H30.8976V61.601C31.5355 61.6586 32.1599 61.8189 32.747 62.0758C33.0182 62.2063 33.2425 62.418 33.3891 62.6817C33.5356 62.9453 33.5972 63.2481 33.5655 63.5483V78.231C33.5958 78.5233 33.5329 78.8177 33.3858 79.0718C33.2388 79.326 33.0151 79.5266 32.747 79.6448C32.1024 79.8197 31.4418 79.9287 30.7754 79.9703V81H40.7028C43.934 81 47.5744 79.2607 47.5744 75.4566ZM43.0252 65.3196C43.0252 67.8219 41.67 69.6199 38.4441 69.6199H36.6213V61.777C37.3281 61.777 38.4441 61.7183 38.9437 61.7183C40.7613 61.7183 43.0252 62.3372 43.0252 65.3196ZM44.0509 74.9231C44.0509 77.34 43.1421 79.8476 39.6452 79.8476C37.8861 79.8476 36.6213 79.2287 36.6213 78.0176V70.831C37.1527 70.831 38.4123 70.7723 39.3795 70.7723C42.4087 70.7723 44.0509 72.5116 44.0509 74.9285V74.9231ZM68.4974 74.9818H67.4717C67.1741 75.8675 66.0634 78.2257 65.1812 79.138C64.4744 79.8743 62.8428 79.8156 61.3176 79.8156C58.3521 79.8156 57.8525 79.5541 57.8525 77.1479V71.007H59.7445C61.5089 71.007 61.8703 71.4765 62.2423 71.8927C62.7161 72.6819 63.0067 73.5682 63.0926 74.4856H64.1555V66.4827H63.0926C62.9836 67.3399 62.6937 68.1638 62.2423 68.8996C61.8915 69.3424 61.5089 69.8119 59.7445 69.8119H57.8525V61.7023H60.6586C61.4821 61.693 62.3055 61.7322 63.1245 61.8197C64.3574 61.9691 65.8242 64.1832 66.1803 65.4797H67.2432V60.5873H51.8897V61.617C52.6031 61.6911 53.3037 61.8597 53.973 62.1185C54.2477 62.2375 54.4765 62.4427 54.6251 62.7035C54.7736 62.9642 54.8339 63.2663 54.7967 63.5643V78.247C54.8276 78.5435 54.7646 78.8423 54.6167 79.1009C54.4689 79.3595 54.2436 79.5647 53.973 79.6875C53.2871 79.8397 52.5907 79.9396 51.8897 79.9863V81.016H68.1148L68.4974 74.9818ZM92.3593 80.9947V79.965C91.7148 79.9475 91.0781 79.8175 90.478 79.5808C89.6238 79.1127 88.8946 78.4447 88.3522 77.6334C86.2636 74.8324 85.6206 73.8614 83.3885 70.943C86.2052 70.0894 88.3522 68.6755 88.3522 65.4264C88.3522 61.9211 85.2964 60.5659 81.9483 60.5659H72.5364V61.5956C73.1811 61.6586 73.8194 61.7764 74.4443 61.9478C74.7237 62.0773 74.9544 62.2932 75.1027 62.564C75.2509 62.8348 75.3089 63.1461 75.268 63.4523V78.2256C75.3018 78.5268 75.2404 78.831 75.0926 79.0952C74.9448 79.3594 74.718 79.5704 74.4443 79.6982C73.8162 79.8366 73.1783 79.9258 72.5364 79.965V80.9947H81.1405V79.965C80.4685 79.928 79.8005 79.8388 79.1423 79.6982C78.8649 79.5751 78.6347 79.3651 78.4862 79.0996C78.3377 78.8341 78.2788 78.5275 78.3185 78.2256V71.7433H80.3752C82.7024 74.7095 84.8685 77.7995 86.8642 81L92.3593 80.9947ZM84.8128 65.7518C84.8128 68.7022 82.8411 70.5002 80.1998 70.5002H78.3185V61.7504H80.7579C82.9899 61.7504 84.8128 62.9294 84.8128 65.7571V65.7518ZM114.042 80.9947V79.965C113.407 79.9448 112.779 79.8148 112.188 79.5808C111.302 79.0923 110.523 78.4301 109.897 77.6334C107.463 74.571 106.055 72.741 103.265 69.5558C105.46 67.4025 107.546 65.1392 109.514 62.7747C110.455 61.7077 112.57 61.5956 112.862 61.5956V60.5873H105.252V61.617C105.752 61.649 107.378 61.7343 107.378 62.3266C107.378 63.7404 103.913 67.5124 100.384 70.4628H100.108V63.399C100.108 62.7534 100.257 62.1932 100.932 61.9531C101.542 61.7665 102.171 61.6484 102.808 61.601V60.5873H94.3841V61.617C95.0224 61.6979 95.6465 61.8667 96.2389 62.1185C96.5084 62.2437 96.7322 62.4504 96.879 62.7097C97.0257 62.9689 97.0881 63.2678 97.0573 63.5643V78.3057C97.0905 78.6026 97.0293 78.9024 96.8822 79.1622C96.7352 79.4219 96.51 79.6283 96.2389 79.7515C95.6278 79.879 95.0076 79.9576 94.3841 79.9863V81.016H102.813V79.9863C102.175 79.9325 101.545 79.8036 100.937 79.6021C100.668 79.4688 100.445 79.2568 100.298 78.994C100.151 78.7311 100.086 78.4298 100.113 78.1296V71.007H100.464C103.39 74.0947 106.034 77.4391 108.366 81L114.042 80.9947ZM157.089 80.9947V79.965C156.459 79.921 155.836 79.7918 155.24 79.5808C154.973 79.4446 154.752 79.232 154.606 78.9699C154.459 78.7078 154.393 78.408 154.416 78.1083V63.399C154.373 63.1002 154.43 62.7954 154.579 62.5333C154.729 62.2711 154.961 62.0669 155.24 61.9531C155.841 61.767 156.462 61.6489 157.089 61.601V60.5873H148.703V61.617C149.35 61.6972 149.983 61.8659 150.584 62.1185C150.855 62.2429 151.08 62.4492 151.228 62.7086C151.375 62.9679 151.439 63.2672 151.408 63.5643V69.7586H141.842V63.399C141.842 62.7534 141.991 62.1932 142.634 61.9531C143.236 61.7694 143.856 61.6514 144.484 61.601V60.5873H136.076V61.617C136.723 61.6972 137.356 61.8659 137.957 62.1185C138.231 62.2413 138.46 62.4464 138.612 62.7054C138.764 62.9644 138.833 63.2646 138.808 63.5643V78.3057C138.841 78.6066 138.776 78.9103 138.623 79.1711C138.469 79.4318 138.236 79.6355 137.957 79.7515C137.338 79.881 136.708 79.9595 136.076 79.9863V81.016H144.505V79.9863C143.874 79.9423 143.252 79.8131 142.655 79.6021C142.392 79.4641 142.176 79.2501 142.035 78.9876C141.894 78.7252 141.834 78.4264 141.863 78.1296V71.007H151.43V78.2897C151.469 78.588 151.41 78.8913 151.261 79.1526C151.113 79.4139 150.882 79.6187 150.606 79.7355C149.986 79.865 149.357 79.9435 148.724 79.9703V81L157.089 80.9947ZM170.306 80.9947V79.965C169.587 79.9085 168.875 79.7798 168.181 79.5808C167.896 79.4681 167.654 79.2672 167.491 79.0072C167.327 78.7472 167.251 78.4416 167.272 78.1349V63.3723C167.228 63.0655 167.295 62.7529 167.462 62.4921C167.629 62.2313 167.884 62.0399 168.181 61.9531C168.876 61.7669 169.588 61.6489 170.306 61.601V60.5873H161.187V61.617C161.912 61.7013 162.626 61.8696 163.313 62.1185C163.606 62.2098 163.857 62.4012 164.024 62.6595C164.191 62.9178 164.263 63.2266 164.227 63.5323V78.3324C164.261 78.6385 164.189 78.9471 164.022 79.2058C163.855 79.4645 163.605 79.6573 163.313 79.7515C162.61 79.8793 161.9 79.9577 161.187 79.9863V81.016L170.306 80.9947ZM194.222 80.9947V79.965C193.577 79.9481 192.94 79.8181 192.34 79.5808C191.486 79.1125 190.757 78.4445 190.214 77.6334C188.131 74.8324 187.483 73.8614 185.256 70.943C188.073 70.0894 190.214 68.6755 190.214 65.4264C190.214 61.9211 187.159 60.5659 183.837 60.5659H174.409V61.5956C175.056 61.6586 175.696 61.7764 176.322 61.9478C176.6 62.0788 176.829 62.2952 176.977 62.5658C177.124 62.8363 177.181 63.1468 177.141 63.4523V78.2256C177.174 78.5261 177.113 78.8295 176.967 79.0935C176.82 79.3575 176.595 79.5689 176.322 79.6982C175.693 79.8369 175.053 79.9261 174.409 79.965V80.9947H183.013V79.965C182.343 79.928 181.677 79.8388 181.02 79.6982C180.742 79.5758 180.512 79.3659 180.363 79.1003C180.215 78.8346 180.156 78.5276 180.197 78.2256V71.7433H182.253C184.579 74.7108 186.745 77.8007 188.742 81L194.222 80.9947ZM186.67 65.7518C186.67 68.7022 184.703 70.5002 182.062 70.5002H180.197V61.7504H182.636C184.863 61.7504 186.686 62.9294 186.686 65.7571L186.67 65.7518ZM212.482 74.9925H211.456C211.159 75.8781 210.043 78.2363 209.166 79.1487C208.459 79.8849 206.827 79.8262 205.302 79.8262C202.337 79.8262 201.837 79.5648 201.837 77.1586V71.007H203.74C205.504 71.007 205.865 71.4765 206.238 71.8927C206.711 72.6819 207.002 73.5682 207.088 74.4856H208.151V66.4827H207.088C206.979 67.3399 206.689 68.1638 206.238 68.8996C205.887 69.3424 205.504 69.8119 203.74 69.8119H201.848V61.7023H204.654C205.477 61.6932 206.301 61.7324 207.12 61.8197C208.353 61.9691 209.819 64.1832 210.17 65.4797H211.233V60.5873H195.874V61.617C196.588 61.6911 197.288 61.8597 197.958 62.1185C198.232 62.2375 198.461 62.4427 198.61 62.7035C198.758 62.9642 198.818 63.2663 198.781 63.5643V78.247C198.812 78.5435 198.749 78.8423 198.601 79.1009C198.453 79.3595 198.228 79.5647 197.958 79.6875C197.272 79.8397 196.575 79.9396 195.874 79.9863V81.016H212.099L212.482 74.9925ZM60.3344 107.538V106.524C59.7162 106.483 59.1065 106.357 58.5222 106.15C58.2599 106.017 58.0431 105.808 57.8992 105.551C57.7554 105.293 57.691 104.999 57.7144 104.705V90.2994C57.6715 90.0069 57.7279 89.7085 57.8744 89.452C58.0209 89.1956 58.2491 88.9961 58.5222 88.8855C59.111 88.6996 59.719 88.5815 60.3344 88.5334V87.525H52.0757V88.5334C52.7091 88.6158 53.329 88.7808 53.9198 89.0242C54.1838 89.1479 54.4029 89.351 54.5467 89.6053C54.6905 89.8596 54.7519 90.1525 54.7223 90.4434V96.5096H45.3689V90.262C45.3689 89.6271 45.5124 89.0776 46.1501 88.8482C46.7394 88.6642 47.3472 88.5461 47.9623 88.496V87.4877H39.6984V88.496C40.3318 88.5777 40.9519 88.7428 41.5425 88.9869C41.8104 89.1081 42.0344 89.3096 42.1838 89.5637C42.3332 89.8177 42.4006 90.112 42.3768 90.4061V104.87C42.4103 105.165 42.3469 105.462 42.1963 105.718C42.0457 105.973 41.8161 106.172 41.5425 106.284C40.9355 106.414 40.3185 106.491 39.6984 106.513V107.538H47.9623V106.524C47.344 106.484 46.7341 106.358 46.1501 106.15C45.8909 106.015 45.6779 105.805 45.5387 105.548C45.3994 105.29 45.3403 104.996 45.3689 104.705V97.7687H54.7223V104.87C54.7618 105.161 54.7046 105.458 54.5595 105.713C54.4145 105.969 54.1897 106.169 53.9198 106.284C53.3129 106.414 52.6959 106.491 52.0757 106.513V107.538H60.3344ZM82.3256 107.538V106.524C81.7259 106.484 81.1395 106.328 80.5984 106.065C80.0359 105.69 79.6105 105.141 79.3867 104.502L72.7383 87.1996H71.617C69.4328 92.8016 67.0997 98.9852 65.0589 104.043C64.7977 104.836 64.2794 105.517 63.5868 105.98C63.0291 106.289 62.4104 106.471 61.7746 106.513V107.538H69.2839V106.524C68.3592 106.471 66.4035 106.209 66.4035 105.286C66.4346 104.74 66.5419 104.201 66.7224 103.686C66.9775 102.757 67.3814 101.658 67.7853 100.591H74.7791L76.4478 105.099C76.5178 105.295 76.5572 105.5 76.5648 105.708C76.5648 106.241 74.9226 106.46 74.0032 106.513V107.538H82.3256ZM74.2955 99.3586H68.3061L71.2715 91.5905L74.2955 99.3586ZM98.9599 92.9563V87.4877H81.5763V92.919H82.5701C82.889 91.6492 84.3876 88.8748 85.6259 88.7041C86.3992 88.6241 87.1762 88.5849 87.9536 88.5867H88.7614V104.737C88.7955 105.043 88.726 105.352 88.5641 105.615C88.4022 105.877 88.1573 106.077 87.8686 106.182C87.1118 106.352 86.342 106.458 85.5674 106.497V107.538H94.9793V106.524C94.19 106.453 93.4089 106.308 92.6463 106.092C92.3642 105.969 92.1268 105.761 91.967 105.498C91.8071 105.234 91.7325 104.927 91.7535 104.619V88.6134H92.5878C93.3565 88.6071 94.1249 88.6463 94.889 88.7308C96.1273 88.9015 97.6525 91.6758 97.9714 92.9456L98.9599 92.9563ZM122.173 107.538V106.524C121.553 106.483 120.942 106.358 120.356 106.15C120.095 106.016 119.88 105.807 119.737 105.549C119.594 105.292 119.53 104.998 119.553 104.705V90.2994C119.504 90.0041 119.557 89.7008 119.703 89.4398C119.849 89.1787 120.079 88.9756 120.356 88.8642C120.946 88.6777 121.556 88.5596 122.173 88.512V87.5037H113.925V88.512C114.559 88.5937 115.179 88.7588 115.769 89.0029C116.034 89.1264 116.254 89.3292 116.398 89.5834C116.543 89.8376 116.606 90.1307 116.577 90.4221V96.4883H107.224V90.262C107.224 89.6271 107.367 89.0776 108 88.8482C108.589 88.6642 109.197 88.5461 109.812 88.496V87.4877H101.537V88.496C102.169 88.5784 102.787 88.7434 103.376 88.9869C103.645 89.1079 103.869 89.3092 104.02 89.5632C104.17 89.8171 104.238 90.1115 104.216 90.4061V104.87C104.248 105.165 104.184 105.463 104.032 105.718C103.88 105.973 103.65 106.172 103.376 106.284C102.771 106.414 102.156 106.491 101.537 106.513V107.538H109.796V106.524C109.178 106.484 108.568 106.358 107.984 106.15C107.725 106.015 107.513 105.805 107.374 105.547C107.236 105.289 107.178 104.996 107.208 104.705V97.7687H116.583V104.87C116.622 105.162 116.564 105.459 116.418 105.714C116.272 105.97 116.046 106.17 115.775 106.284C115.168 106.414 114.551 106.491 113.931 106.513V107.538H122.173ZM144.159 107.538V106.524C143.56 106.483 142.973 106.327 142.432 106.065C141.87 105.691 141.446 105.142 141.226 104.502L134.577 87.2262H133.456C131.266 92.8283 128.933 99.0118 126.893 104.07C126.631 104.862 126.113 105.544 125.421 106.006C124.863 106.316 124.244 106.498 123.608 106.54V107.538H131.123V106.524C130.198 106.471 128.243 106.209 128.243 105.286C128.274 104.74 128.381 104.201 128.561 103.686C128.816 102.757 129.22 101.658 129.624 100.591H136.618L138.287 105.099C138.357 105.295 138.396 105.5 138.404 105.708C138.404 106.241 136.762 106.46 135.842 106.513V107.538H144.159ZM136.129 99.3586H130.145L133.105 91.5905L136.129 99.3586ZM170.854 88.5227V87.5144H163.632V88.5227C164.838 88.6134 166.395 88.8428 166.395 89.7658C166.323 90.6608 166.145 91.5439 165.864 92.3961C165.231 94.8557 164.269 98.2916 162.93 102.971L157.929 87.7971H156.553L151.568 102.65C149.697 96.1201 148.347 91.4091 147.975 89.9952C147.921 89.7471 147.882 89.4959 147.858 89.243C147.858 88.6614 149.527 88.5761 150.446 88.5174V87.509H142.305V88.5174C142.89 88.5555 143.46 88.7231 143.973 89.0082C144.494 89.3284 144.875 89.8358 145.036 90.4274L149.926 107.794H151.127L156.361 92.3908L161.399 107.794H162.691C164.567 101.695 166.725 94.6423 167.846 90.8916C167.934 90.5142 168.097 90.1584 168.324 89.8451C168.551 89.5317 168.839 89.2672 169.169 89.0669C169.681 88.7522 170.257 88.5571 170.854 88.496V88.5227ZM189.056 107.538V106.524C188.456 106.483 187.87 106.327 187.329 106.065C186.768 105.69 186.344 105.141 186.122 104.502L179.474 87.2262H178.353C176.163 92.8283 173.835 99.0118 171.789 104.07C171.529 104.862 171.013 105.543 170.322 106.006C169.765 106.316 169.146 106.498 168.51 106.54V107.538H176.02V106.524C175.1 106.471 173.139 106.209 173.139 105.286C173.17 104.74 173.277 104.201 173.458 103.686C173.718 102.757 174.122 101.658 174.521 100.591H181.509L183.183 105.099C183.249 105.296 183.287 105.501 183.295 105.708C183.295 106.241 181.658 106.46 180.733 106.513V107.538H189.056ZM181.026 99.3586H175.042L178.007 91.5905L181.026 99.3586ZM206.11 88.5227V87.5144H199.175V88.5227C200.354 88.6134 201.832 88.6988 201.832 89.5631C201.832 90.0593 199.818 93.4632 197.288 97.566C194.753 92.9456 192.909 89.6218 192.909 89.2163C192.909 88.5814 194.609 88.6081 195.529 88.5494V87.541H187.026V88.5494C187.598 88.5836 188.157 88.7419 188.663 89.0136C189.375 89.4972 189.943 90.1668 190.305 90.9503C191.516 93.0844 192.606 95.1118 193.961 97.7421C194.366 98.4176 194.676 99.1467 194.881 99.9082V104.758C194.923 105.069 194.862 105.385 194.706 105.658C194.55 105.93 194.309 106.143 194.02 106.262C193.271 106.423 192.51 106.519 191.745 106.551V107.538H201.082V106.524C200.314 106.456 199.553 106.311 198.813 106.092C198.521 105.971 198.274 105.76 198.107 105.49C197.941 105.22 197.865 104.904 197.888 104.587V100.778C197.888 99.4173 198.032 99.0118 198.755 97.7421C200.078 95.2705 201.529 92.8699 203.102 90.5501C203.456 89.9233 203.972 89.4037 204.595 89.0456C205.068 88.7836 205.579 88.5982 206.11 88.496V88.5227ZM117.922 127.054C116.709 127.037 115.519 126.726 114.451 126.147L114.042 126.793H113.394L113.261 122.434H113.925C114.574 124.605 115.621 126.275 118.113 126.275C119.957 126.275 120.834 125.379 120.834 124.034C120.834 122.967 120.138 122.103 118.852 121.591C117.736 121.143 117.119 120.998 116.051 120.524C114.552 119.878 113.633 118.88 113.633 117.21C113.633 115.242 115.504 113.753 117.725 113.753C118.823 113.764 119.897 114.068 120.839 114.633L121.233 114.025H121.897L121.977 118.256H121.291C120.723 116.277 120.042 114.521 117.614 114.521C116.322 114.521 115.259 115.348 115.259 116.415C115.259 117.696 115.844 118.224 117.04 118.784C117.97 119.211 118.831 119.441 119.697 119.809C121.291 120.454 122.545 121.164 122.545 123.149C122.519 125.448 120.552 127.054 117.922 127.054ZM70.501 126.798V126.158C70.8958 126.14 71.2886 126.09 71.6754 126.008C71.8518 125.939 72 125.813 72.0964 125.65C72.1928 125.486 72.2317 125.295 72.2069 125.107V120.561H66.2281V124.995C66.2098 125.18 66.247 125.367 66.3351 125.532C66.4231 125.696 66.5579 125.83 66.7224 125.918C67.0941 126.05 67.4821 126.131 67.8756 126.158V126.798H62.6674V126.158C63.0606 126.14 63.4516 126.09 63.8366 126.008C64.0108 125.936 64.1569 125.81 64.2528 125.647C64.3487 125.484 64.3891 125.294 64.3681 125.107V115.903C64.3833 115.716 64.3403 115.529 64.2451 115.368C64.1499 115.206 64.0072 115.078 63.8366 115.002C63.4633 114.844 63.0697 114.74 62.6674 114.692V114.047H67.8756V114.692C67.4841 114.72 67.0971 114.794 66.7224 114.911C66.3185 115.06 66.2281 115.407 66.2281 115.813V119.771H72.1856V115.903C72.2024 115.716 72.1602 115.528 72.0648 115.366C71.9694 115.205 71.8258 115.077 71.6542 115.002C71.2788 114.845 70.8835 114.74 70.4797 114.692V114.047H75.6932V114.692C75.2997 114.719 74.9109 114.792 74.5346 114.911C74.3577 114.979 74.2089 115.105 74.1124 115.269C74.0159 115.433 73.9774 115.624 74.0032 115.813V124.995C73.9896 125.184 74.033 125.373 74.1277 125.538C74.2225 125.703 74.3642 125.835 74.5346 125.918C74.9084 126.049 75.298 126.13 75.6932 126.158V126.798H70.501ZM80.9492 127.075C78.6959 127.075 76.6976 125.272 76.6976 122.402C76.6976 119.622 78.4408 117.691 81.0608 117.691C83.6808 117.691 85.3123 119.659 85.3123 122.274C85.3123 124.888 83.7765 127.075 80.9757 127.075H80.9492ZM81.0608 118.374C79.1157 118.374 78.5683 120.47 78.5683 122.252C78.5683 124.482 79.3017 126.398 81.0608 126.398C82.7295 126.398 83.4789 124.52 83.4789 122.29C83.4789 120.342 82.8783 118.374 81.0608 118.374ZM97.5781 126.798V126.211C97.8448 126.197 98.1098 126.159 98.37 126.099C98.5329 126.044 98.6715 125.933 98.7617 125.786C98.8519 125.638 98.8882 125.464 98.8642 125.293V120.71C98.8642 119.457 98.2212 118.758 97.3762 118.758C96.9197 118.759 96.4718 118.882 96.0785 119.114C95.6852 119.347 95.3608 119.68 95.1388 120.081V125.197C95.1214 125.369 95.1582 125.542 95.2441 125.691C95.3299 125.84 95.4604 125.959 95.6171 126.03C95.8756 126.131 96.148 126.192 96.4249 126.211V126.798H92.2105V126.211C92.4632 126.197 92.714 126.159 92.9598 126.099C93.1228 126.044 93.2613 125.933 93.3516 125.786C93.4418 125.638 93.4781 125.464 93.4541 125.293V120.71C93.4541 119.457 92.811 118.758 91.9714 118.758C91.5127 118.76 91.0631 118.886 90.6695 119.123C90.2759 119.359 89.9528 119.697 89.734 120.102V125.181C89.719 125.354 89.7588 125.527 89.8475 125.675C89.9363 125.824 90.0695 125.94 90.2282 126.008C90.4953 126.127 90.7816 126.195 91.0732 126.211V126.798H86.7791V126.211C87.0512 126.198 87.3215 126.16 87.5869 126.099C87.7509 126.044 87.8906 125.934 87.9819 125.787C88.0731 125.64 88.1101 125.465 88.0865 125.293V119.809C88.0829 119.627 88.0357 119.448 87.9487 119.288C87.8617 119.129 87.7376 118.992 87.5869 118.891C87.2975 118.737 86.9784 118.648 86.6516 118.63V118.043L89.6064 117.861L89.734 117.989V119.238H89.7871C90.5046 118.539 91.1636 117.712 92.742 117.712C93.2511 117.708 93.7496 117.858 94.1718 118.144C94.594 118.43 94.92 118.837 95.1069 119.313C95.8562 118.592 96.5737 117.712 98.1521 117.712C99.858 117.712 100.57 118.966 100.57 120.71V125.219C100.553 125.39 100.59 125.563 100.675 125.712C100.761 125.862 100.892 125.98 101.048 126.051C101.325 126.152 101.615 126.213 101.909 126.232V126.819L97.5781 126.798ZM107.378 127.038C104.498 127.038 103.158 124.904 103.158 122.29C103.158 119.937 104.678 117.691 107.192 117.691C109.812 117.691 110.785 119.478 110.785 121.5V122.092H104.939C104.939 124.354 105.805 126.046 107.893 126.046C109.174 126.046 109.743 125.421 110.386 124.333L111.008 124.722C110.68 125.411 110.166 125.994 109.524 126.403C108.882 126.813 108.138 127.033 107.378 127.038ZM107.171 118.374C105.964 118.374 105.008 119.441 104.933 121.335H109.025C109.025 119.862 108.675 118.374 107.171 118.374ZM128.625 127.038C125.75 127.038 124.411 124.904 124.411 122.29C124.411 119.937 125.936 117.691 128.444 117.691C131.065 117.691 132.037 119.478 132.037 121.5V122.092H126.191C126.191 124.354 127.052 126.046 129.141 126.046C130.427 126.046 130.99 125.421 131.633 124.333L132.26 124.722C131.932 125.412 131.417 125.995 130.774 126.405C130.131 126.814 129.386 127.034 128.625 127.038ZM128.429 118.374C127.217 118.374 126.26 119.441 126.191 121.335H130.278C130.278 119.862 129.927 118.374 128.429 118.374ZM139.158 120.246C139.035 120.26 138.91 120.247 138.792 120.209C138.674 120.172 138.565 120.11 138.472 120.027C138.379 119.945 138.304 119.844 138.252 119.731C138.2 119.618 138.172 119.496 138.17 119.371C138.167 119.144 138.211 118.919 138.297 118.71C137.891 118.768 137.503 118.918 137.163 119.149C136.824 119.38 136.541 119.686 136.336 120.043V125.197C136.32 125.367 136.358 125.538 136.446 125.685C136.534 125.831 136.667 125.944 136.825 126.008C137.215 126.122 137.616 126.19 138.021 126.211V126.798H133.366V126.211C133.636 126.197 133.904 126.16 134.168 126.099C134.332 126.044 134.472 125.934 134.563 125.787C134.654 125.64 134.691 125.465 134.668 125.293V119.809C134.662 119.617 134.614 119.428 134.528 119.257C134.441 119.085 134.319 118.935 134.168 118.816C133.888 118.678 133.582 118.602 133.27 118.592V118.005L136.204 117.824L136.336 117.952V119.184H136.368C136.648 118.771 137.015 118.425 137.443 118.171C137.871 117.916 138.35 117.76 138.845 117.712C139.022 117.705 139.198 117.736 139.361 117.803C139.525 117.87 139.673 117.971 139.795 118.1C139.916 118.229 140.009 118.382 140.067 118.55C140.125 118.717 140.147 118.896 140.131 119.072C140.146 119.214 140.132 119.357 140.091 119.493C140.049 119.629 139.982 119.756 139.891 119.865C139.8 119.974 139.689 120.064 139.563 120.13C139.437 120.195 139.3 120.235 139.158 120.246ZM148.411 119.547C147.662 121.313 146.981 122.807 146.158 124.813C145.862 125.482 145.612 126.17 145.408 126.873H144.691C143.336 123.485 142.948 122.567 141.651 119.478C141.412 118.944 141.146 118.582 140.662 118.539V117.947H144.34V118.571C143.92 118.571 143.277 118.683 143.277 118.96C143.277 118.998 143.357 119.179 143.405 119.366L145.53 124.573C145.972 123.543 146.721 121.756 147.401 120.081C147.533 119.803 147.619 119.506 147.656 119.2C147.656 118.774 146.721 118.555 146.429 118.518V117.947H149.559V118.48C149.292 118.544 149.047 118.676 148.846 118.863C148.644 119.05 148.495 119.285 148.411 119.547ZM150.43 126.798V126.211C150.702 126.197 150.973 126.16 151.238 126.099C151.401 126.044 151.54 125.933 151.63 125.786C151.72 125.638 151.756 125.464 151.732 125.293V119.809C151.729 119.624 151.682 119.443 151.597 119.28C151.511 119.117 151.388 118.977 151.238 118.87C150.906 118.708 150.544 118.614 150.175 118.592V118.005L153.295 117.824L153.422 117.952V125.165C153.405 125.338 153.444 125.512 153.533 125.661C153.622 125.81 153.756 125.926 153.917 125.992C154.174 126.101 154.446 126.169 154.724 126.195V126.782L150.43 126.798ZM152.413 115.957C152.144 115.938 151.892 115.817 151.709 115.619C151.525 115.421 151.424 115.16 151.424 114.89C151.424 114.619 151.531 114.36 151.721 114.169C151.912 113.978 152.17 113.871 152.439 113.871C152.708 113.871 152.967 113.978 153.157 114.169C153.347 114.36 153.454 114.619 153.454 114.89C153.464 115.03 153.444 115.172 153.396 115.304C153.347 115.437 153.271 115.558 153.173 115.659C153.074 115.759 152.956 115.838 152.825 115.89C152.694 115.941 152.553 115.964 152.413 115.957ZM159.97 127.038C157.254 127.038 155.883 125.016 155.883 122.327C155.883 119.915 157.515 117.691 160.081 117.691C162.021 117.691 163.015 118.758 163.015 120.011C163.015 120.62 162.76 121.153 162.096 121.153C161.431 121.153 160.98 120.726 160.98 120.284C161.023 119.795 161.103 119.309 161.219 118.832C161.079 118.661 160.897 118.528 160.692 118.448C160.486 118.367 160.263 118.342 160.044 118.374C158.944 118.374 157.732 119.366 157.732 122.252C157.732 124.424 158.763 126.046 160.39 126.046C161.564 126.046 162.26 125.459 162.919 124.354L163.504 124.738C163.165 125.397 162.66 125.955 162.04 126.358C161.421 126.762 160.707 126.996 159.97 127.038ZM168.935 127.038C166.055 127.038 164.721 124.904 164.721 122.29C164.721 119.937 166.241 117.691 168.755 117.691C171.375 117.691 172.347 119.478 172.347 121.5V122.092H166.501C166.501 124.354 167.362 126.046 169.456 126.046C170.737 126.046 171.306 125.421 171.949 124.333L172.57 124.722C172.242 125.412 171.727 125.995 171.084 126.405C170.441 126.814 169.697 127.034 168.935 127.038ZM168.733 118.374C167.522 118.374 166.57 119.441 166.496 121.335H170.588C170.588 119.862 170.259 118.374 168.733 118.374ZM177.412 127.038C176.566 127.029 175.744 126.753 175.063 126.248L174.877 126.819H174.218L174.128 123.746H174.733C174.951 124.701 175.903 126.339 177.539 126.339C178.693 126.339 179.336 125.806 179.336 124.829C179.336 123.853 178.528 123.431 177.061 122.994C175.833 122.626 174.345 121.959 174.345 120.284C174.345 118.832 175.504 117.691 177.322 117.691C177.995 117.687 178.66 117.844 179.261 118.149L179.463 117.669H180.106L180.25 120.524H179.628C179.41 119.457 178.655 118.39 177.3 118.39C176.328 118.39 175.706 118.96 175.706 119.654C175.706 120.721 176.439 120.982 177.943 121.479C179.575 122.012 180.696 122.658 180.696 124.258C180.712 125.971 179.24 127.038 177.412 127.038ZM121.897 0C117.218 1.8958e-06 112.645 1.39253 108.755 4.00156C104.864 6.61058 101.832 10.319 100.04 14.658C98.2488 18.9969 97.779 23.7717 98.6902 28.3787C99.6014 32.9856 101.853 37.218 105.159 40.5407C108.466 43.8634 112.68 46.1273 117.268 47.0462C121.856 47.9651 126.613 47.4978 130.937 45.7033C135.26 43.9087 138.957 40.8676 141.559 36.9644C144.162 33.0611 145.553 28.4708 145.557 23.7739C145.556 17.4728 143.063 11.4299 138.627 6.97232C134.191 2.51477 128.174 0.00706862 121.897 0ZM121.897 46.3101C117.451 46.3101 113.104 44.9861 109.408 42.5057C105.711 40.0253 102.831 36.4999 101.13 32.3755C99.4302 28.2511 98.9867 23.7131 99.856 19.3356C100.725 14.9582 102.869 10.9379 106.014 7.78349C109.16 4.62909 113.167 2.4823 117.529 1.61472C121.89 0.747142 126.41 1.19777 130.516 2.90959C134.623 4.62141 138.131 7.51749 140.597 11.2314C143.064 14.9454 144.377 19.3103 144.372 23.7739C144.359 29.7516 141.986 35.4804 137.774 39.7048C133.561 43.9292 127.851 46.3045 121.897 46.3101ZM139.711 29.488C139.843 29.488 139.971 29.4489 140.08 29.3756C140.189 29.3023 140.275 29.1982 140.325 29.0763C140.375 28.9545 140.388 28.8204 140.363 28.691C140.337 28.5616 140.274 28.4428 140.181 28.3495C140.088 28.2563 139.97 28.1927 139.841 28.167C139.712 28.1413 139.578 28.1545 139.457 28.205C139.336 28.2554 139.232 28.3409 139.159 28.4506C139.086 28.5603 139.047 28.6892 139.047 28.8211C139.047 28.998 139.117 29.1676 139.241 29.2927C139.366 29.4177 139.535 29.488 139.711 29.488ZM104.104 29.488C104.236 29.488 104.364 29.4489 104.473 29.3756C104.583 29.3023 104.668 29.1982 104.718 29.0763C104.768 28.9545 104.781 28.8204 104.756 28.691C104.73 28.5616 104.667 28.4428 104.574 28.3495C104.481 28.2563 104.363 28.1927 104.234 28.167C104.105 28.1413 103.971 28.1545 103.85 28.205C103.729 28.2554 103.625 28.3409 103.552 28.4506C103.479 28.5603 103.44 28.6892 103.44 28.8211C103.44 28.9952 103.508 29.1625 103.629 29.2871C103.75 29.4117 103.915 29.4838 104.088 29.488H104.104ZM104.689 24.3021L102.212 24.2434L102.244 22.9363C102.236 22.8463 102.247 22.7555 102.276 22.6699C102.305 22.5843 102.351 22.5058 102.412 22.4394C102.473 22.373 102.548 22.3202 102.631 22.2845C102.713 22.2488 102.803 22.2309 102.893 22.232C103.024 22.2236 103.153 22.2642 103.256 22.3459C103.359 22.4277 103.429 22.5449 103.451 22.6749C103.482 22.5371 103.561 22.4152 103.674 22.3311C103.787 22.2469 103.927 22.2061 104.067 22.216C104.161 22.2143 104.254 22.2331 104.34 22.271C104.426 22.3089 104.502 22.365 104.564 22.4355C104.626 22.506 104.673 22.5892 104.7 22.6793C104.727 22.7695 104.734 22.8644 104.721 22.9576L104.689 24.3021ZM102.972 22.7762C102.935 22.7753 102.899 22.7823 102.864 22.7967C102.83 22.8111 102.8 22.8327 102.775 22.86C102.749 22.8872 102.73 22.9196 102.719 22.9548C102.707 22.99 102.703 23.0274 102.707 23.0643V23.7259H103.238V23.0643C103.242 23.026 103.238 22.9872 103.225 22.9507C103.212 22.9143 103.192 22.8811 103.165 22.8536C103.138 22.826 103.105 22.8048 103.069 22.7914C103.033 22.7781 102.995 22.7729 102.956 22.7762H102.972ZM103.982 22.7762C103.942 22.7745 103.902 22.7815 103.864 22.7967C103.827 22.8118 103.793 22.8349 103.766 22.8642C103.738 22.8935 103.717 22.9285 103.704 22.9667C103.691 23.0049 103.686 23.0455 103.69 23.0857V23.7739H104.253V23.091C104.242 22.8776 104.141 22.7602 103.966 22.7549L103.982 22.7762ZM104.891 20.9569L102.467 20.4234L102.834 18.7001L103.286 18.7961L103.036 20.0393L103.568 20.146L103.817 18.9722L104.269 19.0682L104.019 20.2473L104.551 20.3647L104.806 19.1589L105.263 19.2603L104.891 20.9569ZM106.188 16.6887L105.188 16.8007L105.04 17.1582L105.847 17.4997L105.645 17.9852L103.36 17.0248L103.807 15.9578C103.841 15.8539 103.898 15.7584 103.972 15.6776C104.045 15.5968 104.135 15.5325 104.235 15.4888C104.336 15.445 104.444 15.4229 104.553 15.4237C104.662 15.4245 104.77 15.4483 104.87 15.4936C105.026 15.5501 105.159 15.66 105.243 15.8043C105.328 15.9486 105.359 16.1181 105.332 16.2832L106.421 16.1285L106.188 16.6887ZM104.652 15.9898C104.609 15.9722 104.563 15.9639 104.517 15.9653C104.471 15.9667 104.425 15.9778 104.384 15.9979C104.342 16.0181 104.305 16.0467 104.275 16.0821C104.246 16.1174 104.223 16.1587 104.211 16.2032L103.993 16.7367L104.609 16.9928L104.822 16.4593C104.846 16.4176 104.861 16.3712 104.865 16.3233C104.87 16.2754 104.864 16.227 104.848 16.1815C104.833 16.1359 104.808 16.0943 104.775 16.0594C104.742 16.0245 104.701 15.9971 104.657 15.9791L104.652 15.9898ZM107.84 13.7917L106.591 13.8717L106.682 14.1598L107.314 14.5813L107.027 15.0241L104.96 13.6369L105.252 13.1941L106.172 13.8077L105.736 12.4578L106.092 11.9243L106.517 13.3915L108.196 13.2368L107.84 13.7917ZM108.526 12.3031L108.425 11.8069C108.573 11.8068 108.719 11.7771 108.855 11.7193C108.991 11.6616 109.114 11.5771 109.217 11.4708C109.419 11.2574 109.419 11.0653 109.318 10.9693C109.004 10.6652 108.255 11.9083 107.564 11.2627C107.489 11.178 107.432 11.0787 107.397 10.9711C107.361 10.8635 107.348 10.7498 107.358 10.6369C107.368 10.524 107.401 10.4143 107.455 10.3146C107.508 10.2149 107.582 10.1272 107.67 10.057C107.904 9.78796 108.235 9.62297 108.59 9.59814L108.669 10.0837C108.404 10.1027 108.156 10.2207 107.973 10.4144C107.819 10.5798 107.803 10.7346 107.909 10.8413C108.191 11.108 108.972 9.89692 109.653 10.5425C109.982 10.8573 109.998 11.3321 109.541 11.8123C109.412 11.9557 109.256 12.072 109.081 12.1545C108.907 12.2369 108.718 12.2838 108.526 12.2924V12.3031ZM112.501 9.27803L111.901 8.41905L110.949 9.09663L111.544 9.95027L111.114 10.2544L109.674 8.21097L110.11 7.90686L110.641 8.70182L111.598 8.02957L111.082 7.23462L111.513 6.93051L112.937 8.96325L112.501 9.27803ZM114.17 8.30167L113.107 6.06086L113.58 5.83144L114.643 8.07226L114.17 8.30167ZM117.247 7.10124L116.524 6.39698L116.152 6.51436L116.413 7.35733L115.913 7.51205L115.18 5.13786L116.285 4.7964C116.388 4.75589 116.497 4.73777 116.608 4.74323C116.718 4.7487 116.825 4.77763 116.923 4.82811C117.021 4.87858 117.107 4.94944 117.176 5.03597C117.245 5.12249 117.294 5.2227 117.321 5.32993C117.379 5.4869 117.38 5.65898 117.324 5.81668C117.269 5.97437 117.161 6.10785 117.018 6.19424L117.832 6.93584L117.247 7.10124ZM116.8 5.46865C116.786 5.42444 116.763 5.38366 116.733 5.34886C116.702 5.31406 116.665 5.286 116.623 5.26646C116.581 5.24691 116.535 5.23629 116.489 5.23528C116.443 5.23427 116.397 5.24288 116.354 5.26057L115.823 5.42596L116.019 6.0662L116.551 5.9008C116.595 5.89093 116.638 5.87196 116.675 5.84505C116.712 5.81815 116.743 5.78388 116.767 5.74438C116.79 5.70488 116.805 5.66097 116.811 5.61538C116.817 5.56979 116.813 5.52348 116.8 5.47932V5.46865ZM119.064 6.70109L118.777 4.23086L120.521 4.02279L120.574 4.48696L119.357 4.63101L119.415 5.16454L120.606 5.02582L120.659 5.48999L119.468 5.62871L119.532 6.19424L120.754 6.05019L120.808 6.50902L119.064 6.70109ZM125.601 6.87182L125.793 5.84211L124.639 5.62871L124.453 6.66375L123.922 6.56771L124.368 4.11882L124.9 4.21486L124.724 5.17521L125.872 5.38862L126.048 4.42827L126.579 4.5243L126.149 6.95718L125.601 6.87182ZM129.008 8.0029V7.55473L128.025 7.15459L127.722 7.48538L127.19 7.25596L129.002 5.31392L129.614 5.55935L129.571 8.22698L129.008 8.0029ZM129.103 5.92748L128.343 6.77579L129.061 7.06389L129.103 5.92748ZM130.762 8.9419L131.824 7.22395L131.208 6.83981L131.452 6.445L133.132 7.51205L132.887 7.90686L132.276 7.52806L131.213 9.24068L130.762 8.9419ZM133.993 11.4441L134.7 10.6705L133.839 9.87558L133.132 10.6492L132.744 10.2917L134.423 8.46173L134.806 8.81919L134.152 9.53412L135.013 10.3344L135.672 9.61415L136.065 9.97161L134.386 11.8069L133.993 11.4441ZM136.278 14.2185L136.522 13.845L135.901 12.9807L135.47 13.0981L135.119 12.6126L137.686 11.9297L138.074 12.4632L136.623 14.704L136.278 14.2185ZM137.452 12.5112L136.39 12.8206L136.841 13.4502L137.452 12.5112ZM137.878 17.2756L139.265 16.2085L137.532 16.4966L137.304 15.9631L139.297 14.3145L139.53 14.848L138.064 15.9684L139.892 15.6857L140.057 16.0645L138.6 17.2116L140.418 16.8914L140.652 17.425L138.096 17.7664L137.878 17.2756ZM138.941 21.069L139.323 20.8342L139.116 19.7672L138.675 19.6925L138.558 19.1056L141.173 19.5644L141.3 20.2153L139.047 21.6398L138.941 21.069ZM140.716 20.0019L139.6 19.8312L139.748 20.5888L140.716 20.0019ZM139.121 23.1657H140.136L141.561 22.1734V22.7762L140.583 23.4111L141.587 24.0087V24.6062L140.104 23.6832H139.089L139.121 23.1657ZM105.709 35.1007L106.581 34.5245L105.954 33.5428L105.082 34.1137L104.795 33.6709L106.868 32.3104L107.155 32.7532L106.342 33.2867L106.985 34.2684L107.798 33.7349L108.09 34.183L106.012 35.5435L105.709 35.1007ZM107.888 35.949C108.069 35.7654 108.3 35.6399 108.552 35.5884C108.804 35.5369 109.065 35.5617 109.303 35.6598C109.541 35.7579 109.744 35.9247 109.888 36.1391C110.031 36.3536 110.107 36.6059 110.107 36.864C110.107 37.1221 110.031 37.3745 109.888 37.5889C109.744 37.8033 109.541 37.9701 109.303 38.0682C109.065 38.1663 108.804 38.1911 108.552 38.1396C108.3 38.0882 108.069 37.9626 107.888 37.779C107.763 37.6622 107.663 37.5206 107.594 37.3631C107.526 37.2057 107.491 37.0358 107.491 36.864C107.491 36.6922 107.526 36.5223 107.594 36.3649C107.663 36.2074 107.763 36.0659 107.888 35.949ZM109.334 37.4055C109.414 37.3381 109.48 37.2546 109.526 37.1603C109.573 37.066 109.6 36.963 109.604 36.8579C109.609 36.7528 109.592 36.6478 109.554 36.5497C109.516 36.4515 109.458 36.3624 109.384 36.288C109.31 36.2136 109.221 36.1555 109.123 36.1174C109.026 36.0793 108.921 36.0621 108.816 36.0669C108.712 36.0716 108.609 36.0982 108.515 36.145C108.421 36.1918 108.338 36.2577 108.271 36.3385C108.19 36.4059 108.125 36.4894 108.078 36.5837C108.031 36.678 108.005 36.781 108 36.8861C107.995 36.9913 108.013 37.0963 108.051 37.1944C108.089 37.2925 108.146 37.3816 108.22 37.456C108.295 37.5305 108.383 37.5886 108.481 37.6266C108.579 37.6647 108.683 37.6819 108.788 37.6772C108.893 37.6724 108.996 37.6458 109.089 37.599C109.183 37.5523 109.267 37.4864 109.334 37.4055ZM111.927 40.8788L112.894 39.3689L111.337 40.5L111.146 40.3719L111.523 38.4833L110.556 39.9931L110.115 39.705L111.454 37.6136L112.076 38.0138L111.746 39.6517L113.091 38.67L113.713 39.0755L112.374 41.1669L111.927 40.8788ZM113.957 41.9459L114.855 39.6303L116.492 40.2652L116.322 40.7027L115.18 40.2546L114.994 40.7401L116.11 41.1776L115.94 41.6151L114.824 41.1776L114.616 41.7111L115.759 42.1593L115.594 42.5914L113.957 41.9459ZM117.103 42.6714L117.47 42.3247C117.548 42.4504 117.651 42.5585 117.773 42.642C117.894 42.7256 118.032 42.7829 118.177 42.8102C118.464 42.8689 118.623 42.7675 118.655 42.6234C118.735 42.1966 117.279 42.2179 117.459 41.3003C117.493 41.1943 117.547 41.0962 117.619 41.0117C117.692 40.9272 117.78 40.858 117.879 40.8083C117.978 40.7585 118.086 40.7292 118.196 40.7221C118.307 40.715 118.418 40.7302 118.522 40.7668C118.873 40.8224 119.188 41.014 119.399 41.3003L119.038 41.6311C118.878 41.4188 118.645 41.2742 118.384 41.2256C118.161 41.1776 118.023 41.2523 117.991 41.3963C117.917 41.7805 119.362 41.7965 119.187 42.7088C119.096 43.157 118.708 43.4291 118.06 43.301C117.866 43.2624 117.682 43.1843 117.519 43.0714C117.357 42.9585 117.219 42.8133 117.114 42.6448L117.103 42.6714ZM120.616 43.5678L120.696 41.0762L122.45 41.1349V41.6044L121.227 41.5617V42.0952L122.423 42.1326V42.5968L121.227 42.5594V43.1249L122.45 43.1676V43.6318L120.616 43.5678ZM125.474 43.2797L124.857 42.4474L124.475 42.5061L124.613 43.381L124.081 43.4611L123.693 41.0068L124.836 40.8201C124.942 40.7945 125.053 40.7917 125.16 40.8118C125.267 40.832 125.369 40.8747 125.459 40.9372C125.549 40.9996 125.625 41.0804 125.681 41.1743C125.738 41.2681 125.774 41.3728 125.787 41.4817C125.823 41.6462 125.799 41.8179 125.722 41.967C125.644 42.1161 125.517 42.2332 125.362 42.298L126.069 43.1463L125.474 43.2797ZM125.261 41.5991C125.254 41.5529 125.237 41.5089 125.211 41.4698C125.186 41.4307 125.153 41.3975 125.113 41.3723C125.074 41.3471 125.03 41.3305 124.984 41.3236C124.938 41.3167 124.891 41.3197 124.847 41.3323L124.315 41.4177L124.416 42.0846L124.948 41.9939C124.998 41.9923 125.047 41.9794 125.092 41.9561C125.137 41.9327 125.175 41.8995 125.206 41.859C125.236 41.8185 125.256 41.7717 125.266 41.7221C125.276 41.6724 125.274 41.6213 125.261 41.5724V41.5991ZM128.216 42.5647L126.483 40.5427L127.047 40.3399L128.333 41.9085V39.8758L128.896 39.6784L128.827 42.346L128.216 42.5647ZM130.974 41.3857L129.8 39.1929L130.267 38.9421L131.437 41.1349L130.974 41.3857ZM132.037 39.3796C131.931 39.2419 131.855 39.0839 131.813 38.9154C131.77 38.7468 131.763 38.5714 131.791 38.3998C131.818 38.2282 131.881 38.0643 131.975 37.918C132.068 37.7718 132.191 37.6464 132.335 37.5496C132.5 37.4174 132.699 37.3351 132.909 37.3125C133.119 37.2898 133.331 37.3276 133.52 37.4215L133.291 37.8697C133.183 37.819 133.063 37.7977 132.943 37.808C132.824 37.8183 132.709 37.8598 132.611 37.9284C132.438 38.0579 132.323 38.2512 132.291 38.4658C132.26 38.6804 132.315 38.8988 132.444 39.0728C132.573 39.2469 132.765 39.3623 132.979 39.3939C133.193 39.4254 133.41 39.3703 133.584 39.2409C133.679 39.167 133.753 39.0684 133.797 38.9556C133.841 38.8428 133.854 38.7201 133.833 38.6006L134.328 38.5046C134.363 38.7145 134.338 38.9302 134.256 39.1267C134.175 39.3231 134.039 39.4922 133.865 39.6143C133.729 39.7303 133.571 39.8162 133.399 39.8662C133.228 39.9162 133.048 39.9293 132.871 39.9046C132.695 39.8799 132.525 39.818 132.374 39.7229C132.223 39.6279 132.094 39.5018 131.995 39.3529L132.037 39.3796ZM135.757 37.9177L133.95 36.2158L135.146 34.93L135.486 35.2501L134.652 36.1197L135.034 36.4772L135.853 35.5969L136.193 35.917L135.375 36.7973L135.784 37.1815L136.623 36.2851L136.958 36.5999L135.757 37.9177ZM137.569 35.2928L137.383 34.8233C137.528 34.7979 137.667 34.7426 137.789 34.6609C137.912 34.5792 138.016 34.4728 138.096 34.3484C138.255 34.103 138.223 33.9163 138.096 33.8149C137.734 33.5748 137.208 34.9406 136.427 34.4285C136.337 34.359 136.263 34.272 136.209 34.1726C136.154 34.0733 136.12 33.9638 136.109 33.8509C136.098 33.738 136.11 33.624 136.145 33.516C136.179 33.4079 136.236 33.3081 136.31 33.2227C136.494 32.9187 136.787 32.6972 137.128 32.6038L137.293 33.068C137.039 33.1372 136.819 33.2988 136.677 33.5215C136.554 33.7082 136.565 33.8683 136.677 33.9483C137.006 34.167 137.564 32.8225 138.335 33.3347C138.717 33.5802 138.824 34.0443 138.462 34.6045C138.264 34.9351 137.943 35.1731 137.569 35.2661V35.2928ZM117.454 23.059H113.351V13.2155H117.348C119.017 13.2155 120.138 14.2398 120.138 15.7657C120.153 16.2364 120.024 16.7004 119.768 17.0953C119.513 17.4902 119.143 17.7971 118.708 17.9745C119.18 18.1677 119.584 18.4978 119.868 18.9227C120.152 19.3475 120.303 19.8477 120.303 20.3594C120.303 21.9973 119.197 23.059 117.454 23.059ZM114.723 21.8106H117.22C118.283 21.8106 118.91 21.2237 118.91 20.21C118.919 19.9892 118.88 19.769 118.797 19.5644C118.714 19.3598 118.588 19.1755 118.428 19.0238C118.268 18.8722 118.077 18.7567 117.869 18.6852C117.661 18.6138 117.439 18.5879 117.22 18.6094H114.723V21.8106ZM114.723 17.4036H117.151C117.355 17.4311 117.563 17.4134 117.759 17.3516C117.956 17.2899 118.136 17.1857 118.288 17.0463C118.44 16.9069 118.56 16.7358 118.639 16.545C118.718 16.3541 118.754 16.1482 118.746 15.9418C118.754 15.7345 118.717 15.528 118.639 15.3363C118.56 15.1446 118.44 14.9723 118.289 14.8314C118.137 14.6904 117.957 14.5841 117.761 14.5197C117.564 14.4554 117.356 14.4345 117.151 14.4586H114.723V17.4036ZM130.576 23.059H129.21V18.6201H124.124V23.059H122.753V13.2155H124.124V17.3716H129.21V13.2101H130.576V23.059ZM121.174 34.7966H119.808V30.3363H114.723V34.7699H113.351V24.9317H114.723V29.1092H119.808V24.9477H121.174V34.7966ZM126.94 34.9727C126.236 34.9937 125.535 34.8622 124.886 34.5869C124.237 34.3116 123.654 33.8991 123.178 33.3774L123.13 33.3241L123.964 32.257L124.028 32.337C124.394 32.7648 124.847 33.1082 125.357 33.3439C125.867 33.5796 126.422 33.7021 126.983 33.7029C128.577 33.7029 129.167 32.8759 129.167 32.1023C129.167 31.0352 128.035 30.7151 126.723 30.3577C125.192 29.9468 123.46 29.4773 123.46 27.546C123.46 25.9454 124.894 24.7663 126.866 24.7663C127.509 24.7435 128.149 24.855 128.746 25.0938C129.344 25.3326 129.885 25.6934 130.336 26.1535L130.39 26.2122L129.555 27.2312L129.491 27.1565C129.143 26.7844 128.72 26.4911 128.25 26.2961C127.78 26.1011 127.273 26.0088 126.765 26.0254C125.654 26.0254 124.873 26.623 124.873 27.4766C124.873 28.3303 125.936 28.645 127.126 28.9758C128.721 29.4133 130.576 29.9148 130.576 32.0116C130.576 33.4361 129.624 34.946 126.94 34.946V34.9727Z" fill="white"/>
<path d="M11.7444 147.227H10.9525C10.757 146.587 10.4434 145.989 10.0278 145.466C9.72588 144.963 9.24555 144.593 8.68328 144.431C8.46539 144.431 8.20498 144.383 7.90737 144.372C7.60976 144.362 7.26963 144.372 6.88699 144.372H4.37857V150.31H6.10045C6.5122 150.326 6.92365 150.272 7.31746 150.15C7.60021 150.048 7.85378 149.877 8.05618 149.654C8.23207 149.444 8.36401 149.201 8.44412 148.939C8.56285 148.605 8.63963 148.257 8.67266 147.904H9.46451V153.72H8.69922C8.66851 153.357 8.59537 152.998 8.48133 152.653C8.39883 152.35 8.26391 152.065 8.08274 151.81C7.87948 151.552 7.60055 151.365 7.28558 151.276C6.90826 151.173 6.51809 151.124 6.12703 151.132H4.40515V156.222C4.40058 156.434 4.44611 156.644 4.53801 156.835C4.64867 157.031 4.8205 157.185 5.02693 157.273C5.24968 157.352 5.47914 157.411 5.7125 157.449C5.97674 157.507 6.24503 157.544 6.51499 157.561V158.303H-0.00585938V157.561C0.206719 157.561 0.488383 157.524 0.839137 157.497C1.07225 157.488 1.30303 157.447 1.52471 157.374C1.72017 157.298 1.88351 157.157 1.98706 156.974C2.0879 156.776 2.13727 156.556 2.13056 156.334V145.663C2.13283 145.455 2.09306 145.248 2.01364 145.055C1.91288 144.853 1.73748 144.698 1.52471 144.623C1.27978 144.513 1.02295 144.433 0.759424 144.383C0.507204 144.324 0.251621 144.282 -0.00585938 144.255V143.519H11.7444V147.227Z" fill="white"/>
<path d="M22.9464 153.074C22.9482 153.8 22.8316 154.521 22.601 155.208C22.3935 155.862 22.0553 156.467 21.6072 156.985C21.1476 157.524 20.5688 157.948 19.9172 158.223C19.2328 158.504 18.4989 158.644 17.7595 158.633C17.1121 158.637 16.4705 158.51 15.8729 158.26C15.2746 158.017 14.7321 157.654 14.2785 157.193C13.806 156.704 13.4355 156.126 13.1891 155.491C12.9085 154.772 12.7695 154.006 12.7799 153.234C12.7216 151.785 13.2332 150.371 14.2041 149.297C15.1755 148.329 16.4841 147.78 17.8523 147.765C19.2205 147.75 20.5407 148.271 21.5328 149.217C22.0122 149.733 22.3842 150.34 22.627 151.002C22.8697 151.665 22.9783 152.369 22.9464 153.074ZM20.7622 153.074C20.758 152.521 20.7065 151.97 20.6081 151.426C20.5246 150.913 20.3633 150.416 20.1298 149.953C19.9217 149.539 19.6172 149.183 19.2422 148.913C18.8464 148.643 18.3756 148.507 17.8977 148.523C17.406 148.509 16.922 148.647 16.5106 148.918C16.1159 149.191 15.7945 149.557 15.5753 149.985C15.3371 150.439 15.1755 150.929 15.097 151.436C15.0061 151.965 14.9598 152.5 14.9588 153.037C14.9563 153.656 15.0114 154.274 15.1235 154.883C15.2212 155.414 15.4005 155.927 15.655 156.403C15.8666 156.827 16.1765 157.192 16.5585 157.47C16.9561 157.735 17.4264 157.867 17.903 157.849C18.3331 157.85 18.7553 157.734 19.1243 157.512C19.4932 157.29 19.7949 156.971 19.9969 156.59C20.5668 155.516 20.8316 154.305 20.7622 153.09V153.074Z" fill="white"/>
<path d="M34.4761 158.313H29.6931V157.625C30.012 157.593 30.283 157.556 30.5062 157.524C30.7294 157.492 30.8357 157.396 30.8357 157.251C30.8235 157.148 30.7891 157.047 30.7347 156.958C30.6603 156.825 30.5912 156.707 30.5222 156.595C30.3468 156.323 30.1023 155.96 29.7994 155.528C29.4965 155.096 29.1138 154.525 28.6727 153.896C28.306 154.344 27.9659 154.787 27.6577 155.213C27.3494 155.64 27.0199 156.094 26.6851 156.574C26.6276 156.657 26.5761 156.745 26.531 156.835C26.4857 156.912 26.4584 156.997 26.4513 157.086C26.4513 157.235 26.5523 157.364 26.7542 157.465C27.0404 157.588 27.3467 157.656 27.6577 157.668V158.335H23.8047V157.689C24.2144 157.58 24.605 157.409 24.9632 157.182C25.263 156.975 25.533 156.727 25.7657 156.446L26.6798 155.299C27.0731 154.808 27.5797 154.145 28.1997 153.309C27.8384 152.807 27.4026 152.188 26.8871 151.457C26.3716 150.726 25.9411 150.118 25.601 149.633C25.431 149.384 25.2187 149.167 24.9739 148.993C24.6725 148.813 24.3247 148.727 23.9747 148.747V148.059H28.5027V148.747C28.2806 148.748 28.0587 148.762 27.8384 148.79C27.6205 148.816 27.5142 148.88 27.5142 148.977C27.5169 149.05 27.5389 149.122 27.5779 149.185C27.6239 149.271 27.6754 149.355 27.7321 149.435L28.4548 150.529C28.7843 151.02 29.1351 151.543 29.5177 152.092C29.7675 151.762 30.0492 151.372 30.384 150.924C30.7188 150.476 31.0111 150.06 31.2874 149.654C31.314 149.606 31.3406 149.547 31.3725 149.473C31.3988 149.405 31.4131 149.332 31.415 149.259C31.415 149.11 31.2927 148.998 31.0483 148.907C30.8218 148.827 30.5889 148.766 30.3521 148.726V148.059H34.2104V148.704C33.7661 148.804 33.3395 148.971 32.9455 149.201C32.6566 149.38 32.3968 149.604 32.175 149.862C31.9411 150.15 31.6435 150.497 31.3459 150.929L30.0013 152.679C30.6426 153.565 31.1634 154.294 31.5638 154.867C31.9641 155.439 32.368 156.026 32.7755 156.627C32.9553 156.908 33.1861 157.152 33.4557 157.348C33.7636 157.546 34.1209 157.653 34.4867 157.657L34.4761 158.313Z" fill="white"/>
<path d="M55.1586 149.686C54.7329 149.722 54.3124 149.804 53.9044 149.932C53.5259 150.03 53.1865 150.242 52.9319 150.54C52.748 150.765 52.5959 151.015 52.4801 151.282C52.3313 151.609 52.1542 151.993 51.9487 152.434C51.7414 152.882 51.5235 153.32 51.311 153.752C51.0734 154.21 50.7903 154.642 50.466 155.043C50.7476 155.374 51.0931 155.736 51.497 156.11C51.8204 156.43 52.1767 156.714 52.5599 156.958C52.9368 157.151 53.3396 157.287 53.7556 157.364C54.1728 157.463 54.5978 157.525 55.0258 157.55V158.292H50.6785L49.0842 156.521C48.8504 156.772 48.5846 157.028 48.287 157.294C47.9981 157.56 47.6809 157.792 47.3411 157.988C46.9926 158.19 46.6238 158.355 46.241 158.479C45.8184 158.604 45.3793 158.663 44.9389 158.655C44.4137 158.655 43.8911 158.579 43.3871 158.431C42.8787 158.286 42.4026 158.045 41.9841 157.721C41.5661 157.389 41.2267 156.968 40.9903 156.489C40.7245 155.93 40.5951 155.315 40.6129 154.696C40.6038 153.865 40.8446 153.051 41.3038 152.359C42.0011 151.447 42.8786 150.69 43.8814 150.134C43.3994 149.519 42.9556 148.874 42.5527 148.203C42.2325 147.651 42.0689 147.022 42.0797 146.384C42.0739 145.928 42.1721 145.477 42.3667 145.066C42.5624 144.657 42.8412 144.293 43.1852 143.999C43.5351 143.715 43.9354 143.499 44.365 143.364C44.8232 143.214 45.3019 143.137 45.7839 143.135C46.2907 143.126 46.7943 143.217 47.2667 143.401C47.6583 143.554 48.012 143.791 48.303 144.095C48.5502 144.36 48.7417 144.672 48.8663 145.013C48.9954 145.344 49.0621 145.697 49.0629 146.053C49.0755 146.837 48.797 147.598 48.2817 148.187C47.6653 148.85 46.932 149.393 46.1187 149.788C46.7777 150.67 47.4243 151.474 48.0585 152.199C48.6927 152.925 49.3003 153.636 49.8814 154.333C50.3086 153.667 50.675 152.964 50.9761 152.231C51.2126 151.683 51.3443 151.095 51.3641 150.497C51.3641 150.273 51.1993 150.097 50.8752 149.964C50.4324 149.804 49.9774 149.681 49.5147 149.596V148.854H55.1639L55.1586 149.686ZM48.5209 155.939C47.8654 155.118 47.1285 154.219 46.31 153.245C45.4916 152.27 44.8344 151.44 44.3384 150.753C43.8168 151.089 43.3989 151.563 43.132 152.125C42.8895 152.692 42.77 153.305 42.7813 153.922C42.7505 154.78 43.0406 155.617 43.5944 156.27C43.8681 156.58 44.2071 156.824 44.5868 156.986C44.9665 157.147 45.3773 157.222 45.7892 157.204C46.3099 157.201 46.824 157.088 47.2985 156.873C47.7789 156.672 48.1997 156.35 48.5209 155.939ZM47.6971 146.298C47.735 145.715 47.5676 145.137 47.2241 144.666C47.0569 144.475 46.8484 144.324 46.6144 144.226C46.3805 144.128 46.1273 144.085 45.8743 144.1C45.5885 144.089 45.3051 144.157 45.0558 144.298C44.8402 144.428 44.6509 144.598 44.4978 144.799C44.3592 144.987 44.2565 145.198 44.1949 145.423C44.1361 145.615 44.1039 145.815 44.0992 146.016C44.1079 146.524 44.2373 147.024 44.4766 147.472C44.8195 148.097 45.2141 148.691 45.6564 149.249C46.2698 148.939 46.8043 148.491 47.2188 147.942C47.5423 147.456 47.7093 146.882 47.6971 146.298Z" fill="white"/>
<path d="M76.0022 158.313H71.9686C71.0757 156.93 70.2697 155.735 69.5505 154.728C68.8277 153.72 68.0465 152.685 67.2015 151.612H65.6709V156.302C65.6662 156.521 65.7041 156.738 65.7825 156.942C65.832 157.043 65.902 157.133 65.988 157.206C66.0741 157.278 66.1742 157.332 66.2821 157.364C66.4983 157.432 66.7209 157.479 66.9464 157.502C67.26 157.54 67.531 157.566 67.7489 157.572V158.313H61.4141V157.572C61.5841 157.572 61.8286 157.534 62.1475 157.502C62.3761 157.488 62.6015 157.441 62.8171 157.364C63.0122 157.29 63.1756 157.15 63.2794 156.969C63.3829 156.762 63.4323 156.533 63.4229 156.302V145.631C63.4257 145.412 63.3897 145.193 63.3166 144.986C63.2689 144.883 63.1995 144.791 63.1133 144.718C63.0271 144.644 62.926 144.59 62.8171 144.559C62.594 144.482 62.3646 144.425 62.1315 144.388C61.8943 144.342 61.6548 144.308 61.4141 144.287V143.551H68.3229C68.9234 143.547 69.5224 143.612 70.1085 143.743C70.6435 143.86 71.1554 144.065 71.6231 144.351C72.0795 144.635 72.4526 145.036 72.7047 145.512C72.9567 145.988 73.0787 146.523 73.058 147.061C73.0664 147.577 72.9762 148.09 72.7923 148.571C72.6202 149.004 72.3532 149.392 72.0111 149.708C71.6708 150.021 71.2857 150.282 70.8685 150.481C70.3963 150.702 69.9054 150.881 69.4017 151.015C70.1386 151.982 70.7533 152.795 71.2458 153.453C71.7383 154.111 72.3388 154.913 73.0474 155.859C73.2856 156.201 73.566 156.511 73.8818 156.782C74.1143 156.967 74.3633 157.129 74.6258 157.268C74.8437 157.368 75.0744 157.438 75.3114 157.476C75.5395 157.518 75.7704 157.545 76.0022 157.556V158.313ZM70.4486 147.296C70.4697 146.906 70.4114 146.515 70.277 146.148C70.1427 145.781 69.9353 145.446 69.6674 145.162C69.3715 144.889 69.0235 144.678 68.6445 144.543C68.2655 144.409 67.8632 144.352 67.4619 144.378H65.6709V150.711H67.0527C67.9497 150.739 68.8214 150.409 69.4761 149.793C69.8042 149.469 70.0604 149.079 70.228 148.649C70.3956 148.218 70.4708 147.757 70.4486 147.296Z" fill="white"/>
<path d="M86.4562 153.074C86.458 153.8 86.3413 154.521 86.1108 155.208C85.9032 155.862 85.5651 156.467 85.117 156.985C84.6563 157.523 84.0778 157.946 83.4269 158.223C82.7425 158.504 82.0087 158.644 81.2693 158.633C80.6218 158.637 79.9803 158.51 79.3827 158.26C78.7844 158.017 78.2419 157.654 77.7883 157.193C77.3157 156.704 76.9453 156.126 76.6989 155.491C76.4183 154.772 76.2793 154.006 76.2896 153.234C76.2314 151.785 76.7429 150.371 77.7139 149.297C78.6853 148.329 79.9939 147.78 81.3621 147.765C82.7303 147.75 84.0504 148.271 85.0425 149.217C85.522 149.733 85.894 150.34 86.1368 151.002C86.3795 151.665 86.4881 152.369 86.4562 153.074ZM84.272 153.074C84.2686 152.521 84.2152 151.969 84.1125 151.426C84.0331 150.913 83.8735 150.416 83.6395 149.953C83.4315 149.539 83.127 149.183 82.752 148.913C82.3562 148.643 81.8854 148.507 81.4075 148.523C80.9158 148.509 80.4317 148.647 80.0204 148.918C79.6256 149.191 79.3043 149.557 79.085 149.985C78.8469 150.439 78.6853 150.929 78.6067 151.436C78.405 152.567 78.405 153.725 78.6067 154.856C78.7044 155.388 78.8837 155.9 79.1382 156.377C79.3498 156.8 79.6597 157.166 80.0416 157.444C80.439 157.709 80.9095 157.841 81.3862 157.823C81.8163 157.824 82.2385 157.707 82.6075 157.485C82.9764 157.263 83.2781 156.945 83.4801 156.563C84.0545 155.5 84.3283 154.299 84.272 153.09V153.074Z" fill="white"/>
<path d="M97.8122 158.127C97.4827 158.244 97.1904 158.34 96.9406 158.415C96.6632 158.489 96.3772 158.525 96.0903 158.522C95.6231 158.544 95.1617 158.411 94.7776 158.143C94.4381 157.864 94.2145 157.468 94.1505 157.033H94.0867C93.6698 157.502 93.1709 157.891 92.6146 158.18C92.0229 158.457 91.3753 158.592 90.7227 158.575C90.0117 158.602 89.3186 158.347 88.7935 157.865C88.5433 157.628 88.3465 157.339 88.2163 157.019C88.0862 156.699 88.0257 156.354 88.0389 156.009C88.0338 155.646 88.0913 155.285 88.2089 154.942C88.4297 154.345 88.8557 153.847 89.41 153.538C89.6734 153.393 89.9449 153.263 90.2231 153.149C90.542 153.032 91.185 152.813 92.1523 152.493C92.8209 152.29 93.4745 152.041 94.108 151.746V150.711C94.0988 150.532 94.0793 150.354 94.0495 150.177C94.0123 149.92 93.9276 149.672 93.7998 149.446C93.6538 149.18 93.4505 148.951 93.2045 148.774C92.8816 148.563 92.4996 148.462 92.1151 148.486C91.8067 148.483 91.5004 148.537 91.2116 148.646C90.9961 148.72 90.7974 148.836 90.627 148.987C90.6367 149.195 90.6706 149.401 90.728 149.601C90.7886 149.847 90.8206 150.1 90.8237 150.353C90.8202 150.482 90.789 150.608 90.7321 150.723C90.6752 150.838 90.594 150.94 90.4942 151.02C90.2345 151.233 89.9042 151.34 89.5695 151.319C89.4195 151.33 89.2692 151.302 89.1332 151.237C88.9973 151.173 88.8802 151.074 88.7935 150.951C88.6301 150.707 88.5448 150.418 88.5491 150.124C88.554 149.788 88.6741 149.464 88.8892 149.206C89.1387 148.894 89.4409 148.629 89.782 148.422C90.1423 148.21 90.5281 148.045 90.93 147.931C91.3585 147.798 91.8045 147.729 92.2532 147.728C92.7694 147.721 93.2852 147.761 93.7944 147.846C94.2307 147.927 94.6419 148.11 94.9955 148.379C95.3639 148.649 95.6479 149.02 95.8139 149.446C96.0165 149.99 96.1104 150.568 96.0903 151.148C96.0903 152.148 96.0797 153.037 96.0584 153.816C96.0584 154.584 96.0265 155.416 96.0265 156.334C96.0154 156.558 96.065 156.781 96.17 156.98C96.278 157.152 96.4304 157.292 96.6111 157.385C96.766 157.462 96.9378 157.499 97.1106 157.492H97.8122V158.127ZM94.1292 152.626C93.5287 152.797 93.0079 152.968 92.5349 153.133C92.0957 153.297 91.6753 153.508 91.2807 153.762C90.9472 153.98 90.6629 154.265 90.4463 154.6C90.2355 154.949 90.1286 155.35 90.1381 155.758C90.1174 155.991 90.1481 156.227 90.228 156.447C90.3079 156.667 90.435 156.867 90.6004 157.033C90.9232 157.311 91.3392 157.456 91.7643 157.438C92.2293 157.448 92.687 157.322 93.0823 157.076C93.4484 156.849 93.7736 156.563 94.0442 156.227L94.1292 152.626Z" fill="white"/>
<path d="M103.658 158.585C102.993 158.622 102.329 158.508 101.714 158.251C101.1 157.994 100.551 157.602 100.108 157.102C99.4844 156.251 99.0738 155.262 98.911 154.219C98.7482 153.175 98.838 152.107 99.1728 151.105C99.4029 150.48 99.7411 149.9 100.172 149.393C100.617 148.871 101.171 148.453 101.795 148.17C102.418 147.886 103.096 147.742 103.78 147.75C104.666 147.709 105.54 147.962 106.268 148.47C106.577 148.694 106.826 148.992 106.994 149.336C107.162 149.68 107.243 150.061 107.229 150.444C107.236 150.769 107.149 151.089 106.98 151.367C106.888 151.502 106.763 151.61 106.616 151.68C106.47 151.75 106.307 151.78 106.145 151.767C105.796 151.79 105.45 151.679 105.178 151.458C105.074 151.374 104.989 151.269 104.929 151.149C104.87 151.029 104.837 150.898 104.833 150.764C104.834 150.438 104.877 150.113 104.96 149.798C105.027 149.562 105.076 149.321 105.109 149.078C104.984 148.866 104.782 148.711 104.546 148.646C104.284 148.574 104.014 148.538 103.743 148.539C103.409 148.537 103.079 148.61 102.776 148.753C102.422 148.94 102.118 149.208 101.888 149.537C101.595 149.964 101.381 150.442 101.256 150.945C101.083 151.643 101.003 152.361 101.017 153.079C100.969 154.197 101.272 155.302 101.883 156.238C102.128 156.621 102.465 156.934 102.864 157.149C103.263 157.364 103.71 157.472 104.163 157.465C104.772 157.486 105.373 157.314 105.88 156.974C106.4 156.573 106.833 156.07 107.155 155.496L107.83 155.934C107.391 156.727 106.76 157.396 105.997 157.881C105.3 158.334 104.488 158.579 103.658 158.585Z" fill="white"/>
<path d="M119.985 158.313H114.867V157.625L115.399 157.582C115.562 157.575 115.725 157.548 115.882 157.502C116.065 157.451 116.222 157.333 116.323 157.172C116.427 156.986 116.476 156.776 116.467 156.563V151.287C116.505 150.676 116.316 150.073 115.935 149.595C115.78 149.408 115.585 149.258 115.364 149.156C115.143 149.053 114.903 149.001 114.66 149.003C114.313 149.001 113.967 149.059 113.64 149.174C113.344 149.281 113.062 149.422 112.8 149.595C112.596 149.744 112.416 149.924 112.268 150.129C112.162 150.27 112.062 150.416 111.971 150.567V156.473C111.961 156.678 112.011 156.882 112.114 157.06C112.219 157.22 112.372 157.343 112.55 157.412C112.703 157.482 112.864 157.533 113.028 157.566C113.203 157.606 113.381 157.631 113.56 157.641V158.329H108.463V157.641L108.963 157.593C109.112 157.581 109.259 157.556 109.404 157.518C109.585 157.464 109.741 157.347 109.845 157.188C109.948 157.002 109.998 156.792 109.989 156.579V144.591C109.987 144.346 109.932 144.104 109.829 143.881C109.735 143.669 109.586 143.485 109.399 143.348C109.192 143.235 108.964 143.17 108.729 143.156C108.41 143.118 108.15 143.092 107.953 143.081V142.414L111.806 142.185L111.955 142.34V149.51H111.997C112.226 149.281 112.439 149.078 112.63 148.897C112.863 148.696 113.114 148.518 113.379 148.363C114.034 147.971 114.785 147.768 115.547 147.776C115.944 147.755 116.341 147.822 116.708 147.974C117.076 148.125 117.406 148.356 117.673 148.651C118.215 149.367 118.481 150.256 118.423 151.153V156.489C118.412 156.695 118.458 156.899 118.555 157.081C118.661 157.242 118.816 157.364 118.997 157.428C119.139 157.486 119.287 157.533 119.438 157.566C119.612 157.606 119.79 157.63 119.969 157.636L119.985 158.313Z" fill="white"/>
<path d="M125.006 157.951C125.009 158.443 124.892 158.928 124.666 159.364C124.456 159.781 124.192 160.167 123.879 160.512C123.587 160.836 123.265 161.132 122.918 161.397C122.626 161.625 122.315 161.827 121.988 162L121.504 161.307C121.839 161.093 122.142 160.885 122.413 160.677C122.653 160.494 122.872 160.284 123.066 160.053C123.274 159.812 123.453 159.547 123.598 159.263C123.752 158.96 123.849 158.631 123.885 158.292H123.353C122.954 158.314 122.562 158.184 122.253 157.929C122.12 157.804 122.015 157.652 121.947 157.482C121.878 157.313 121.846 157.13 121.855 156.948C121.866 156.63 121.995 156.327 122.216 156.099C122.339 155.962 122.491 155.853 122.661 155.782C122.831 155.711 123.015 155.679 123.199 155.688C123.457 155.67 123.716 155.714 123.953 155.819C124.19 155.923 124.398 156.083 124.56 156.286C124.886 156.777 125.043 157.362 125.006 157.951Z" fill="white"/>
<path d="M147.136 158.313H143.102C142.209 156.932 141.407 155.736 140.684 154.728C139.961 153.72 139.185 152.685 138.34 151.612H136.804V156.302C136.799 156.521 136.839 156.739 136.921 156.942C136.97 157.043 137.04 157.132 137.125 157.205C137.21 157.277 137.309 157.331 137.415 157.364C137.633 157.432 137.858 157.479 138.085 157.502C138.399 157.54 138.664 157.566 138.882 157.572V158.313H132.553V157.572C132.723 157.572 132.967 157.534 133.286 157.502C133.515 157.487 133.74 157.44 133.956 157.364C134.15 157.291 134.312 157.151 134.413 156.969C134.516 156.762 134.566 156.533 134.556 156.302V145.631C134.562 145.411 134.526 145.192 134.45 144.986C134.404 144.883 134.336 144.791 134.25 144.717C134.165 144.643 134.064 144.589 133.956 144.559C133.733 144.482 133.503 144.425 133.27 144.388C133.033 144.342 132.793 144.308 132.553 144.287V143.551H139.462C140.06 143.547 140.658 143.611 141.242 143.743C141.776 143.863 142.286 144.072 142.751 144.362C143.209 144.644 143.584 145.044 143.836 145.521C144.089 145.997 144.209 146.533 144.186 147.072C144.196 147.587 144.108 148.1 143.926 148.582C143.749 149 143.486 149.376 143.155 149.686C142.815 150 142.43 150.261 142.012 150.46C141.54 150.681 141.049 150.86 140.546 150.993C141.283 151.961 141.897 152.774 142.39 153.432C142.879 154.093 143.453 154.893 144.186 155.838C144.426 156.18 144.708 156.49 145.026 156.761C145.258 156.945 145.507 157.108 145.77 157.246C145.987 157.348 146.218 157.418 146.455 157.454C146.682 157.497 146.911 157.524 147.141 157.534L147.136 158.313ZM141.587 147.296C141.608 146.906 141.55 146.515 141.416 146.148C141.281 145.781 141.074 145.446 140.806 145.162C140.51 144.889 140.162 144.679 139.783 144.544C139.404 144.409 139.002 144.353 138.601 144.378H136.804V150.711H138.186C139.085 150.74 139.958 150.41 140.615 149.793C140.943 149.469 141.199 149.079 141.367 148.649C141.534 148.218 141.609 147.758 141.587 147.296Z" fill="white"/>
<path d="M160.306 153.954L160.024 158.308H147.594V157.566C147.801 157.566 148.083 157.524 148.433 157.481C148.667 157.464 148.898 157.415 149.119 157.337C149.317 157.259 149.484 157.116 149.592 156.931C149.686 156.733 149.731 156.516 149.725 156.297V145.674C149.727 145.466 149.687 145.259 149.608 145.066C149.507 144.863 149.332 144.708 149.119 144.634C148.876 144.525 148.621 144.444 148.359 144.394C148.107 144.336 147.851 144.293 147.594 144.266V143.529H159.179V147.088H158.387C158.197 146.472 157.886 145.901 157.473 145.407C157.165 144.926 156.69 144.578 156.139 144.431C155.922 144.431 155.661 144.383 155.358 144.372C155.055 144.362 154.71 144.372 154.295 144.372H151.946V150.241H153.631C154.033 150.262 154.436 150.211 154.821 150.092C155.085 149.977 155.313 149.792 155.48 149.558C155.657 149.315 155.791 149.042 155.874 148.753C155.977 148.442 156.05 148.122 156.092 147.798H156.883V153.592H156.092C156.058 153.228 155.981 152.87 155.863 152.525C155.782 152.236 155.653 151.964 155.48 151.719C155.292 151.469 155.033 151.283 154.736 151.185C154.376 151.092 154.003 151.051 153.631 151.063H151.946V155.491C151.938 155.849 151.968 156.207 152.037 156.558C152.086 156.791 152.218 156.998 152.409 157.14C152.632 157.288 152.89 157.377 153.158 157.396C153.607 157.44 154.057 157.46 154.508 157.454H155.427C155.805 157.454 156.129 157.454 156.389 157.412C156.667 157.381 156.942 157.331 157.213 157.262C157.439 157.217 157.649 157.114 157.824 156.964C158.231 156.508 158.573 155.998 158.839 155.448C159.108 154.971 159.335 154.471 159.519 153.954H160.306Z" fill="white"/>
<path d="M175.797 158.313H169.574V157.572C170.035 157.553 170.493 157.484 170.94 157.364C171.294 157.264 171.471 157.136 171.471 156.98C171.475 156.903 171.475 156.827 171.471 156.75C171.457 156.668 171.436 156.588 171.407 156.51L170.164 153.197H164.908C164.711 153.682 164.552 154.109 164.429 154.467L164.095 155.47C164.004 155.768 163.94 156.003 163.903 156.201C163.874 156.35 163.856 156.502 163.85 156.654C163.85 156.937 164.073 157.15 164.514 157.305C164.999 157.462 165.504 157.552 166.013 157.572V158.313H160.369V157.572C160.601 157.552 160.83 157.512 161.055 157.454C161.293 157.404 161.521 157.314 161.73 157.188C161.979 157.028 162.201 156.83 162.389 156.601C162.572 156.337 162.724 156.052 162.84 155.752C163.595 153.896 164.424 151.811 165.327 149.499C166.231 147.188 167.041 145.126 167.756 143.316H168.601L173.591 156.089C173.756 156.567 174.081 156.972 174.511 157.236C174.709 157.348 174.922 157.431 175.143 157.481C175.357 157.539 175.576 157.574 175.797 157.588V158.313ZM169.776 152.268L167.506 146.533L165.269 152.268H169.776Z" fill="white"/>
<path d="M188.355 153.917L188.041 158.313H176.35V157.572L177.083 157.502C177.311 157.487 177.537 157.44 177.753 157.364C177.945 157.288 178.107 157.149 178.21 156.969C178.313 156.762 178.363 156.533 178.353 156.302V145.717C178.356 145.501 178.315 145.286 178.231 145.087C178.129 144.888 177.959 144.733 177.753 144.65C177.533 144.549 177.306 144.469 177.072 144.41C176.836 144.341 176.594 144.292 176.35 144.266V143.529H182.668V144.266C182.179 144.308 181.695 144.399 181.223 144.538C181.115 144.569 181.016 144.623 180.932 144.697C180.847 144.771 180.78 144.862 180.734 144.964C180.644 145.168 180.599 145.388 180.601 145.61V155.555C180.594 155.912 180.617 156.269 180.67 156.622C180.702 156.85 180.815 157.059 180.989 157.209C181.205 157.352 181.454 157.437 181.712 157.454C182.16 157.499 182.611 157.518 183.062 157.513C183.317 157.513 183.593 157.513 183.87 157.513C184.138 157.499 184.406 157.471 184.672 157.428C184.903 157.391 185.131 157.334 185.352 157.257C185.527 157.204 185.685 157.108 185.815 156.98C186.195 156.529 186.531 156.043 186.819 155.528C187.133 155.021 187.4 154.485 187.616 153.928L188.355 153.917Z" fill="white"/>
<path d="M199.829 147.552H199.101C199.016 147.244 198.9 146.946 198.756 146.661C198.601 146.326 198.423 146.001 198.224 145.69C198.025 145.386 197.794 145.105 197.533 144.852C197.337 144.644 197.084 144.499 196.805 144.436C196.588 144.41 196.311 144.388 195.982 144.378C195.652 144.367 195.344 144.378 195.062 144.378H194.446V156.206C194.445 156.425 194.496 156.64 194.595 156.835C194.713 157.042 194.902 157.2 195.126 157.278C195.386 157.361 195.65 157.426 195.918 157.476C196.229 157.547 196.545 157.592 196.864 157.609V158.351H189.764V157.609C189.96 157.609 190.258 157.572 190.667 157.529C190.951 157.511 191.231 157.457 191.502 157.369C191.717 157.303 191.904 157.166 192.033 156.979C192.151 156.772 192.208 156.535 192.198 156.297V144.351H191.581H190.768C190.449 144.351 190.136 144.383 189.843 144.415C189.564 144.472 189.311 144.618 189.121 144.831C188.861 145.085 188.63 145.366 188.43 145.669C188.216 145.984 188.028 146.316 187.866 146.661C187.734 146.942 187.622 147.233 187.532 147.531H186.793V143.524H199.845L199.829 147.552Z" fill="white"/>
<path d="M212.684 145.279C213.362 145.988 213.89 146.826 214.236 147.744C214.99 149.811 214.99 152.08 214.236 154.147C213.878 155.064 213.335 155.898 212.642 156.595C211.993 157.258 211.217 157.783 210.362 158.137C209.485 158.499 208.546 158.68 207.598 158.671C206.607 158.681 205.625 158.485 204.713 158.095C203.85 157.729 203.075 157.183 202.438 156.494C201.781 155.785 201.274 154.95 200.945 154.04C200.579 153.052 200.399 152.004 200.413 150.951C200.396 149.856 200.591 148.769 200.987 147.75C201.351 146.837 201.893 146.006 202.581 145.306C203.232 144.629 204.015 144.097 204.883 143.743C205.756 143.385 206.692 143.203 207.636 143.209C208.597 143.198 209.551 143.38 210.442 143.743C211.285 144.098 212.048 144.62 212.684 145.279ZM211.09 155.758C211.495 155.1 211.786 154.379 211.951 153.624C212.135 152.747 212.224 151.852 212.217 150.956C212.224 150.018 212.124 149.081 211.919 148.166C211.75 147.397 211.451 146.663 211.037 145.994C210.668 145.425 210.169 144.953 209.581 144.618C208.967 144.28 208.277 144.109 207.577 144.122C206.829 144.104 206.091 144.302 205.451 144.692C204.855 145.08 204.36 145.605 204.006 146.224C203.631 146.888 203.366 147.609 203.219 148.358C203.042 149.207 202.954 150.072 202.959 150.94C202.948 151.851 203.041 152.76 203.235 153.65C203.398 154.406 203.689 155.128 204.096 155.784C204.454 156.373 204.948 156.865 205.536 157.22C206.164 157.583 206.879 157.767 207.604 157.753C208.312 157.764 209.01 157.586 209.627 157.237C210.244 156.889 210.758 156.382 211.117 155.768L211.09 155.758Z" fill="white"/>
<path d="M229.963 158.313H225.93C225.037 156.93 224.231 155.735 223.511 154.728C222.789 153.72 222.007 152.685 221.162 151.612H219.632V156.302C219.627 156.521 219.667 156.739 219.749 156.942C219.796 157.044 219.865 157.134 219.95 157.207C220.036 157.28 220.135 157.333 220.243 157.364C220.459 157.432 220.682 157.479 220.907 157.502C221.221 157.54 221.492 157.566 221.71 157.572V158.313H215.375V157.572C215.545 157.572 215.79 157.534 216.108 157.502C216.339 157.487 216.566 157.441 216.783 157.364C216.976 157.288 217.137 157.149 217.24 156.969C217.344 156.762 217.393 156.533 217.384 156.302V145.631C217.387 145.412 217.351 145.193 217.278 144.986C217.231 144.883 217.163 144.792 217.077 144.718C216.992 144.644 216.892 144.59 216.783 144.559C216.558 144.483 216.327 144.426 216.092 144.388C215.855 144.342 215.616 144.308 215.375 144.287V143.551H222.284C222.884 143.547 223.483 143.612 224.069 143.743C224.604 143.86 225.116 144.065 225.584 144.351C226.04 144.635 226.414 145.036 226.666 145.512C226.918 145.988 227.04 146.523 227.019 147.061C227.027 147.577 226.937 148.09 226.753 148.571C226.581 149.004 226.314 149.392 225.972 149.708C225.633 150.02 225.25 150.281 224.835 150.481C224.362 150.701 223.871 150.879 223.368 151.015C224.108 151.982 224.721 152.795 225.207 153.453C225.692 154.111 226.293 154.913 227.008 155.859C227.247 156.202 227.529 156.513 227.848 156.782C228.078 156.968 228.325 157.13 228.587 157.268C228.805 157.368 229.035 157.438 229.272 157.476C229.5 157.518 229.731 157.545 229.963 157.556V158.313ZM224.41 147.296C224.431 146.906 224.372 146.515 224.238 146.148C224.104 145.781 223.896 145.446 223.628 145.162C223.332 144.889 222.984 144.678 222.605 144.543C222.226 144.409 221.824 144.352 221.423 144.378H219.632V150.711H221.014C221.911 150.739 222.782 150.409 223.437 149.793C223.765 149.469 224.021 149.079 224.189 148.649C224.357 148.218 224.432 147.757 224.41 147.296Z" fill="white"/>
<path d="M239.878 151.532C240.186 151.86 240.424 152.246 240.58 152.669C240.741 153.133 240.818 153.623 240.808 154.114C240.823 154.729 240.698 155.338 240.444 155.897C240.19 156.457 239.813 156.951 239.342 157.342C238.327 158.205 237.03 158.66 235.701 158.617C235.022 158.614 234.347 158.51 233.698 158.308C233.091 158.132 232.509 157.881 231.965 157.561L231.508 158.324H230.668L230.52 153.261H231.375C231.535 153.84 231.741 154.406 231.992 154.952C232.232 155.467 232.547 155.943 232.927 156.366C233.285 156.773 233.721 157.105 234.208 157.342C234.74 157.597 235.324 157.723 235.914 157.71C236.344 157.718 236.773 157.655 237.184 157.524C237.514 157.415 237.816 157.233 238.066 156.99C238.289 156.759 238.459 156.483 238.566 156.179C238.682 155.836 238.737 155.475 238.73 155.112C238.724 154.52 238.539 153.943 238.199 153.458C237.831 152.92 237.303 152.513 236.69 152.295C236.233 152.114 235.712 151.916 235.095 151.698C234.479 151.479 233.995 151.271 233.57 151.079C232.8 150.762 232.122 150.256 231.598 149.606C231.105 148.915 230.858 148.076 230.897 147.227C230.892 146.682 231.012 146.144 231.248 145.653C231.486 145.156 231.822 144.713 232.236 144.351C232.661 143.98 233.151 143.692 233.682 143.503C234.239 143.295 234.83 143.191 235.425 143.193C236.057 143.184 236.685 143.291 237.28 143.508C237.798 143.703 238.298 143.946 238.773 144.234L239.203 143.529H240.048L240.133 148.432H239.278C239.124 147.899 238.948 147.333 238.746 146.832C238.56 146.333 238.306 145.863 237.992 145.434C237.693 145.037 237.315 144.708 236.881 144.468C236.388 144.217 235.839 144.094 235.287 144.111C234.658 144.096 234.048 144.324 233.581 144.746C233.357 144.937 233.177 145.175 233.055 145.443C232.933 145.711 232.871 146.003 232.874 146.298C232.851 146.867 233.009 147.427 233.326 147.899C233.67 148.351 234.124 148.707 234.644 148.934C235.137 149.169 235.643 149.38 236.158 149.563C236.652 149.745 237.136 149.932 237.598 150.134C238.017 150.314 238.424 150.52 238.815 150.753C239.207 150.958 239.565 151.221 239.878 151.532Z" fill="white"/>
<path d="M246.994 146.453C246.999 146.787 246.935 147.118 246.806 147.426C246.677 147.733 246.486 148.011 246.245 148.24C245.759 148.716 245.108 148.982 244.43 148.982C243.752 148.982 243.1 148.716 242.615 148.24C242.376 148.008 242.186 147.73 242.056 147.422C241.926 147.115 241.859 146.784 241.859 146.45C241.859 146.116 241.926 145.786 242.056 145.478C242.186 145.171 242.376 144.893 242.615 144.66C243.1 144.185 243.752 143.919 244.43 143.919C245.108 143.919 245.759 144.185 246.245 144.66C246.486 144.891 246.676 145.17 246.805 145.478C246.934 145.787 246.998 146.119 246.994 146.453ZM246.712 146.453C246.712 145.846 246.472 145.264 246.044 144.835C245.617 144.405 245.037 144.164 244.432 144.164C243.828 144.164 243.248 144.405 242.82 144.835C242.393 145.264 242.152 145.846 242.152 146.453C242.152 146.753 242.211 147.049 242.326 147.326C242.44 147.603 242.608 147.854 242.819 148.066C243.03 148.277 243.281 148.445 243.557 148.559C243.833 148.673 244.129 148.732 244.427 148.731C245.03 148.731 245.609 148.492 246.037 148.065C246.465 147.638 246.708 147.059 246.712 146.453ZM246.106 147.76H245.272C245.091 147.504 244.932 147.291 244.794 147.12L244.379 146.586H244.076V147.339C244.068 147.377 244.068 147.417 244.076 147.456C244.098 147.492 244.132 147.518 244.172 147.531C244.216 147.546 244.263 147.555 244.31 147.557H244.464V147.723H243.189V147.557H243.332C243.378 147.552 243.422 147.542 243.465 147.525C243.485 147.52 243.503 147.511 243.518 147.498C243.534 147.485 243.546 147.469 243.555 147.451C243.565 147.412 243.565 147.372 243.555 147.333V145.493C243.565 145.454 243.565 145.414 243.555 145.375C243.555 145.338 243.513 145.317 243.46 145.295L243.322 145.263C243.276 145.259 243.229 145.259 243.183 145.263V145.098H244.661C244.768 145.098 244.875 145.109 244.98 145.13C245.078 145.151 245.173 145.187 245.261 145.237C245.343 145.285 245.413 145.353 245.463 145.434C245.518 145.522 245.545 145.624 245.543 145.727C245.552 145.907 245.491 146.083 245.373 146.218C245.223 146.354 245.039 146.448 244.842 146.49L245.235 146.965L245.527 147.317C245.57 147.377 245.625 147.427 245.687 147.467C245.733 147.497 245.783 147.522 245.835 147.541C245.88 147.556 245.927 147.567 245.974 147.573H246.106V147.76ZM244.985 145.786C244.988 145.719 244.977 145.652 244.951 145.59C244.925 145.528 244.886 145.473 244.836 145.429C244.713 145.339 244.563 145.296 244.411 145.306H244.076V146.373H244.326C244.499 146.382 244.669 146.327 244.804 146.218C244.864 146.163 244.91 146.096 244.941 146.022C244.973 145.947 244.987 145.867 244.985 145.786Z" fill="white"/>
</g>
<defs>
<clipPath id="clip0_1250_4144">
<rect width="247" height="162" fill="white"/>
</clipPath>
</defs>
</svg>
