<svg width="45" height="40" viewBox="0 0 45 40" fill="none" xmlns="http://www.w3.org/2000/svg">
<path d="M10.924 39.6948C7.57741 39.6948 4.90018 38.4996 2.89225 36.1092C0.979939 33.6232 0.0237826 30.4201 0.0237826 26.4998C0.0237826 21.1454 1.45802 16.3168 4.32648 12.0141C7.29057 7.61576 11.7845 3.93456 17.8083 0.970479L19.3859 3.26525C16.5175 4.98633 13.888 7.42453 11.4977 10.5798C9.20288 13.6395 8.05549 16.747 8.05549 19.9024C8.05549 20.7629 8.29453 21.48 8.77261 22.0537C9.25069 22.5318 9.9678 22.7708 10.924 22.7708C13.3144 22.7708 15.3223 23.6314 16.9477 25.3524C18.6688 26.9779 19.5294 28.9858 19.5294 31.3762C19.5294 33.7666 18.6688 35.7746 16.9477 37.4C15.3223 38.9299 13.3144 39.6948 10.924 39.6948ZM35.7362 39.6948C32.3897 39.6948 29.7124 38.4996 27.7045 36.1092C25.7922 33.6232 24.836 30.4201 24.836 26.4998C24.836 21.1454 26.2703 16.3168 29.1387 12.0141C32.1028 7.61576 36.5967 3.93456 42.6205 0.970479L44.1982 3.26525C41.3297 4.98633 38.7003 7.42453 36.3099 10.5798C34.0151 13.6395 32.8677 16.747 32.8677 19.9024C32.8677 20.7629 33.1068 21.48 33.5849 22.0537C34.0629 22.5318 34.7801 22.7708 35.7362 22.7708C38.1266 22.7708 40.1345 23.6314 41.76 25.3524C43.4811 26.9779 44.3416 28.9858 44.3416 31.3762C44.3416 33.7666 43.4811 35.7746 41.76 37.4C40.1345 38.9299 38.1266 39.6948 35.7362 39.6948Z" fill="#284285"/>
</svg>
