<svg width="114" height="118" viewBox="0 0 114 118" fill="none" xmlns="http://www.w3.org/2000/svg">
<path d="M102.241 76.1377L82.3205 66.9542L71.6815 59.6812L71.7395 51.3005C73.9723 49.2914 75.7731 46.849 77.0322 44.1219H78.1452C80.2577 44.1272 82.2918 43.3221 83.8286 41.8725C85.3653 40.4229 86.2876 38.4392 86.4054 36.3299C86.5233 34.2206 85.8277 32.1465 84.462 30.5347C83.0963 28.923 81.1645 27.8964 79.0645 27.6663V8.89016C79.0609 7.20337 78.4805 5.56855 77.4196 4.25714C76.3587 2.94573 74.8811 2.03663 73.2323 1.68077C62.5265 -0.560255 51.4726 -0.560255 40.7668 1.68077C39.1181 2.03681 37.6408 2.94599 36.5801 4.25738C35.5194 5.56878 34.9391 7.20349 34.9355 8.89016V27.6663C32.8355 27.8964 30.9037 28.923 29.538 30.5347C28.1723 32.1465 27.4768 34.2206 27.5946 36.3299C27.7124 38.4392 28.6347 40.4229 30.1714 41.8725C31.7082 43.3221 33.7423 44.1272 35.8548 44.1219H36.9678C38.2325 46.8613 40.0437 49.3134 42.2903 51.3276V59.7003L31.6795 66.9542L11.7595 76.1377C8.2536 77.7614 5.28438 80.3526 3.20114 83.6064C1.1179 86.8603 0.0072998 90.6415 0 94.5051V115.832C0 116.319 0.193721 116.787 0.538545 117.132C0.88337 117.477 1.35105 117.67 1.83871 117.67C2.32637 117.67 2.79405 117.477 3.13887 117.132C3.4837 116.787 3.67742 116.319 3.67742 115.832V94.5051C3.68359 91.3441 4.59229 88.2506 6.29664 85.5884C8.00099 82.9263 10.4301 80.8062 13.2983 79.4775L16.5484 77.9791V115.832C16.5484 116.319 16.7421 116.787 17.0869 117.132C17.4318 117.477 17.8994 117.67 18.3871 117.67C18.8748 117.67 19.3424 117.477 19.6873 117.132C20.0321 116.787 20.2258 116.319 20.2258 115.832V76.2838L32.0119 70.8506L62.5161 111.343V115.832C62.5161 116.319 62.7099 116.787 63.0547 117.132C63.3995 117.477 63.8672 117.67 64.3548 117.67C64.8425 117.67 65.3102 117.477 65.655 117.132C65.9998 116.787 66.1936 116.319 66.1936 115.832V110.727C66.1935 110.327 66.0637 109.939 65.8236 109.621L59.3021 100.964L81.9881 70.8506L93.7742 76.2838V115.832C93.7742 116.319 93.9679 116.787 94.3127 117.132C94.6576 117.477 95.1253 117.67 95.6129 117.67C96.1006 117.67 96.5682 117.477 96.9131 117.132C97.2579 116.787 97.4516 116.319 97.4516 115.832V77.9791L100.702 79.4775C103.57 80.8062 105.999 82.9263 107.703 85.5884C109.408 88.2506 110.316 91.3441 110.323 94.5051V115.832C110.323 116.319 110.516 116.787 110.861 117.132C111.206 117.477 111.674 117.67 112.161 117.67C112.649 117.67 113.117 117.477 113.461 117.132C113.806 116.787 114 116.319 114 115.832V94.5051C113.993 90.6415 112.882 86.8603 110.799 83.6064C108.716 80.3526 105.746 77.7614 102.241 76.1377ZM63.8065 88.8735L62.8088 86.6635L65.7629 82.8491L67.3784 84.1322L63.8065 88.8735ZM54.2235 84.5735L51.1161 80.5621L57 75.8898L62.8839 80.5621L59.7765 84.5735H54.2235ZM46.6214 84.1322L48.2369 82.8489L51.1908 86.6632L50.1931 88.8731L46.6214 84.1322ZM69.5913 81.1937L59.7581 73.3833L70.0927 63.0497L78.7852 68.9915L69.5913 81.1937ZM82.7419 35.8477C82.7404 37.028 82.2856 38.1626 81.4713 39.0171C80.6571 39.8716 79.5458 40.3806 78.3669 40.4391C78.8131 38.6356 79.0472 36.7861 79.0645 34.9283V31.3428C80.102 31.5565 81.0341 32.1211 81.7039 32.9416C82.3737 33.7622 82.7403 34.7885 82.7419 35.8477ZM38.6129 8.89016C38.6136 8.04658 38.9026 7.22856 39.432 6.57177C39.9614 5.91499 40.6994 5.45889 41.5236 5.27912C51.7303 3.14235 62.2688 3.14235 72.4755 5.27912C73.2999 5.45868 74.0381 5.91469 74.5677 6.5715C75.0973 7.22831 75.3864 8.04644 75.3871 8.89016V16.8751C63.2999 13.9806 50.7001 13.9806 38.6129 16.8751V8.89016ZM35.6331 40.4391C34.5137 40.386 33.4522 39.9257 32.6483 39.1449C31.8444 38.364 31.3534 37.3164 31.2677 36.199C31.182 35.0816 31.5075 33.9714 32.1829 33.0771C32.8584 32.1828 33.8372 31.566 34.9355 31.3428V34.9283C34.9563 36.7859 35.1904 38.6349 35.6331 40.4391ZM38.6129 34.9283V20.6967C50.682 17.6527 63.318 17.6527 75.3871 20.6967V34.9283C75.3871 39.8049 73.4499 44.4817 70.0016 47.93C66.5534 51.3782 61.8766 53.3154 57 53.3154C52.1234 53.3154 47.4466 51.3782 43.9984 47.93C40.5501 44.4817 38.6129 39.8049 38.6129 34.9283ZM57 56.9928C60.8812 56.9917 64.6924 55.9591 68.0433 54.0007L68.0021 59.9397L57 70.9411L45.9677 59.9088V54.0066C49.316 55.9609 53.1231 56.9914 57 56.9928ZM43.9073 63.0494L54.2419 73.3829L44.4576 81.1542L35.221 68.9871L43.9073 63.0494ZM52.7158 92.2225L54.5098 88.2509H59.4902L61.2836 92.2225L57 97.9083L52.7158 92.2225ZM57 112.154C57 112.518 56.8922 112.873 56.6901 113.176C56.4881 113.478 56.2009 113.714 55.8649 113.853C55.529 113.992 55.1592 114.028 54.8026 113.957C54.4459 113.887 54.1183 113.711 53.8611 113.454C53.604 113.197 53.4289 112.87 53.3579 112.513C53.287 112.156 53.3234 111.786 53.4625 111.45C53.6017 111.114 53.8374 110.827 54.1398 110.625C54.4421 110.423 54.7976 110.315 55.1613 110.315C55.6489 110.315 56.1166 110.509 56.4615 110.854C56.8063 111.199 57 111.666 57 112.154Z" fill="#284285"/>
</svg>
