<svg width="115" height="107" viewBox="0 0 115 107" fill="none" xmlns="http://www.w3.org/2000/svg">
<path d="M39.5 40.5L49.5685 35.6846C50.2323 35.3672 51 35.851 51 36.5867V47.5M39.5 40.5V67.0001M39.5 40.5H13.5M39.5 67.0001L49.5685 71.8155C50.2323 72.1329 51 71.6491 51 70.9133V60M39.5 67.0001H13.5M13.5 40.5V67.0001M13.5 40.5L2.53743 46.2196C2.20712 46.3919 2 46.7336 2 47.1062V59.438C2 59.787 2.18194 60.1107 2.48005 60.2922L13.5 67.0001M51 60C54 60.8333 61 60.4498 61 54C61 47 54.6667 47.1667 51 47.5M51 60V47.5M25.3044 89.7041C32.5477 94.4585 35.0876 88.8091 35.482 85.1802C35.4951 85.0601 35.4834 84.9404 35.4511 84.8239L30.7034 67.7324C30.5832 67.2996 30.1891 67.0001 29.7399 67.0001H19.8298C19.1642 67.0001 18.6843 67.6381 18.8691 68.2776L24.9003 89.1551C24.9648 89.3781 25.1103 89.5767 25.3044 89.7041Z" stroke="#6E8869" stroke-width="3"/>
<path fill-rule="evenodd" clip-rule="evenodd" d="M62.9233 16.5C62.9233 9.04416 68.9674 3 76.4233 3C83.8791 3 89.9233 9.04416 89.9233 16.5C89.9233 23.9558 83.8791 30 76.4233 30C68.9674 30 62.9233 23.9558 62.9233 16.5ZM76.4233 0C67.3106 0 59.9233 7.3873 59.9233 16.5C59.9233 18.336 60.2232 20.102 60.7766 21.7516L57.8714 29.095C57.1214 30.9908 58.8339 32.9389 60.8102 32.438L67.9121 30.6383C70.3971 32.1375 73.3095 33 76.4233 33C85.536 33 92.9233 25.6127 92.9233 16.5C92.9233 7.3873 85.536 0 76.4233 0ZM64.8978 28.3073C64.0111 27.4417 63.2216 26.4771 62.5471 25.4312L61.0205 29.2899L64.8978 28.3073Z" fill="#6E8869"/>
<path fill-rule="evenodd" clip-rule="evenodd" d="M81.7881 44.8668C87.0602 39.5947 95.6079 39.5947 100.88 44.8668C106.152 50.1388 106.152 58.6866 100.88 63.9586C95.6079 69.2307 87.0602 69.2307 81.7881 63.9586C76.516 58.6866 76.516 50.1388 81.7881 44.8668ZM103.001 42.7454C96.5576 36.3018 86.1104 36.3018 79.6668 42.7454C78.3685 44.0437 77.3318 45.5045 76.5567 47.0623L69.3099 50.2005C67.439 51.0107 67.2724 53.5992 69.024 54.6425L75.3184 58.3917C76.0155 61.2089 77.465 63.8782 79.6668 66.08C86.1104 72.5236 96.5576 72.5236 103.001 66.08C109.445 59.6363 109.445 49.1891 103.001 42.7454ZM74.8352 54.612C74.8204 53.373 74.9442 52.1326 75.2067 50.9161L71.3988 52.5651L74.8352 54.612Z" fill="#6E8869"/>
<path fill-rule="evenodd" clip-rule="evenodd" d="M73.1924 73.4657C80.5126 72.0497 87.5947 76.8359 89.0107 84.156C90.4268 91.4762 85.6406 98.5582 78.3204 99.9743C71.0003 101.39 63.9182 96.6042 62.5022 89.284C61.0861 81.9639 65.8723 74.8818 73.1924 73.4657ZM91.9561 83.5862C90.2254 74.6394 81.5695 68.7896 72.6227 70.5204C70.8201 70.8691 69.1432 71.4989 67.6287 72.3556L59.8673 70.8979C57.8635 70.5216 56.2761 72.573 57.1432 74.4182L60.259 81.049C59.2591 83.7735 58.9654 86.7967 59.5568 89.8538C61.2875 98.8006 69.9434 104.65 78.8902 102.92C87.8371 101.189 93.6869 92.5331 91.9561 83.5862ZM61.975 77.6468C62.6565 76.6119 63.4536 75.6536 64.3523 74.7927L60.2739 74.0268L61.975 77.6468Z" fill="#6E8869"/>
<path d="M87.9384 58.6756L87.9384 49.7948C87.9384 49.1058 88.7098 48.6981 89.2791 49.0862L96.2569 53.8438C96.776 54.1977 96.7509 54.9711 96.2101 55.2907L89.2323 59.414C88.6606 59.7518 87.9384 59.3397 87.9384 58.6756Z" stroke="#6E8869" stroke-width="3"/>
<path d="M80.4219 19.3888C80.4219 20.3643 80.0838 21.1713 79.4075 21.8096C78.7313 22.4408 77.7865 22.8389 76.5733 23.0039V25.5H75.2904V23.1007C74.5478 23.1007 73.8285 23.0398 73.1324 22.9178C72.4362 22.7887 71.8661 22.613 71.4219 22.3906V20.7122C71.9722 20.9776 72.6053 21.1964 73.3213 21.3685C74.044 21.5335 74.7003 21.616 75.2904 21.616V16.8819C73.9313 16.4157 72.9766 15.8742 72.4263 15.2573C71.8826 14.6405 71.6108 13.8443 71.6108 12.8688C71.6108 11.9292 71.9456 11.1581 72.6152 10.5556C73.2915 9.95308 74.1832 9.58727 75.2904 9.45816V7.5H76.5733V9.43664C77.7931 9.4725 78.9699 9.7379 80.1036 10.2328L79.5865 11.6423C78.5987 11.2191 77.5943 10.968 76.5733 10.8891V15.5586C77.6141 15.9172 78.3931 16.2687 78.9103 16.613C79.4274 16.9501 79.8086 17.341 80.0539 17.7857C80.2992 18.2233 80.4219 18.7576 80.4219 19.3888ZM78.7313 19.5287C78.7313 19.0123 78.5821 18.5962 78.2838 18.2806C77.992 17.9579 77.4219 17.6387 76.5733 17.3231V21.5084C78.0119 21.2932 78.7313 20.6333 78.7313 19.5287ZM73.2915 12.8473C73.2915 13.3924 73.4407 13.8299 73.739 14.1599C74.0373 14.4898 74.5545 14.8019 75.2904 15.0959V10.9322C74.634 11.0469 74.1368 11.2729 73.7987 11.61C73.4605 11.9399 73.2915 12.3524 73.2915 12.8473Z" fill="#6E8869" stroke="#6E8869"/>
<path d="M71.0092 84.4701C71.0092 85.3292 71.0879 85.9693 71.2453 86.3902C71.4027 86.8112 71.6604 87.0216 72.0186 87.0216C72.735 87.0216 73.0931 86.1711 73.0931 84.4701C73.0931 82.769 72.735 81.9185 72.0186 81.9185C71.6604 81.9185 71.4027 82.129 71.2453 82.5499C71.0879 82.9708 71.0092 83.6109 71.0092 84.4701ZM74.6723 84.4528C74.6723 85.779 74.4471 86.7766 73.9967 87.4454C73.5517 88.1086 72.8923 88.4401 72.0186 88.4401C71.1937 88.4401 70.5534 88.097 70.0975 87.4108C69.6471 86.7189 69.4219 85.7329 69.4219 84.4528C69.4219 81.8176 70.2875 80.5 72.0186 80.5C72.8706 80.5 73.5246 80.8431 73.9804 81.5293C74.4417 82.2097 74.6723 83.1842 74.6723 84.4528ZM78.7588 89.5213C78.7588 90.3805 78.8374 91.0234 78.9948 91.4501C79.1576 91.8768 79.4181 92.0902 79.7763 92.0902C80.4872 92.0902 80.8427 91.2339 80.8427 89.5213C80.8427 87.8318 80.4872 86.987 79.7763 86.987C79.4181 86.987 79.1576 87.1946 78.9948 87.6098C78.8374 88.025 78.7588 88.6621 78.7588 89.5213ZM82.4219 89.5213C82.4219 90.8475 82.1967 91.8422 81.7462 92.5053C81.2958 93.1684 80.6392 93.5 79.7763 93.5C78.9514 93.5 78.311 93.1598 77.8552 92.4794C77.3993 91.7932 77.1714 90.8072 77.1714 89.5213C77.1714 86.8861 78.0397 85.5685 79.7763 85.5685C80.612 85.5685 81.2605 85.9087 81.7218 86.5892C82.1885 87.2696 82.4219 88.247 82.4219 89.5213ZM80.0042 80.6816L73.4025 93.327H71.8233L78.425 80.6816H80.0042Z" fill="#6E8869" stroke="#6E8869" stroke-width="0.5"/>
</svg>
