<svg width="117" height="114" viewBox="0 0 117 114" fill="none" xmlns="http://www.w3.org/2000/svg">
<path d="M114.384 4.2523L68.0644 1.01147C66.4485 0.831425 65.5509 2.81193 66.6281 4.07225L77.7592 16.6755L56.3946 35.5803L53.8812 32.8796C50.47 29.0986 43.4682 30.8991 42.0319 35.9404C37.0049 33.9599 31.7984 37.9209 32.3371 42.9622C28.0282 43.1422 24.6171 46.9232 25.3352 50.8842C21.7445 51.4243 18.6924 54.6651 18.5129 57.7259C18.5129 58.9862 18.872 60.2466 19.7697 61.1468L23.3603 64.9278L1.6367 83.4725C0.918563 84.1927 0.739029 85.2729 1.45717 85.9931L20.1287 107.419C20.8469 108.139 21.9241 108.319 22.6422 107.599L36.4663 94.6353L38.6208 98.0562V111.2C38.6208 112.28 39.3389 113 40.4161 113H66.269C67.3462 113 68.0644 112.28 68.0644 111.2V80.5917L77.4001 68.7087C77.5797 68.3486 77.7592 67.9885 77.7592 67.6284V59.1663L98.7647 40.8016L109.896 53.4048C110.973 54.6651 112.948 53.945 113.127 52.3245L116 6.05275C116 5.15253 115.282 4.2523 114.384 4.2523ZM51.1881 35.2202L61.4216 46.383C62.4988 47.4633 61.9602 49.2638 60.7035 50.344C59.2672 51.4243 57.1128 51.4243 56.0356 50.344C55.6765 49.9839 44.7249 37.9209 45.4431 38.6411C44.0068 35.7603 49.0337 32.6995 51.1881 35.2202ZM42.0319 40.0814C42.2114 40.2615 54.0607 53.4048 53.3426 52.6846C54.4198 53.945 54.0607 55.7454 52.804 56.8257C51.3677 57.906 49.0337 57.906 47.777 56.4656C43.6477 51.7844 40.4161 48.5436 36.4663 44.0424C33.7733 40.8016 39.1594 36.8406 42.0319 40.0814ZM34.671 47.1032C34.8505 47.2833 45.443 58.9862 44.7249 58.2661C46.5203 60.9668 41.4933 64.3876 39.1594 62.047C38.6208 61.5069 29.1054 51.0642 29.285 51.2443C26.951 48.5436 32.3371 44.5826 34.671 47.1032ZM27.4896 54.4851C27.6692 54.6651 36.4663 64.0275 35.7482 63.4874C36.6459 65.6479 31.7984 68.7087 30.3622 67.2683L22.1036 58.4461C20.6673 56.8257 25.8738 52.6846 27.4896 54.4851ZM21.565 103.638L5.40692 85.0929L25.5148 67.4484L27.6692 69.789C30.7212 73.0298 37.364 70.6892 38.9798 66.008C42.9296 67.2683 47.4179 64.9277 48.3156 60.7867C50.8291 61.5069 53.163 60.9667 54.7788 59.5264C56.2151 58.4461 57.1128 56.8257 57.2923 54.6651C59.4467 54.8452 61.2421 54.305 62.8579 53.0447C63.0374 52.8647 63.0374 52.8647 63.2169 52.6846V62.9472L55.1379 66.008C54.7788 66.1881 54.4198 66.3681 54.2402 66.7282L48.4951 74.8303C48.1361 75.3704 48.1361 76.0906 48.3156 76.6307L49.0337 78.0711L21.565 103.638ZM74.3481 66.9083L65.0123 78.7913C64.8327 79.1514 64.6532 79.5115 64.6532 79.8716V109.219H42.391V97.5161C42.391 97.156 42.2114 96.7959 42.2114 96.6158L39.5184 92.1147L50.6495 81.672L51.1881 83.1124C51.5472 84.0126 52.6244 84.3727 53.5221 84.0126C54.4198 83.6525 54.7788 82.5723 54.4198 81.672L52.0858 76.2706L56.9332 69.4289L65.9099 66.1881C66.6281 66.008 67.1667 65.2878 67.1667 64.5677V51.9645C67.1667 47.4633 70.3983 43.8624 74.5276 42.9622V66.9083H74.3481ZM109.716 47.8234L100.381 37.0206C99.6624 36.3005 98.5852 36.1204 97.867 36.8406L78.1183 54.125V40.8016C78.1183 39.7213 77.4001 39.0012 76.3229 39.0012C71.655 39.0012 67.5258 41.7018 65.1918 45.4828C65.0123 44.9427 64.6532 44.4025 64.2941 44.0424L59.0876 38.281L81.709 18.4759C82.4271 17.7557 82.6066 16.6755 81.8885 15.9553L72.5527 5.15253L112.589 7.85321L109.716 47.8234Z" fill="#6E8869" stroke="white" stroke-width="0.5"/>
</svg>
