<svg width="52" height="46" viewBox="0 0 52 46" fill="none" xmlns="http://www.w3.org/2000/svg">
<path d="M13.4488 45.1619C9.60298 45.1619 6.52634 43.7884 4.21885 41.0414C2.02125 38.1845 0.922449 34.5035 0.922449 29.9985C0.922449 23.8452 2.57065 18.2962 5.86705 13.3516C9.27334 8.29713 14.4377 4.06674 21.3602 0.660463L23.1732 3.29758C19.8768 5.27543 16.8551 8.07737 14.1081 11.7034C11.4709 15.2196 10.1524 18.7907 10.1524 22.4167C10.1524 23.4056 10.4271 24.2297 10.9765 24.889C11.5259 25.4384 12.35 25.7131 13.4488 25.7131C16.1958 25.7131 18.5033 26.7021 20.3712 28.6799C22.3491 30.5479 23.338 32.8553 23.338 35.6023C23.338 38.3493 22.3491 40.6568 20.3712 42.5248C18.5033 44.2829 16.1958 45.1619 13.4488 45.1619ZM41.9627 45.1619C38.1169 45.1619 35.0402 43.7884 32.7327 41.0414C30.5351 38.1845 29.4363 34.5035 29.4363 29.9985C29.4363 23.8452 31.0845 18.2962 34.3809 13.3516C37.7872 8.29713 42.9516 4.06674 49.874 0.660463L51.6871 3.29758C48.3907 5.27543 45.369 8.07737 42.622 11.7034C39.9848 15.2196 38.6663 18.7907 38.6663 22.4167C38.6663 23.4056 38.941 24.2297 39.4904 24.889C40.0398 25.4384 40.8639 25.7131 41.9627 25.7131C44.7097 25.7131 47.0172 26.7021 48.8851 28.6799C50.863 30.5479 51.8519 32.8553 51.8519 35.6023C51.8519 38.3493 50.863 40.6568 48.8851 42.5248C47.0172 44.2829 44.7097 45.1619 41.9627 45.1619Z" fill="#D29069"/>
</svg>
