<svg width="44" height="38" viewBox="0 0 44 38" fill="none" xmlns="http://www.w3.org/2000/svg">
<path d="M11.2073 37.9683C8.00248 37.9683 5.43861 36.8237 3.51571 34.5345C1.68437 32.1538 0.768707 29.0863 0.768707 25.332C0.768707 20.2043 2.14221 15.5802 4.88921 11.4597C7.72778 7.2476 12.0314 3.72229 17.8001 0.88372L19.311 3.08132C16.564 4.72952 14.0459 7.06447 11.7567 10.0862C9.55912 13.0163 8.46032 15.9922 8.46032 19.0139C8.46032 19.838 8.68923 20.5248 9.14707 21.0742C9.6049 21.532 10.2917 21.7609 11.2073 21.7609C13.4965 21.7609 15.4194 22.585 16.976 24.2332C18.6242 25.7899 19.4483 27.7128 19.4483 30.002C19.4483 32.2911 18.6242 34.214 16.976 35.7707C15.4194 37.2357 13.4965 37.9683 11.2073 37.9683ZM34.9689 37.9683C31.7641 37.9683 29.2002 36.8237 27.2773 34.5345C25.446 32.1538 24.5303 29.0863 24.5303 25.332C24.5303 20.2043 25.9038 15.5802 28.6508 11.4597C31.4894 7.2476 35.793 3.72229 41.5617 0.88372L43.0726 3.08132C40.3256 4.72952 37.8075 7.06447 35.5183 10.0862C33.3207 13.0163 32.2219 15.9922 32.2219 19.0139C32.2219 19.838 32.4508 20.5248 32.9086 21.0742C33.3665 21.532 34.0532 21.7609 34.9689 21.7609C37.2581 21.7609 39.181 22.585 40.7376 24.2332C42.3858 25.7899 43.2099 27.7128 43.2099 30.002C43.2099 32.2911 42.3858 34.214 40.7376 35.7707C39.181 37.2357 37.2581 37.9683 34.9689 37.9683Z" fill="#6E8869"/>
</svg>
