<svg width="117" height="117" viewBox="0 0 117 117" fill="none" xmlns="http://www.w3.org/2000/svg">
<path d="M70.5009 116.051V113.604C72.2708 113.298 73.9162 112.492 75.243 111.281C76.2488 110.348 76.9396 109.126 77.2195 107.783C77.4994 106.441 77.3547 105.044 76.8053 103.788C76.1863 102.623 75.2845 101.633 74.1829 100.908C73.0813 100.184 71.8151 99.7475 70.5009 99.6399V92.7272C71.7313 93.2111 72.9756 94.1097 72.9756 95.3264H76.7223C76.7223 91.9253 73.6669 89.5612 70.5009 88.8422V86.0771H66.7956V88.6902C64.7305 88.8853 62.787 89.755 61.2655 91.1649C60.2803 92.1183 59.6175 93.3556 59.3697 94.704C59.1218 96.0524 59.3013 97.4445 59.8829 98.686C60.6009 99.9111 61.6045 100.945 62.8082 101.698C64.0119 102.452 65.3799 102.903 66.7956 103.013V109.815C65.4131 109.428 63.6573 108.433 63.6573 106.926H59.8829C59.8829 110.493 63.201 112.981 66.4777 113.59H66.768V116.009L70.5009 116.051ZM70.5009 103.483C71.116 103.58 71.7014 103.815 72.2136 104.169C72.7257 104.523 73.1516 104.988 73.4595 105.53C73.6524 106.069 73.6792 106.653 73.5362 107.208C73.3932 107.763 73.0872 108.262 72.6576 108.64C72.0411 109.196 71.3022 109.599 70.5009 109.815V103.483ZM63.1596 96.9578C62.9603 96.4194 62.9277 95.8335 63.0657 95.2763C63.2038 94.7191 63.5062 94.2163 63.9338 93.8332C64.7053 93.1189 65.6645 92.6393 66.6989 92.4507V99.1975C65.9827 99.1002 65.2959 98.8498 64.6851 98.4633C64.0744 98.0769 63.5541 97.5634 63.1596 96.9578Z" fill="#9F3232" stroke="white"/>
<path d="M116 49.4806L60.6983 1.45103C60.3597 1.16002 59.928 1 59.4816 1C59.0352 1 58.6035 1.16002 58.265 1.45103L1 49.6327L3.41945 52.4946L21.3096 37.4387V84.1963C21.3096 84.4426 21.3583 84.6864 21.453 84.9138C21.5476 85.1411 21.6863 85.3475 21.8611 85.521C22.0359 85.6945 22.2433 85.8317 22.4713 85.9246C22.6994 86.0176 22.9436 86.0646 23.1898 86.0627H52.0297L39.9739 96.6115L42.4348 99.3766L68.9659 76.2328L82.1553 91.2473C82.4873 91.6229 82.9546 91.8516 83.4549 91.8832C83.9595 91.9131 84.4557 91.7444 84.8375 91.4132L108.562 70.3017V83.2147H112.309V66.1264C112.314 65.881 112.27 65.6369 112.179 65.4088C112.088 65.1808 111.952 64.9734 111.779 64.7991C111.606 64.6249 111.4 64.4873 111.173 64.3947C110.945 64.302 110.702 64.2562 110.456 64.26H94.0176V68.0067H105.507L83.7176 87.3623L70.542 72.3479C70.2144 71.9759 69.7531 71.7484 69.2586 71.7147C68.7641 71.681 68.2763 71.844 67.9013 72.1682L56.3847 82.2607H51.214V61.3705C51.2213 59.1531 52.1044 57.0284 53.6711 55.4591C55.2377 53.8899 57.361 53.0032 59.5784 52.9923C61.8043 52.9959 63.9381 53.8808 65.5133 55.4534C67.0886 57.0261 67.977 59.1585 67.9843 61.3843V67.5643H71.7309V61.3843C71.72 58.1696 70.4371 55.0898 68.1627 52.8179C65.8882 50.546 62.807 49.2667 59.5922 49.2594C56.3762 49.2667 53.2935 50.5456 51.0168 52.8171C48.7402 55.0886 47.4542 58.1683 47.4397 61.3843V82.2884H25.0839L25.0148 34.2588L59.4401 5.2945L94.0037 35.3372V55.3288H97.7504V38.6L113.498 52.2872L116 49.4806Z" fill="#9F3232" stroke="white"/>
</svg>
