<svg width="115" height="127" viewBox="0 0 115 127" fill="none" xmlns="http://www.w3.org/2000/svg">
<path d="M22.3574 80.3418H1.34894C0.604326 80.3418 0 80.9434 0 81.6847V125.245C0 125.986 0.604326 126.587 1.34894 126.587H22.3574C23.102 126.587 23.7063 125.986 23.7063 125.245V81.6847C23.7063 80.9408 23.102 80.3418 22.3574 80.3418ZM21.0084 123.899H2.69788V83.0277H21.0084V123.899Z" fill="#D29069"/>
<path d="M52.7866 68.6113H31.7781C31.0335 68.6113 30.4292 69.213 30.4292 69.9543V125.241C30.4292 125.982 31.0335 126.584 31.7781 126.584H52.7866C53.5312 126.584 54.1355 125.982 54.1355 125.241V69.9543C54.1355 69.213 53.5339 68.6113 52.7866 68.6113ZM51.4376 123.898H33.1271V71.2972H51.4376V123.898Z" fill="#D29069"/>
<path d="M83.2187 53.0352H62.2103C61.4657 53.0352 60.8613 53.6368 60.8613 54.3781V125.245C60.8613 125.987 61.4657 126.588 62.2103 126.588H83.2187C83.9633 126.588 84.5676 125.987 84.5676 125.245V54.3781C84.5676 53.6341 83.966 53.0352 83.2187 53.0352ZM81.8698 123.9H63.5592V55.7211H81.8698V123.9Z" fill="#D29069"/>
<path d="M113.651 38.291H92.6453C91.9007 38.291 91.2964 38.8927 91.2964 39.634V125.244C91.2964 125.985 91.9007 126.587 92.6453 126.587H113.651C114.396 126.587 115 125.985 115 125.244V39.634C115 38.89 114.396 38.291 113.651 38.291ZM112.302 123.899H93.9943V40.9769H112.302V123.899Z" fill="#D29069"/>
<path d="M1.35164 56.4185C55.4145 56.4185 96.4952 20.6988 111.593 5.4053L109.178 19.6701C109.054 20.4006 109.55 21.0936 110.284 21.2172C110.36 21.2279 110.435 21.236 110.511 21.236C111.156 21.236 111.727 20.7713 111.838 20.1159L114.978 1.54836C114.987 1.5027 114.97 1.46241 114.973 1.41675C114.978 1.33885 114.984 1.26365 114.976 1.18576C114.973 1.15622 114.984 1.12936 114.978 1.1025C114.976 1.08907 114.965 1.07564 114.962 1.06221C114.951 1.0058 114.924 0.952086 114.906 0.898369C114.881 0.828535 114.854 0.761387 114.819 0.69424C114.798 0.656638 114.784 0.61635 114.763 0.581433C114.728 0.527715 114.682 0.490114 114.638 0.444453C114.609 0.412223 114.595 0.371934 114.566 0.342389C114.541 0.320902 114.509 0.312844 114.485 0.291357C114.46 0.26987 114.436 0.243012 114.409 0.224211C114.355 0.186608 114.296 0.16512 114.234 0.138261C114.164 0.103344 114.094 0.0711149 114.018 0.0469418C113.986 0.0388842 113.959 0.0254541 113.924 0.0200823C113.905 0.0173964 113.891 0.00396702 113.872 0.00128113C113.829 -0.00409066 113.789 0.00933842 113.745 0.00665252C113.667 0.00128074 113.589 -0.00409105 113.511 0.00665252C113.481 0.00933842 113.454 -0.00140624 113.424 0.00396554L94.774 3.13035C94.0402 3.2539 93.5437 3.94686 93.6678 4.67742C93.7784 5.33278 94.3504 5.79744 94.9952 5.79744C95.0707 5.79744 95.1463 5.79207 95.2218 5.77864L109.869 3.32373C95.1786 18.26 54.6376 53.7353 1.34894 53.7353C0.604326 53.7353 0 54.3369 0 55.0782C0 55.8195 0.604325 56.4185 1.35164 56.4185Z" fill="#D29069"/>
</svg>
