<svg width="117" height="99" viewBox="0 0 117 99" fill="none" xmlns="http://www.w3.org/2000/svg">
<path d="M76.8772 50.8049C76.5723 50.8049 76.2799 50.9265 76.0643 51.1431C75.8487 51.3597 75.7276 51.6534 75.7276 51.9596C75.7276 62.5026 84.6719 71.071 95.6741 71.071H96.0535C107.056 71.071 116 62.5026 116 51.9596C116 51.6534 115.879 51.3597 115.663 51.1431C115.448 50.9265 115.155 50.8049 114.85 50.8049H112.402L98.8012 21.4162C99.6697 20.8828 100.392 20.14 100.903 19.2553C101.413 18.3706 101.696 17.3718 101.725 16.3497C101.753 15.3275 101.528 14.3142 101.068 13.4018C100.609 12.4893 99.9298 11.7065 99.0928 11.1243C98.2559 10.5421 97.2875 10.179 96.2755 10.0679C95.2634 9.95678 94.2398 10.1012 93.2974 10.488C92.3549 10.8747 91.5236 11.4917 90.8786 12.2829C90.2336 13.0741 89.7955 14.0145 89.6039 15.0188H66.7488C66.5828 13.8416 66.1701 12.7131 65.5379 11.7078C64.9058 10.7026 64.0685 9.84351 63.0814 9.18726V2.15476C63.0814 1.8485 62.9603 1.55478 62.7447 1.33822C62.529 1.12166 62.2366 1 61.9317 1H55.0338C54.7289 1 54.4365 1.12166 54.2209 1.33822C54.0053 1.55478 53.8841 1.8485 53.8841 2.15476V9.14107C52.9013 9.79966 52.0684 10.6598 51.4403 11.6649C50.8122 12.67 50.403 13.7973 50.2397 14.9726H27.3271C27.1355 13.9683 26.6974 13.0279 26.0524 12.2367C25.4075 11.4455 24.5761 10.8286 23.6337 10.4418C22.6912 10.055 21.6676 9.91059 20.6556 10.0217C19.6435 10.1328 18.6751 10.4959 17.8382 11.0781C17.0012 11.6603 16.3222 12.4431 15.8626 13.3556C15.4031 14.268 15.1775 15.2813 15.2065 16.3035C15.2355 17.3256 15.518 18.3244 16.0285 19.2091C16.539 20.0939 17.2613 20.8366 18.1299 21.37L4.56393 50.8049H2.14966C1.84475 50.8049 1.55233 50.9265 1.33673 51.1431C1.12112 51.3597 1 51.6534 1 51.9596C1 62.5026 9.94432 71.071 20.9465 71.071H21.3259C32.3281 71.071 41.2379 62.5026 41.2379 51.9596C41.2379 51.6534 41.1168 51.3597 40.9012 51.1431C40.6856 50.9265 40.3932 50.8049 40.0883 50.8049H38.0764L24.476 21.4162C25.2119 20.976 25.8465 20.384 26.338 19.6794C26.8294 18.9747 27.1665 18.1734 27.3271 17.3283H50.2167C50.3827 18.5056 50.7954 19.6341 51.4276 20.6393C52.0598 21.6445 52.897 22.5036 53.8841 23.1599V84.6279H25.913C23.8031 84.6279 21.7795 85.4698 20.2876 86.9684C18.7956 88.4669 17.9574 90.4995 17.9574 92.6188V96.8452C17.9574 97.1515 18.0785 97.4452 18.2941 97.6618C18.5097 97.8783 18.8022 98 19.1071 98H97.8699C98.1749 98 98.4673 97.8783 98.6829 97.6618C98.8985 97.4452 99.0196 97.1515 99.0196 96.8452V92.6188C99.0166 90.5004 98.1774 88.4697 96.6861 86.9717C95.1948 85.4738 93.173 84.6309 91.064 84.6279H63.0814V23.1599C64.0642 22.5013 64.8971 21.6412 65.5252 20.6361C66.1534 19.631 66.5625 18.5037 66.7258 17.3283H89.6384C89.799 18.1734 90.1361 18.9747 90.6275 19.6794C91.119 20.384 91.7536 20.976 92.4896 21.4162L78.8891 50.8049H76.8772ZM96.019 68.7614H95.6396C86.3159 68.7614 78.6592 61.8329 78.0384 53.1144H113.666C112.999 61.8444 105.343 68.7614 96.019 68.7614ZM56.1834 3.30952H60.7821V8.07869C59.2801 7.64115 57.6854 7.64115 56.1834 8.07869V3.30952ZM21.3259 68.7614H20.9465C11.6228 68.7614 3.96611 61.8329 3.3453 53.1144H38.9386C38.3063 61.8444 30.6496 68.7614 21.3259 68.7614ZM35.5471 50.8049H7.09317L20.3257 22.2245C20.9815 22.3632 21.6588 22.3632 22.3146 22.2245L35.5471 50.8049ZM21.3144 20.0189C20.5572 20.0189 19.8171 19.7934 19.1875 19.3709C18.5579 18.9483 18.0672 18.3478 17.7775 17.6451C17.4877 16.9425 17.4119 16.1693 17.5596 15.4234C17.7073 14.6775 18.0719 13.9923 18.6074 13.4545C19.1428 12.9167 19.8249 12.5505 20.5675 12.4021C21.3102 12.2537 22.0799 12.3299 22.7795 12.6209C23.479 12.912 24.0769 13.4048 24.4976 14.0372C24.9182 14.6696 25.1428 15.413 25.1428 16.1736C25.1397 17.1925 24.7354 18.1688 24.0181 18.8893C23.3008 19.6098 22.3288 20.0159 21.3144 20.0189ZM96.7203 92.6188V95.6905H20.2567V92.6188C20.2567 91.112 20.8527 89.6669 21.9134 88.6014C22.9742 87.536 24.4129 86.9374 25.913 86.9374H91.064C92.5641 86.9374 94.0028 87.536 95.0636 88.6014C96.1244 89.6669 96.7203 91.112 96.7203 92.6188ZM60.7821 84.6279H56.1834V24.2223C57.6854 24.6598 59.2801 24.6598 60.7821 24.2223V84.6279ZM58.4828 22.2707C57.2867 22.2707 56.1176 21.9145 55.1231 21.2471C54.1287 20.5796 53.3536 19.631 52.8959 18.5211C52.4382 17.4112 52.3184 16.1899 52.5518 15.0117C52.7851 13.8334 53.361 12.7511 54.2067 11.9017C55.0525 11.0522 56.13 10.4737 57.303 10.2393C58.476 10.005 59.6919 10.1252 60.7969 10.585C61.9019 11.0447 62.8463 11.8232 63.5108 12.8221C64.1753 13.821 64.5299 14.9953 64.5299 16.1967C64.5208 17.8027 63.8801 19.3399 62.7473 20.4734C61.6146 21.6069 60.0817 22.2446 58.4828 22.2476V22.2707ZM95.6511 12.3513C96.4093 12.3513 97.1503 12.5774 97.7804 13.001C98.4105 13.4246 98.9011 14.0265 99.1902 14.7305C99.4793 15.4345 99.5537 16.2088 99.4041 16.9554C99.2545 17.7019 98.8876 18.3871 98.3499 18.9239C97.8122 19.4608 97.1279 19.8252 96.3838 19.9709C95.6396 20.1167 94.8692 20.0372 94.1701 19.7426C93.4709 19.4481 92.8746 18.9516 92.4567 18.3162C92.0389 17.6808 91.8182 16.9351 91.8228 16.1736C91.8258 15.1547 92.2301 14.1783 92.9474 13.4579C93.6647 12.7374 94.6367 12.3313 95.6511 12.3282V12.3513ZM94.6509 22.2476C95.3067 22.3863 95.984 22.3863 96.6398 22.2476L109.872 50.8049H81.4759L94.6509 22.2476Z" fill="#D29069" stroke="#D29069"/>
</svg>
