<svg width="116" height="116" viewBox="0 0 116 116" fill="none" xmlns="http://www.w3.org/2000/svg">
<path fill-rule="evenodd" clip-rule="evenodd" d="M47.6294 50.972C47.6294 45.4646 52.094 41 57.6014 41C63.1088 41 67.5734 45.4646 67.5734 50.972V51.7692C67.5734 57.2766 63.1088 61.7413 57.6014 61.7413C52.094 61.7413 47.6294 57.2766 47.6294 51.7692V50.972ZM57.6014 45C54.3032 45 51.6294 47.6738 51.6294 50.972V51.7692C51.6294 55.0675 54.3032 57.7413 57.6014 57.7413C60.8997 57.7413 63.5734 55.0675 63.5734 51.7692V50.972C63.5734 47.6738 60.8997 45 57.6014 45Z" fill="#9F3232" stroke="white"/>
<path d="M58 1C46.7265 1 35.7061 4.34299 26.3325 10.6062C16.9589 16.8695 9.65309 25.7716 5.33889 36.187C1.0247 46.6024 -0.104093 58.0632 2.09526 69.1201C4.29462 80.177 9.72334 90.3335 17.6949 98.3051C25.6665 106.277 35.823 111.705 46.8799 113.905C57.9368 116.104 69.3976 114.975 79.813 110.661C90.2283 106.347 99.1305 99.0411 105.394 89.6675C111.657 80.2939 115 69.2735 115 58C114.983 42.8879 108.972 28.3997 98.2862 17.7138C87.6003 7.02793 73.1121 1.0171 58 1ZM111.153 56.1H90.2734C90.1888 44.8603 87.9306 33.7431 83.6234 23.3611C86.808 21.7615 89.8342 19.8645 92.6617 17.6953C98.2299 22.4719 102.748 28.3506 105.93 34.9606C109.113 41.5706 110.891 48.7684 111.153 56.1ZM58 72.1683L55.1899 65.6H60.8101L58 72.1683ZM59.9 77.3895L64.7336 66.0864C66.6444 66.6953 68.3112 67.8976 69.492 69.5185C70.6729 71.1394 71.3062 73.0946 71.3 75.1V78.7803C67.8764 80.9813 63.9585 82.2951 59.9 82.6031V77.3895ZM63.928 61.9767C63.2246 61.8607 62.5129 61.8016 61.8 61.8H54.2C53.4877 61.8007 52.7766 61.8598 52.0739 61.9767C48.9509 62.4687 46.1072 64.0626 44.0575 66.4698C42.0079 68.877 40.8878 71.9384 40.9 75.1V75.7821C37.3434 72.3698 34.889 67.9716 33.8524 63.153C32.8159 58.3345 33.2446 53.316 35.0835 48.7431C36.9224 44.1702 40.0874 40.252 44.1713 37.4926C48.2551 34.7331 53.0712 33.2585 58 33.2585C62.9288 33.2585 67.7449 34.7331 71.8288 37.4926C75.9127 40.252 79.0776 44.1702 80.9165 48.7431C82.7554 53.316 83.1842 58.3345 82.1476 63.153C81.1111 67.9716 78.6566 72.3698 75.1 75.7821V75.1C75.1123 71.9387 73.9925 68.8775 71.9432 66.4703C69.894 64.0632 67.0507 62.4691 63.928 61.9767ZM44.7 75.1C44.6938 73.0946 45.3271 71.1394 46.508 69.5185C47.6888 67.8976 49.3557 66.6953 51.2664 66.0864L56.1 77.3895V82.6031C52.0415 82.2951 48.1237 80.9813 44.7 78.7803V75.1ZM56.1 111.069C48.7185 110.157 42.1008 103.98 37.3109 94.5389C43.2699 92.0249 49.6367 90.6163 56.1 90.3817V111.069ZM59.9 111.069V90.3817C66.3629 90.6141 72.7295 92.0202 78.6891 94.5313C73.8992 103.98 67.2815 110.157 59.9 111.069ZM59.9 86.5817V86.4031C67.2776 85.9101 74.1749 82.5692 79.1353 77.0859C84.0956 71.6025 86.7308 64.4059 86.4841 57.016C86.2375 49.626 83.1285 42.6211 77.8136 37.4806C72.4988 32.3402 65.3941 29.4665 58 29.4665C50.6059 29.4665 43.5013 32.3402 38.1864 37.4806C32.8715 42.6211 29.7625 49.626 29.5159 57.016C29.2693 64.4059 31.9044 71.6025 36.8647 77.0859C41.8251 82.5692 48.7224 85.9101 56.1 86.4031V86.5817C49.0835 86.8167 42.1704 88.3433 35.7073 91.0847C31.4683 80.5761 29.3584 69.3304 29.5 58C29.3584 46.6696 31.4683 35.4238 35.7073 24.9153C42.7553 27.9239 50.3368 29.4831 58 29.5C65.6641 29.4829 73.2462 27.9231 80.2946 24.9134C84.5319 35.423 86.6411 46.6692 86.5 58C86.6411 69.3308 84.5319 80.5769 80.2946 91.0866C73.8312 88.3439 66.9174 86.8167 59.9 86.5817ZM59.9 4.9311C67.2815 5.8431 73.8992 12.02 78.6891 21.4611C72.73 23.9748 66.3633 25.3835 59.9 25.6183V4.9311ZM56.1 4.9311V25.6183C49.6371 25.3861 43.2704 23.98 37.3109 21.4687C42.1008 12.02 48.7185 5.8431 56.1 4.9311ZM89.6084 15.2386C87.2123 17.0128 84.6698 18.5802 82.0084 19.924C79.5816 14.9159 76.2078 10.4252 72.0733 6.7C78.3961 8.4374 84.3417 11.3326 89.6084 15.2386ZM33.9878 19.924C31.3261 18.5806 28.7836 17.0132 26.3878 15.2386C31.6557 11.3322 37.6026 8.43696 43.9267 6.7C39.7909 10.4248 36.4157 14.9155 33.9878 19.924ZM23.3345 17.6953C26.162 19.8645 29.1883 21.7615 32.3728 23.3611C28.0671 33.7434 25.8103 44.8606 25.7266 56.1H4.84752C5.10863 48.7687 6.88617 41.5711 10.068 34.9611C13.2499 28.3511 17.767 22.4722 23.3345 17.6953ZM4.84752 59.9H25.7266C25.8115 71.1397 28.0696 82.2568 32.3766 92.6389C29.1921 94.2385 26.1658 96.1355 23.3383 98.3047C17.7701 93.5281 13.2523 87.6494 10.0698 81.0394C6.88724 74.4294 5.1091 67.2316 4.84752 59.9ZM26.3916 100.761C28.7874 98.9868 31.33 97.4193 33.9916 96.076C36.4184 101.084 39.7922 105.575 43.9267 109.3C37.604 107.563 31.6584 104.667 26.3916 100.761ZM82.0122 96.076C84.6736 97.4198 87.2161 98.9872 89.6122 100.761C84.3443 104.668 78.3974 107.563 72.0733 109.3C76.2091 105.575 79.5843 101.084 82.0122 96.076ZM92.6655 98.3047C89.838 96.1355 86.8118 94.2385 83.6272 92.6389C87.9331 82.2566 90.19 71.1394 90.2734 59.9H111.153C110.891 67.2313 109.114 74.4289 105.932 81.0389C102.75 87.6489 98.233 93.5277 92.6655 98.3047Z" fill="#9F3232" stroke="white"/>
</svg>
